<svg width="28" height="28" viewBox="0 0 28 28" fill="none" xmlns="http://www.w3.org/2000/svg">
<mask id="mask0_390_7739" style="mask-type:alpha" maskUnits="userSpaceOnUse" x="0" y="0" width="28" height="28">
<rect width="28" height="28" fill="#D9D9D9"/>
</mask>
<g mask="url(#mask0_390_7739)">
<path d="M12.3673 19.3668L20.5923 11.1418L18.959 9.5085L12.3673 16.1002L9.04232 12.7752L7.40898 14.4085L12.3673 19.3668ZM14.0007 25.6668C12.3868 25.6668 10.8701 25.3606 9.45065 24.7481C8.03121 24.1356 6.79648 23.3043 5.74648 22.2543C4.69648 21.2043 3.86523 19.9696 3.25273 18.5502C2.64023 17.1307 2.33398 15.6141 2.33398 14.0002C2.33398 12.3863 2.64023 10.8696 3.25273 9.45016C3.86523 8.03072 4.69648 6.796 5.74648 5.746C6.79648 4.696 8.03121 3.86475 9.45065 3.25225C10.8701 2.63975 12.3868 2.3335 14.0007 2.3335C15.6145 2.3335 17.1312 2.63975 18.5507 3.25225C19.9701 3.86475 21.2048 4.696 22.2548 5.746C23.3048 6.796 24.1361 8.03072 24.7486 9.45016C25.3611 10.8696 25.6673 12.3863 25.6673 14.0002C25.6673 15.6141 25.3611 17.1307 24.7486 18.5502C24.1361 19.9696 23.3048 21.2043 22.2548 22.2543C21.2048 23.3043 19.9701 24.1356 18.5507 24.7481C17.1312 25.3606 15.6145 25.6668 14.0007 25.6668Z" fill="#006F54"/>
</g>
</svg>
