<svg width="14" height="20" viewBox="0 0 14 20" fill="none" xmlns="http://www.w3.org/2000/svg">
<path d="M9.10944 0.89782C9.6075 0.877649 10.1054 0.863629 10.6037 0.851294C10.825 0.840878 10.825 0.840878 11.0508 0.830251C11.8027 0.819569 12.2589 0.874991 12.8545 1.35562C13.5389 2.06503 13.5158 2.41314 13.5165 3.38359C13.5169 3.56733 13.5169 3.56733 13.5174 3.75479C13.5182 4.16214 13.5177 4.56948 13.5171 4.97684C13.5172 5.26202 13.5174 5.54719 13.5176 5.83237C13.5179 6.43285 13.5175 7.03332 13.5166 7.63379C13.5156 8.39381 13.5162 9.15381 13.5173 9.91382C13.518 10.5048 13.5177 11.0959 13.5173 11.6869C13.5171 11.9664 13.5173 12.2459 13.5177 12.5254C13.5188 13.4455 13.5106 14.365 13.4929 15.285C13.4905 15.4325 13.4881 15.58 13.4856 15.732C13.4765 16.1835 13.462 16.6344 13.4459 17.0857C13.4422 17.2946 13.4422 17.2946 13.4384 17.5078C13.4122 18.0984 13.3918 18.4662 12.9937 18.9189C12.5264 19.1291 12.2112 19.1707 11.6996 19.1685C11.5245 19.1691 11.3494 19.1696 11.169 19.1702C10.9806 19.1679 10.7921 19.1657 10.598 19.1634C10.4022 19.163 10.2064 19.1627 10.0047 19.1623C9.58981 19.1611 9.17491 19.1586 8.76002 19.1548C8.13135 19.1492 7.50277 19.1474 6.87408 19.1463C6.46979 19.1446 6.0655 19.1428 5.66122 19.1406C5.38298 19.1395 5.38298 19.1395 5.09911 19.1383C1.58077 19.1041 1.58077 19.1041 0.718781 18.5468C0.0908707 17.53 0.166338 16.1618 0.105953 14.9845C0.0983005 14.8361 0.0906483 14.6877 0.0827641 14.5347C0.00635157 12.9171 -0.0025758 11.3005 0.00117844 9.68133C0.00215664 9.1816 0.00117921 8.68189 2.31645e-05 8.18216C-0.000790199 6.59933 0.0196052 5.01878 0.0945778 3.43757C0.100104 3.30105 0.10563 3.16453 0.111324 3.02387C0.148087 2.35741 0.1919 2.03303 0.570906 1.46501C1.10354 1.36572 1.60272 1.3026 2.14066 1.26044C2.30136 1.24629 2.46207 1.23213 2.62765 1.21755C4.42939 1.06785 6.23426 0.986158 8.04126 0.935467C8.39738 0.924881 8.75346 0.912357 9.10944 0.89782Z" fill="#F9F9FA"/>
<path d="M9.10944 0.89782C9.6075 0.877649 10.1054 0.863629 10.6037 0.851294C10.825 0.840878 10.825 0.840878 11.0508 0.830251C11.8027 0.819569 12.2589 0.874991 12.8545 1.35562C13.5389 2.06503 13.5158 2.41314 13.5165 3.38359C13.5169 3.56733 13.5169 3.56733 13.5174 3.75479C13.5182 4.16214 13.5177 4.56948 13.5171 4.97684C13.5172 5.26202 13.5174 5.54719 13.5176 5.83237C13.5179 6.43285 13.5175 7.03332 13.5166 7.63379C13.5156 8.39381 13.5162 9.15381 13.5173 9.91382C13.518 10.5048 13.5177 11.0959 13.5173 11.6869C13.5171 11.9664 13.5173 12.2459 13.5177 12.5254C13.5188 13.4455 13.5106 14.365 13.4929 15.285C13.4905 15.4325 13.4881 15.58 13.4856 15.732C13.4765 16.1835 13.462 16.6344 13.4459 17.0857C13.4422 17.2946 13.4422 17.2946 13.4384 17.5078C13.4122 18.0984 13.3918 18.4662 12.9937 18.9189C12.5264 19.1291 12.2112 19.1707 11.6996 19.1685C11.5245 19.1691 11.3494 19.1696 11.169 19.1702C10.9806 19.1679 10.7921 19.1657 10.598 19.1634C10.4022 19.163 10.2064 19.1627 10.0047 19.1623C9.58981 19.1611 9.17491 19.1586 8.76002 19.1548C8.13135 19.1492 7.50277 19.1474 6.87408 19.1463C6.46979 19.1446 6.0655 19.1428 5.66122 19.1406C5.38298 19.1395 5.38298 19.1395 5.09911 19.1383C1.58077 19.1041 1.58077 19.1041 0.718781 18.5468C0.0908707 17.53 0.166338 16.1618 0.105953 14.9845C0.0983005 14.8361 0.0906483 14.6877 0.0827641 14.5347C0.00635157 12.9171 -0.0025758 11.3005 0.00117844 9.68133C0.00215664 9.1816 0.00117921 8.68189 2.31645e-05 8.18216C-0.000790199 6.59933 0.0196052 5.01878 0.0945778 3.43757C0.100104 3.30105 0.10563 3.16453 0.111324 3.02387C0.148087 2.35741 0.1919 2.03303 0.570906 1.46501C1.10354 1.36572 1.60272 1.3026 2.14066 1.26044C2.30136 1.24629 2.46207 1.23213 2.62765 1.21755C4.42939 1.06785 6.23426 0.986158 8.04126 0.935467C8.39738 0.924881 8.75346 0.912357 9.10944 0.89782ZM1.48091 2.91975C1.47665 4.3189 1.47344 5.71806 1.47148 7.11722C1.47053 7.76721 1.46926 8.41719 1.46718 9.06717C1.46517 9.69679 1.4641 10.3264 1.46364 10.956C1.46315 11.308 1.46173 11.6599 1.46029 12.0119C1.46017 13.8944 1.47448 15.7984 1.84491 17.649C5.14821 17.649 8.45151 17.649 11.8549 17.649C11.97 15.5784 12.0629 13.5392 12.0547 11.4706C12.0543 11.2103 12.0541 10.9499 12.0539 10.6896C12.0532 10.017 12.0514 9.34445 12.0494 8.67187C12.0475 7.98051 12.0467 7.28915 12.0458 6.59779C12.0439 5.25054 12.0408 3.9033 12.0369 2.55606C11.0894 2.5469 10.1418 2.54039 9.19427 2.53609C8.87363 2.53429 8.55299 2.53183 8.23237 2.52863C5.95579 2.50653 3.7399 2.63467 1.48091 2.91975Z" fill="#0F696D"/>
<path d="M4.77441 7.96321C4.9656 7.96269 4.9656 7.96269 5.16066 7.96215C5.43037 7.96191 5.7001 7.96258 5.96981 7.9641C6.38246 7.96604 6.79496 7.96412 7.2076 7.96179C7.46958 7.96203 7.73156 7.96249 7.99354 7.96321C8.23236 7.96362 8.47117 7.96403 8.71723 7.96445C9.30806 8.01151 9.30806 8.01151 9.85406 8.37519C9.91094 8.8298 9.91094 8.8298 9.85406 9.28441C9.40634 9.73174 9.15374 9.69274 8.54245 9.69862C8.4141 9.69789 8.28574 9.69715 8.1535 9.69639C8.02157 9.69674 7.88964 9.69709 7.75371 9.69745C7.47466 9.69769 7.1956 9.69702 6.91656 9.6955C6.48873 9.69356 6.06105 9.69548 5.63323 9.69781C5.36236 9.69757 5.09149 9.69711 4.82062 9.69639C4.69227 9.69713 4.56392 9.69786 4.43168 9.69862C3.52591 9.6899 3.52591 9.6899 3.12006 9.28441C3.07456 8.8298 3.07456 8.8298 3.12006 8.37519C3.64765 7.84807 4.03727 7.96448 4.77441 7.96321Z" fill="#0F696D"/>
<path d="M5.10301 13.7995C5.24732 13.7989 5.39162 13.7983 5.5403 13.7977C5.84615 13.7967 6.15199 13.7963 6.45783 13.7964C6.9268 13.796 7.39569 13.7927 7.86465 13.7892C8.16122 13.7887 8.4578 13.7883 8.75438 13.7881C8.89525 13.7868 9.03612 13.7855 9.18125 13.7842C10.1751 13.7884 10.1751 13.7884 10.5808 14.1937C10.6149 14.6597 10.6149 14.6597 10.5808 15.1029C10.2086 15.4748 9.43253 15.3146 8.92074 15.3153C8.69822 15.3162 8.69822 15.3162 8.47121 15.3172C8.1568 15.3181 7.84238 15.3185 7.52797 15.3185C7.04582 15.3189 6.56375 15.3222 6.08161 15.3256C5.77674 15.3262 5.47187 15.3265 5.16699 15.3267C5.02214 15.328 4.8773 15.3293 4.72806 15.3307C3.70643 15.3264 3.70643 15.3264 3.30078 14.9211C3.45713 13.6401 3.94809 13.8012 5.10301 13.7995Z" fill="#0F696D"/>
<path d="M4.8421 4.70771C5.04644 4.7068 5.04644 4.7068 5.25491 4.70587C5.54362 4.70495 5.83233 4.70453 6.12103 4.70456C6.56364 4.70416 7.00616 4.70086 7.44875 4.69741C7.72874 4.69687 8.00874 4.69651 8.28873 4.69634C8.48808 4.69438 8.48808 4.69438 8.69147 4.69238C9.62985 4.69664 9.62985 4.69664 10.0355 5.10194C9.93439 5.93033 9.93439 5.93033 9.6715 6.19299C9.21908 6.21584 8.77198 6.22729 8.3193 6.22992C8.1835 6.23096 8.0477 6.232 7.90779 6.23307C7.61985 6.23479 7.33191 6.23597 7.04396 6.23667C6.60333 6.23844 6.16284 6.24407 5.72224 6.24981C5.44284 6.251 5.16345 6.25196 4.88405 6.25266C4.75208 6.2549 4.62011 6.25715 4.48415 6.25946C3.56487 6.25539 3.56487 6.25539 3.12297 5.9165C3.06176 5.82771 3.00056 5.73893 2.9375 5.64746C3.42745 4.63577 3.75387 4.70936 4.8421 4.70771Z" fill="#0F696D"/>
<path d="M7.04316 11.0687C7.25466 11.0664 7.46616 11.0642 7.68407 11.0619C7.98654 11.0614 7.98654 11.0614 8.29512 11.0609C8.57298 11.0597 8.57298 11.0597 8.85645 11.0586C9.30678 11.1028 9.30678 11.1028 9.67078 11.4665C9.56967 12.2948 9.56967 12.2948 9.30678 12.5575C8.87441 12.5736 8.44736 12.5785 8.01501 12.5753C7.82149 12.5749 7.82149 12.5749 7.62406 12.5745C7.2105 12.5735 6.79696 12.5712 6.38341 12.5689C6.10365 12.568 5.8239 12.5671 5.54414 12.5664C4.85702 12.5644 4.1699 12.5612 3.48278 12.5575C3.42272 12.3175 3.36266 12.0774 3.30078 11.8301C4.57429 11.0392 5.57385 11.0695 7.04316 11.0687Z" fill="#0F696D"/>
</svg>
