<?xml version="1.0" encoding="UTF-8" standalone="no"?>
<!DOCTYPE svg PUBLIC "-//W3C//DTD SVG 1.1//EN" "http://www.w3.org/Graphics/SVG/1.1/DTD/svg11.dtd">
<svg width="100%" height="100%" viewBox="0 0 14 20" version="1.1" xmlns="http://www.w3.org/2000/svg" xmlns:xlink="http://www.w3.org/1999/xlink" xml:space="preserve" xmlns:serif="http://www.serif.com/" style="fill-rule:evenodd;clip-rule:evenodd;stroke-linejoin:round;stroke-miterlimit:2;">
    <path d="M9.109,0.898C9.608,0.878 10.105,0.864 10.604,0.851C10.825,0.841 10.825,0.841 11.051,0.83C11.803,0.82 12.259,0.875 12.855,1.356C13.539,2.065 13.516,2.413 13.517,3.384C13.517,3.567 13.517,3.567 13.517,3.755C13.518,4.162 13.518,4.569 13.517,4.977C13.517,5.262 13.517,5.547 13.518,5.832C13.518,6.433 13.518,7.033 13.517,7.634C13.516,8.394 13.516,9.154 13.517,9.914C13.518,10.505 13.518,11.096 13.517,11.687C13.517,11.966 13.517,12.246 13.518,12.525C13.519,13.445 13.511,14.365 13.493,15.285C13.491,15.432 13.488,15.58 13.486,15.732C13.477,16.183 13.462,16.634 13.446,17.086C13.442,17.295 13.442,17.295 13.438,17.508C13.412,18.098 13.392,18.466 12.994,18.919C12.526,19.129 12.211,19.171 11.7,19.169C11.525,19.169 11.349,19.17 11.169,19.17C10.981,19.168 10.792,19.166 10.598,19.163C10.402,19.163 10.206,19.163 10.005,19.162C9.59,19.161 9.175,19.159 8.76,19.155C8.131,19.149 7.503,19.147 6.874,19.146C6.47,19.145 6.066,19.143 5.661,19.141C5.383,19.14 5.383,19.14 5.099,19.138C1.581,19.104 1.581,19.104 0.719,18.547C0.091,17.53 0.166,16.162 0.106,14.985C0.098,14.836 0.091,14.688 0.083,14.535C0.006,12.917 -0.003,11.301 0.001,9.681C0.002,9.182 0.001,8.682 0,8.182C-0.001,6.599 0.02,5.019 0.095,3.438C0.1,3.301 0.106,3.165 0.111,3.024C0.148,2.357 0.192,2.033 0.571,1.465C1.104,1.366 1.603,1.303 2.141,1.26C2.301,1.246 2.462,1.232 2.628,1.218C4.429,1.068 6.234,0.986 8.041,0.935C8.397,0.925 8.753,0.912 9.109,0.898Z" style="fill:rgb(249,249,250);fill-rule:nonzero;"/>
    <path d="M9.109,0.898C9.608,0.878 10.105,0.864 10.604,0.851C10.825,0.841 10.825,0.841 11.051,0.83C11.803,0.82 12.259,0.875 12.855,1.356C13.539,2.065 13.516,2.413 13.517,3.384C13.517,3.567 13.517,3.567 13.517,3.755C13.518,4.162 13.518,4.569 13.517,4.977C13.517,5.262 13.517,5.547 13.518,5.832C13.518,6.433 13.518,7.033 13.517,7.634C13.516,8.394 13.516,9.154 13.517,9.914C13.518,10.505 13.518,11.096 13.517,11.687C13.517,11.966 13.517,12.246 13.518,12.525C13.519,13.445 13.511,14.365 13.493,15.285C13.491,15.432 13.488,15.58 13.486,15.732C13.477,16.183 13.462,16.634 13.446,17.086C13.442,17.295 13.442,17.295 13.438,17.508C13.412,18.098 13.392,18.466 12.994,18.919C12.526,19.129 12.211,19.171 11.7,19.169C11.525,19.169 11.349,19.17 11.169,19.17C10.981,19.168 10.792,19.166 10.598,19.163C10.402,19.163 10.206,19.163 10.005,19.162C9.59,19.161 9.175,19.159 8.76,19.155C8.131,19.149 7.503,19.147 6.874,19.146C6.47,19.145 6.066,19.143 5.661,19.141C5.383,19.14 5.383,19.14 5.099,19.138C1.581,19.104 1.581,19.104 0.719,18.547C0.091,17.53 0.166,16.162 0.106,14.985C0.098,14.836 0.091,14.688 0.083,14.535C0.006,12.917 -0.003,11.301 0.001,9.681C0.002,9.182 0.001,8.682 0,8.182C-0.001,6.599 0.02,5.019 0.095,3.438C0.1,3.301 0.106,3.165 0.111,3.024C0.148,2.357 0.192,2.033 0.571,1.465C1.104,1.366 1.603,1.303 2.141,1.26C2.301,1.246 2.462,1.232 2.628,1.218C4.429,1.068 6.234,0.986 8.041,0.935C8.397,0.925 8.753,0.912 9.109,0.898ZM1.481,2.92C1.477,4.319 1.473,5.718 1.471,7.117C1.471,7.767 1.469,8.417 1.467,9.067C1.465,9.697 1.464,10.326 1.464,10.956C1.463,11.308 1.462,11.66 1.46,12.012C1.46,13.894 1.474,15.798 1.845,17.649L11.855,17.649C11.97,15.578 12.063,13.539 12.055,11.471C12.054,11.21 12.054,10.95 12.054,10.69C12.053,10.017 12.051,9.344 12.049,8.672C12.048,7.981 12.047,7.289 12.046,6.598C12.044,5.251 12.041,3.903 12.037,2.556C11.089,2.547 10.142,2.54 9.194,2.536C8.874,2.534 8.553,2.532 8.232,2.529C5.956,2.507 3.74,2.635 1.481,2.92Z" style="fill:rgb(18,61,93);fill-rule:nonzero;"/>
    <path d="M4.774,7.963C4.966,7.963 4.966,7.963 5.161,7.962C5.43,7.962 5.7,7.963 5.97,7.964C6.382,7.966 6.795,7.964 7.208,7.962C7.47,7.962 7.732,7.962 7.994,7.963C8.232,7.964 8.471,7.964 8.717,7.964C9.308,8.012 9.308,8.012 9.854,8.375C9.911,8.83 9.911,8.83 9.854,9.284C9.406,9.732 9.154,9.693 8.542,9.699C8.414,9.698 8.286,9.697 8.153,9.696C8.022,9.697 7.89,9.697 7.754,9.697C7.475,9.698 7.196,9.697 6.917,9.695C6.489,9.694 6.061,9.695 5.633,9.698C5.362,9.698 5.091,9.697 4.821,9.696C4.692,9.697 4.564,9.698 4.432,9.699C3.526,9.69 3.526,9.69 3.12,9.284C3.075,8.83 3.075,8.83 3.12,8.375C3.648,7.848 4.037,7.964 4.774,7.963Z" style="fill:rgb(18,61,93);fill-rule:nonzero;"/>
    <path d="M5.103,13.8C5.247,13.799 5.392,13.798 5.54,13.798C5.846,13.797 6.152,13.796 6.458,13.796C6.927,13.796 7.396,13.793 7.865,13.789C8.161,13.789 8.458,13.788 8.754,13.788C8.895,13.787 9.036,13.786 9.181,13.784C10.175,13.788 10.175,13.788 10.581,14.194C10.615,14.66 10.615,14.66 10.581,15.103C10.209,15.475 9.433,15.315 8.921,15.315C8.698,15.316 8.698,15.316 8.471,15.317C8.157,15.318 7.842,15.319 7.528,15.319C7.046,15.319 6.564,15.322 6.082,15.326C5.777,15.326 5.472,15.326 5.167,15.327C5.022,15.328 4.877,15.329 4.728,15.331C3.706,15.326 3.706,15.326 3.301,14.921C3.457,13.64 3.948,13.801 5.103,13.8Z" style="fill:rgb(18,61,93);fill-rule:nonzero;"/>
    <path d="M4.842,4.708C5.046,4.707 5.046,4.707 5.255,4.706C5.544,4.705 5.832,4.705 6.121,4.705C6.564,4.704 7.006,4.701 7.449,4.697C7.729,4.697 8.009,4.697 8.289,4.696C8.488,4.694 8.488,4.694 8.691,4.692C9.63,4.697 9.63,4.697 10.036,5.102C9.934,5.93 9.934,5.93 9.672,6.193C9.219,6.216 8.772,6.227 8.319,6.23C8.184,6.231 8.048,6.232 7.908,6.233C7.62,6.235 7.332,6.236 7.044,6.237C6.603,6.238 6.163,6.244 5.722,6.25C5.443,6.251 5.163,6.252 4.884,6.253C4.752,6.255 4.62,6.257 4.484,6.259C3.565,6.255 3.565,6.255 3.123,5.917C3.062,5.828 3.001,5.739 2.938,5.647C3.427,4.636 3.754,4.709 4.842,4.708Z" style="fill:rgb(18,61,93);fill-rule:nonzero;"/>
    <path d="M7.043,11.069C7.255,11.066 7.466,11.064 7.684,11.062C7.987,11.061 7.987,11.061 8.295,11.061C8.573,11.06 8.573,11.06 8.856,11.059C9.307,11.103 9.307,11.103 9.671,11.467C9.57,12.295 9.57,12.295 9.307,12.557C8.874,12.574 8.447,12.579 8.015,12.575C7.821,12.575 7.821,12.575 7.624,12.575C7.21,12.573 6.797,12.571 6.383,12.569C6.104,12.568 5.824,12.567 5.544,12.566C4.857,12.564 4.17,12.561 3.483,12.557C3.423,12.318 3.363,12.077 3.301,11.83C4.574,11.039 5.574,11.07 7.043,11.069Z" style="fill:rgb(18,61,93);fill-rule:nonzero;"/>
</svg>
