<svg width="25" height="24" viewBox="0 0 25 24" fill="none" xmlns="http://www.w3.org/2000/svg">
<mask id="mask0_390_8443" style="mask-type:alpha" maskUnits="userSpaceOnUse" x="0" y="0" width="25" height="24">
<rect x="0.916016" y="0.333496" width="23.3333" height="23.3333" fill="#D9D9D9"/>
</mask>
<g mask="url(#mask0_390_8443)">
<path d="M7.72135 20.75C7.18663 20.75 6.72888 20.5596 6.34809 20.1788C5.9673 19.798 5.77691 19.3403 5.77691 18.8056V6.16667H4.80469V4.22222H9.6658V3.25H15.4991V4.22222H20.3602V6.16667H19.388V18.8056C19.388 19.3403 19.1976 19.798 18.8168 20.1788C18.4361 20.5596 17.9783 20.75 17.4436 20.75H7.72135ZM17.4436 6.16667H7.72135V18.8056H17.4436V6.16667ZM9.6658 16.8611H11.6102V8.11111H9.6658V16.8611ZM13.5547 16.8611H15.4991V8.11111H13.5547V16.8611Z" fill="#A63B0F"/>
</g>
</svg>
