<?xml version="1.0" encoding="UTF-8" standalone="no"?>
<svg
   width="25"
   height="24"
   viewBox="0 0 25 24"
   fill="none"
   version="1.1"
   id="svg272"
   sodipodi:docname="delete.svg"
   inkscape:version="1.2 (dc2aedaf03, 2022-05-15)"
   xmlns:inkscape="http://www.inkscape.org/namespaces/inkscape"
   xmlns:sodipodi="http://sodipodi.sourceforge.net/DTD/sodipodi-0.dtd"
   xmlns="http://www.w3.org/2000/svg"
   xmlns:svg="http://www.w3.org/2000/svg">
  <defs
     id="defs276" />
  <sodipodi:namedview
     id="namedview274"
     pagecolor="#ffffff"
     bordercolor="#000000"
     borderopacity="0.25"
     inkscape:showpageshadow="2"
     inkscape:pageopacity="0.0"
     inkscape:pagecheckerboard="0"
     inkscape:deskcolor="#d1d1d1"
     showgrid="false"
     inkscape:zoom="12.212323"
     inkscape:cx="-0.77790276"
     inkscape:cy="14.821095"
     inkscape:window-width="1280"
     inkscape:window-height="729"
     inkscape:window-x="-8"
     inkscape:window-y="1072"
     inkscape:window-maximized="1"
     inkscape:current-layer="svg272" />
  <mask
     id="mask0_390_8443"
     style="mask-type:alpha"
     maskUnits="userSpaceOnUse"
     x="0"
     y="0"
     width="25"
     height="24">
    <rect
       x="0.916016"
       y="0.333496"
       width="23.3333"
       height="23.3333"
       fill="#D9D9D9"
       id="rect265" />
  </mask>
  <g
     mask="url(#mask0_390_8443)"
     id="g270">
    <path
       d="M7.72135 20.75C7.18663 20.75 6.72888 20.5596 6.34809 20.1788C5.9673 19.798 5.77691 19.3403 5.77691 18.8056V6.16667H4.80469V4.22222H9.6658V3.25H15.4991V4.22222H20.3602V6.16667H19.388V18.8056C19.388 19.3403 19.1976 19.798 18.8168 20.1788C18.4361 20.5596 17.9783 20.75 17.4436 20.75H7.72135ZM17.4436 6.16667H7.72135V18.8056H17.4436V6.16667ZM9.6658 16.8611H11.6102V8.11111H9.6658V16.8611ZM13.5547 16.8611H15.4991V8.11111H13.5547V16.8611Z"
       fill="#A63B0F"
       id="path268"
       style="fill:#ffffff;fill-opacity:1" />
  </g>
</svg>
