<svg width="42" height="42" viewBox="0 0 42 42" fill="none" xmlns="http://www.w3.org/2000/svg">
<mask id="mask0_390_6956" style="mask-type:alpha" maskUnits="userSpaceOnUse" x="0" y="0" width="42" height="42">
<rect width="42" height="42" fill="#D9D9D9"/>
</mask>
<g mask="url(#mask0_390_6956)">
<path d="M14 22.75H28V19.25H14V22.75ZM14 28H28V24.5H14V28ZM14 33.25H22.75V29.75H14V33.25ZM10.5 38.5C9.5375 38.5 8.71354 38.1573 8.02813 37.4719C7.34271 36.7865 7 35.9625 7 35V7C7 6.0375 7.34271 5.21354 8.02813 4.52813C8.71354 3.84271 9.5375 3.5 10.5 3.5H24.5L35 14V35C35 35.9625 34.6573 36.7865 33.9719 37.4719C33.2865 38.1573 32.4625 38.5 31.5 38.5H10.5ZM22.75 15.75V7H10.5V35H31.5V15.75H22.75Z" fill="#A63B0F"/>
</g>
</svg>
