<?xml version="1.0" encoding="UTF-8" standalone="no"?>
<!DOCTYPE svg PUBLIC "-//W3C//DTD SVG 1.1//EN" "http://www.w3.org/Graphics/SVG/1.1/DTD/svg11.dtd">
<svg width="100%" height="100%" viewBox="0 0 15 21" version="1.1" xmlns="http://www.w3.org/2000/svg" xmlns:xlink="http://www.w3.org/1999/xlink" xml:space="preserve" xmlns:serif="http://www.serif.com/" style="fill-rule:evenodd;clip-rule:evenodd;stroke-linejoin:round;stroke-miterlimit:2;">
    <path id="path4492" d="M12.012,0.934C12.961,1.341 13.851,2.026 14.412,2.902C14.823,4.003 14.75,5.369 14.321,6.458C13.776,7.396 12.753,7.882 11.83,8.391C11.95,8.451 12.07,8.511 12.194,8.573C12.104,9.358 11.877,9.704 11.307,10.244C11.18,10.366 11.052,10.489 10.921,10.615C10.556,10.937 10.556,10.937 10.01,11.301C10.13,11.421 10.25,11.541 10.374,11.665C10.297,12.991 9.894,13.838 8.941,14.745C6.514,16.781 6.514,16.781 5.028,16.74C4.829,16.716 4.63,16.691 4.425,16.666C3.838,16.594 3.838,16.594 3.276,16.757C2.555,17.423 2.096,18.315 1.634,19.169C1.423,19.543 1.18,19.88 0.91,20.213C0.61,20.153 0.309,20.093 0,20.031C0.028,18.416 0.7,17.234 1.456,15.848C1.313,15.66 1.171,15.473 1.024,15.279C0.269,14.287 0.111,13.263 0.114,12.04C0.114,11.911 0.113,11.783 0.113,11.65C0.133,10.657 0.295,10.069 0.91,9.3C1.432,9.404 1.613,9.457 2.002,9.846C1.987,9.731 1.972,9.617 1.957,9.498C1.924,8.385 2.193,7.723 2.923,6.914C3.354,6.468 3.795,6.035 4.245,5.608C4.591,5.28 4.931,4.945 5.269,4.609C9.386,0.573 9.386,0.573 12.012,0.934ZM8.372,2.935C8.266,3.009 8.161,3.083 8.052,3.16C6.661,4.158 5.753,5.03 5.454,6.764C5.364,7.489 5.309,8.206 5.278,8.936C5.008,8.846 5.008,8.846 4.732,8.755C4.672,8.094 4.612,7.434 4.55,6.754C4.344,6.93 4.137,7.107 3.924,7.288C3.808,7.387 3.692,7.487 3.572,7.589C3.409,7.73 3.247,7.874 3.094,8.027C3.081,8.487 3.077,8.942 3.083,9.402C3.083,9.532 3.084,9.661 3.085,9.794C3.087,10.115 3.091,10.435 3.094,10.755C2.914,10.845 2.914,10.845 2.73,10.937L2.73,11.301C2.136,10.973 1.84,10.785 1.456,10.21L1.092,10.21C0.955,12.47 0.955,12.47 1.638,14.575C2.011,14.708 2.011,14.708 2.366,14.756C3.461,13.325 4.537,11.893 5.517,10.38C6.141,9.422 6.77,8.591 7.644,7.845L8.008,7.845C7.714,8.687 7.268,9.394 6.791,10.141C6.71,10.27 6.629,10.399 6.545,10.531C6.183,11.104 5.817,11.675 5.446,12.242C4.318,13.835 4.318,13.835 3.822,15.666C5.125,15.75 6.122,15.563 7.28,14.938C7.598,14.658 7.598,14.658 7.826,14.393C7.621,14.146 7.621,14.146 7.087,14.199C6.91,14.203 6.734,14.207 6.552,14.211C6.612,14.091 6.672,13.971 6.734,13.847C7.084,13.785 7.084,13.785 7.519,13.756C8.13,13.716 8.579,13.638 9.1,13.301C9.248,12.837 9.248,12.837 9.282,12.392C8.982,12.332 8.681,12.272 8.372,12.21C8.785,11.403 9.34,10.905 10.044,10.357C10.407,10.073 10.755,9.786 11.102,9.482L11.102,9.118C10.621,8.998 10.141,8.878 9.646,8.755C9.706,8.514 9.766,8.274 9.828,8.027C10.311,7.778 10.768,7.573 11.273,7.379C11.54,7.274 11.807,7.168 12.074,7.06C12.193,7.014 12.312,6.968 12.434,6.921C12.804,6.75 12.804,6.75 13.104,6.208C12.744,6.148 12.383,6.088 12.012,6.026L12.012,5.663C12.215,5.61 12.417,5.558 12.626,5.504C13.287,5.355 13.287,5.355 13.65,4.935C13.771,4.266 13.771,3.841 13.384,3.268C12.584,2.299 12.584,2.299 11.482,1.769C10.182,1.713 9.394,2.168 8.372,2.935Z" style="fill:rgb(18,61,93);fill-rule:nonzero;"/>
</svg>
