<svg width="24" height="24" viewBox="0 0 24 24" fill="none" xmlns="http://www.w3.org/2000/svg">
<mask id="mask0_390_8434" style="mask-type:alpha" maskUnits="userSpaceOnUse" x="0" y="0" width="24" height="24">
<rect width="24" height="24" fill="#D9D9D9"/>
</mask>
<g mask="url(#mask0_390_8434)">
<path d="M12.5 11.9505C12.9833 11.4172 13.3542 10.8088 13.6125 10.1255C13.8708 9.44215 14 8.73382 14 8.00049C14 7.26715 13.8708 6.55882 13.6125 5.87549C13.3542 5.19215 12.9833 4.58382 12.5 4.05049C13.5 4.18382 14.3333 4.62549 15 5.37549C15.6667 6.12549 16 7.00049 16 8.00049C16 9.00049 15.6667 9.87549 15 10.6255C14.3333 11.3755 13.5 11.8172 12.5 11.9505ZM18 20.0005V17.0005C18 16.4005 17.8667 15.8297 17.6 15.288C17.3333 14.7463 16.9833 14.2672 16.55 13.8505C17.4 14.1505 18.1875 14.538 18.9125 15.013C19.6375 15.488 20 16.1505 20 17.0005V20.0005H18ZM20 13.0005V11.0005H18V9.00049H20V7.00049H22V9.00049H24V11.0005H22V13.0005H20ZM8 12.0005C6.9 12.0005 5.95833 11.6088 5.175 10.8255C4.39167 10.0422 4 9.10049 4 8.00049C4 6.90049 4.39167 5.95882 5.175 5.17549C5.95833 4.39215 6.9 4.00049 8 4.00049C9.1 4.00049 10.0417 4.39215 10.825 5.17549C11.6083 5.95882 12 6.90049 12 8.00049C12 9.10049 11.6083 10.0422 10.825 10.8255C10.0417 11.6088 9.1 12.0005 8 12.0005ZM0 20.0005V17.2005C0 16.6338 0.145833 16.113 0.4375 15.638C0.729167 15.163 1.11667 14.8005 1.6 14.5505C2.63333 14.0338 3.68333 13.6463 4.75 13.388C5.81667 13.1297 6.9 13.0005 8 13.0005C9.1 13.0005 10.1833 13.1297 11.25 13.388C12.3167 13.6463 13.3667 14.0338 14.4 14.5505C14.8833 14.8005 15.2708 15.163 15.5625 15.638C15.8542 16.113 16 16.6338 16 17.2005V20.0005H0ZM8 10.0005C8.55 10.0005 9.02083 9.80465 9.4125 9.41299C9.80417 9.02132 10 8.55049 10 8.00049C10 7.45049 9.80417 6.97965 9.4125 6.58799C9.02083 6.19632 8.55 6.00049 8 6.00049C7.45 6.00049 6.97917 6.19632 6.5875 6.58799C6.19583 6.97965 6 7.45049 6 8.00049C6 8.55049 6.19583 9.02132 6.5875 9.41299C6.97917 9.80465 7.45 10.0005 8 10.0005ZM2 18.0005H14V17.2005C14 17.0172 13.9542 16.8505 13.8625 16.7005C13.7708 16.5505 13.65 16.4338 13.5 16.3505C12.6 15.9005 11.6917 15.563 10.775 15.338C9.85833 15.113 8.93333 15.0005 8 15.0005C7.06667 15.0005 6.14167 15.113 5.225 15.338C4.30833 15.563 3.4 15.9005 2.5 16.3505C2.35 16.4338 2.22917 16.5505 2.1375 16.7005C2.04583 16.8505 2 17.0172 2 17.2005V18.0005Z" fill="#161C24"/>
</g>
</svg>
