<?xml version="1.0" encoding="UTF-8" standalone="no"?>
<!DOCTYPE svg PUBLIC "-//W3C//DTD SVG 1.1//EN" "http://www.w3.org/Graphics/SVG/1.1/DTD/svg11.dtd">
<svg width="100%" height="100%" viewBox="0 0 24 24" version="1.1" xmlns="http://www.w3.org/2000/svg" xmlns:xlink="http://www.w3.org/1999/xlink" xml:space="preserve" xmlns:serif="http://www.serif.com/" style="fill-rule:evenodd;clip-rule:evenodd;stroke-linejoin:round;stroke-miterlimit:2;">
    <g>
        <path d="M12.5,11.951C12.983,11.417 13.354,10.809 13.613,10.126C13.871,9.442 14,8.734 14,8C14,7.267 13.871,6.559 13.613,5.875C13.354,5.192 12.983,4.584 12.5,4.05C13.5,4.184 14.333,4.625 15,5.375C15.667,6.125 16,7 16,8C16,9 15.667,9.875 15,10.626C14.333,11.376 13.5,11.817 12.5,11.951ZM18,20.001L18,17.001C18,16.401 17.867,15.83 17.6,15.288C17.333,14.746 16.983,14.267 16.55,13.851C17.4,14.15 18.188,14.538 18.913,15.013C19.638,15.488 20,16.151 20,17.001L20,20.001L18,20.001ZM20,13.001L20,11.001L18,11.001L18,9L20,9L20,7L22,7L22,9L24,9L24,11.001L22,11.001L22,13.001L20,13.001ZM8,12.001C6.9,12.001 5.958,11.609 5.175,10.826C4.392,10.042 4,9.1 4,8C4,6.9 4.392,5.959 5.175,5.175C5.958,4.392 6.9,4 8,4C9.1,4 10.042,4.392 10.825,5.175C11.608,5.959 12,6.9 12,8C12,9.1 11.608,10.042 10.825,10.826C10.042,11.609 9.1,12.001 8,12.001ZM0,20.001L0,17.201C0,16.634 0.146,16.113 0.438,15.638C0.729,15.163 1.117,14.801 1.6,14.551C2.633,14.034 3.683,13.646 4.75,13.388C5.817,13.13 6.9,13.001 8,13.001C9.1,13.001 10.183,13.13 11.25,13.388C12.317,13.646 13.367,14.034 14.4,14.551C14.883,14.801 15.271,15.163 15.563,15.638C15.854,16.113 16,16.634 16,17.201L16,20.001L0,20.001ZM8,10.001C8.55,10.001 9.021,9.805 9.413,9.413C9.804,9.021 10,8.55 10,8C10,7.45 9.804,6.98 9.413,6.588C9.021,6.196 8.55,6 8,6C7.45,6 6.979,6.196 6.588,6.588C6.196,6.98 6,7.45 6,8C6,8.55 6.196,9.021 6.588,9.413C6.979,9.805 7.45,10.001 8,10.001ZM2,18.001L14,18.001L14,17.201C14,17.017 13.954,16.851 13.863,16.701C13.771,16.551 13.65,16.434 13.5,16.351C12.6,15.9 11.692,15.563 10.775,15.338C9.858,15.113 8.933,15.001 8,15.001C7.067,15.001 6.142,15.113 5.225,15.338C4.308,15.563 3.4,15.9 2.5,16.351C2.35,16.434 2.229,16.551 2.138,16.701C2.046,16.851 2,17.017 2,17.201L2,18.001Z" style="fill:white;fill-rule:nonzero;"/>
    </g>
</svg>
