<svg width="29" height="28" viewBox="0 0 29 28" fill="none" xmlns="http://www.w3.org/2000/svg">
<mask id="mask0_390_7140" style="mask-type:alpha" maskUnits="userSpaceOnUse" x="0" y="0" width="29" height="28">
<rect x="0.5" width="28" height="28" fill="#D9D9D9"/>
</mask>
<g mask="url(#mask0_390_7140)">
<path d="M14.4423 21.0003C14.8507 21.0003 15.1958 20.8593 15.4777 20.5774C15.7597 20.2954 15.9007 19.9503 15.9007 19.542C15.9007 19.1336 15.7597 18.7885 15.4777 18.5065C15.1958 18.2246 14.8507 18.0836 14.4423 18.0836C14.034 18.0836 13.6888 18.2246 13.4069 18.5065C13.125 18.7885 12.984 19.1336 12.984 19.542C12.984 19.9503 13.125 20.2954 13.4069 20.5774C13.6888 20.8593 14.034 21.0003 14.4423 21.0003ZM13.3923 16.5086H15.5507C15.5507 15.867 15.6236 15.3614 15.7694 14.992C15.9152 14.6225 16.3284 14.117 17.009 13.4753C17.5145 12.9697 17.9132 12.4885 18.2048 12.0315C18.4965 11.5746 18.6423 11.0253 18.6423 10.3836C18.6423 9.29473 18.2437 8.45862 17.4465 7.87528C16.6493 7.29195 15.7062 7.00028 14.6173 7.00028C13.509 7.00028 12.6097 7.29195 11.9194 7.87528C11.2291 8.45862 10.7479 9.15862 10.4757 9.97528L12.4007 10.7336C12.4979 10.3836 12.7166 10.0045 13.0569 9.59612C13.3972 9.18778 13.9173 8.98362 14.6173 8.98362C15.2395 8.98362 15.7062 9.15376 16.0173 9.49403C16.3284 9.83431 16.484 10.2086 16.484 10.617C16.484 11.0058 16.3673 11.3704 16.134 11.7107C15.9007 12.051 15.609 12.367 15.259 12.6586C14.4034 13.417 13.8784 13.9906 13.684 14.3795C13.4895 14.7683 13.3923 15.4781 13.3923 16.5086ZM14.5007 25.667C12.8868 25.667 11.3701 25.3607 9.95065 24.7482C8.53121 24.1357 7.29648 23.3045 6.24648 22.2545C5.19648 21.2045 4.36523 19.9697 3.75273 18.5503C3.14023 17.1308 2.83398 15.6142 2.83398 14.0003C2.83398 12.3864 3.14023 10.8697 3.75273 9.45028C4.36523 8.03084 5.19648 6.79612 6.24648 5.74612C7.29648 4.69612 8.53121 3.86487 9.95065 3.25237C11.3701 2.63987 12.8868 2.33362 14.5007 2.33362C16.1145 2.33362 17.6312 2.63987 19.0507 3.25237C20.4701 3.86487 21.7048 4.69612 22.7548 5.74612C23.8048 6.79612 24.6361 8.03084 25.2486 9.45028C25.8611 10.8697 26.1673 12.3864 26.1673 14.0003C26.1673 15.6142 25.8611 17.1308 25.2486 18.5503C24.6361 19.9697 23.8048 21.2045 22.7548 22.2545C21.7048 23.3045 20.4701 24.1357 19.0507 24.7482C17.6312 25.3607 16.1145 25.667 14.5007 25.667ZM14.5007 23.3336C17.1062 23.3336 19.3132 22.4295 21.1215 20.6211C22.9298 18.8128 23.834 16.6058 23.834 14.0003C23.834 11.3947 22.9298 9.18779 21.1215 7.37945C19.3132 5.57112 17.1062 4.66695 14.5007 4.66695C11.8951 4.66695 9.68815 5.57112 7.87982 7.37945C6.07148 9.18779 5.16732 11.3947 5.16732 14.0003C5.16732 16.6058 6.07148 18.8128 7.87982 20.6211C9.68815 22.4295 11.8951 23.3336 14.5007 23.3336Z" fill="#0C1E20"/>
</g>
</svg>
