<svg width="15" height="19" viewBox="0 0 15 19" fill="none" xmlns="http://www.w3.org/2000/svg">
<path d="M12.354 0.868876C13.3689 1.61336 14.1179 2.76208 14.3342 4.00897C14.3735 4.49499 14.3854 4.97152 14.3816 5.45909C14.3807 5.62849 14.3798 5.7979 14.3788 5.97243C14.3399 7.11752 14.1904 7.88701 13.3451 8.7165C13.2254 8.81567 13.1058 8.91484 12.9825 9.01702C12.8255 9.17422 12.8255 9.17422 12.6654 9.33459C11.7835 10.1814 10.8381 10.6225 9.61548 10.688C9.46533 10.6767 9.31518 10.6655 9.16048 10.6539C9.12295 10.7964 9.08541 10.939 9.04673 11.0858C8.61812 12.2151 8.05368 13.4774 6.97648 14.1095C6.77378 14.0945 6.57108 14.0795 6.36223 14.0641C5.65106 14.1131 5.56957 14.1422 5.11098 14.6324C4.59392 15.3044 4.37651 15.9953 4.18108 16.8128C4.06448 17.2014 4.06448 17.2014 3.70048 17.5651C3.33222 17.6213 3.33222 17.6213 2.90423 17.6447C2.20658 17.705 1.87369 17.8336 1.33448 18.2926C1.09424 18.2926 0.854003 18.2926 0.606483 18.2926C0.514061 17.8913 0.423406 17.4896 0.333483 17.0877C0.282807 16.8641 0.232131 16.6404 0.17992 16.41C-0.0899781 14.9105 -0.0899781 14.9105 0.413819 14.0555C0.570326 13.8443 0.729479 13.635 0.890858 13.4275C1.05916 13.2016 1.22741 12.9757 1.39562 12.7497C1.47862 12.6402 1.56161 12.5306 1.64712 12.4178C3.55093 10.1189 3.55093 10.1189 4.43986 7.42561C4.37604 7.23055 4.31223 7.03549 4.24648 6.83452C3.778 5.1383 3.7773 4.05984 4.62683 2.46028C6.40205 -0.278711 9.61685 -0.609552 12.354 0.868876Z" fill="#F9F9FA"/>
<path d="M12.354 0.868876C13.3689 1.61336 14.1179 2.76208 14.3342 4.00897C14.3735 4.49499 14.3854 4.97152 14.3816 5.45909C14.3807 5.62849 14.3798 5.7979 14.3788 5.97243C14.3399 7.11752 14.1904 7.88701 13.3451 8.7165C13.2254 8.81567 13.1058 8.91484 12.9825 9.01702C12.8255 9.17422 12.8255 9.17422 12.6654 9.33459C11.7835 10.1814 10.8381 10.6225 9.61548 10.688C9.46533 10.6767 9.31518 10.6655 9.16048 10.6539C9.12295 10.7964 9.08541 10.939 9.04673 11.0858C8.61812 12.2151 8.05368 13.4774 6.97648 14.1095C6.77378 14.0945 6.57108 14.0795 6.36223 14.0641C5.65106 14.1131 5.56957 14.1422 5.11098 14.6324C4.59392 15.3044 4.37651 15.9953 4.18108 16.8128C4.06448 17.2014 4.06448 17.2014 3.70048 17.5651C3.33222 17.6213 3.33222 17.6213 2.90423 17.6447C2.20658 17.705 1.87369 17.8336 1.33448 18.2926C1.09424 18.2926 0.854003 18.2926 0.606483 18.2926C0.514061 17.8913 0.423406 17.4896 0.333483 17.0877C0.282807 16.8641 0.232131 16.6404 0.17992 16.41C-0.0899781 14.9105 -0.0899781 14.9105 0.413819 14.0555C0.570326 13.8443 0.729479 13.635 0.890858 13.4275C1.05916 13.2016 1.22741 12.9757 1.39562 12.7497C1.47862 12.6402 1.56161 12.5306 1.64712 12.4178C3.55093 10.1189 3.55093 10.1189 4.43986 7.42561C4.37604 7.23055 4.31223 7.03549 4.24648 6.83452C3.778 5.1383 3.7773 4.05984 4.62683 2.46028C6.40205 -0.278711 9.61685 -0.609552 12.354 0.868876ZM6.43048 2.28764C6.67072 2.40768 6.91096 2.52772 7.15848 2.65139C7.15848 2.77143 7.15848 2.89147 7.15848 3.01514C6.43776 3.37526 6.43776 3.37526 5.70248 3.74264C5.94272 3.80266 6.18296 3.86268 6.43048 3.92452C6.43048 4.16459 6.43048 4.40467 6.43048 4.65202C6.25406 4.70453 6.07763 4.75705 5.89586 4.81116C5.31907 4.95068 5.31907 4.95068 5.15648 5.37952C5.69702 5.25948 6.23756 5.13944 6.79448 5.01577C6.55182 5.74326 6.15825 5.89565 5.52048 6.28889C5.58054 6.46895 5.6406 6.64901 5.70248 6.83452C6.00278 6.7745 6.30308 6.71448 6.61248 6.65264C6.61248 6.77268 6.61248 6.89272 6.61248 7.01639C6.47359 7.08391 6.33471 7.15144 6.19161 7.221C5.50858 7.6972 5.38767 8.24277 5.15648 9.01702C5.09642 9.19707 5.03636 9.37713 4.97448 9.56264C4.97448 9.7427 4.97448 9.92276 4.97448 10.1083C4.83935 10.1833 4.70421 10.2583 4.56498 10.3356C3.87735 10.7729 3.6894 11.1956 3.33648 11.927C3.33648 12.1071 3.33648 12.2871 3.33648 12.4726C3.4566 12.4726 3.57672 12.4726 3.70048 12.4726C3.64042 12.6527 3.58036 12.8328 3.51848 13.0183C3.37959 13.0295 3.24071 13.0408 3.09761 13.0524C2.44107 13.2507 2.39099 13.5186 2.06248 14.1095C1.86719 14.2747 1.66987 14.4375 1.47098 14.5983C1.07205 14.9724 0.975571 15.12 0.940623 15.6746C0.988279 16.1309 1.055 16.5714 1.15248 17.0195C1.33266 17.0195 1.51284 17.0195 1.69848 17.0195C1.69848 16.8995 1.69848 16.7794 1.69848 16.6558C2.50929 16.5657 2.50929 16.5657 3.33648 16.4739C3.35901 16.3595 3.38153 16.2451 3.40473 16.1272C3.71 14.8612 4.21388 13.9159 5.33848 13.2001C6.06648 13.2001 6.06648 13.2001 6.61248 13.382C7.32272 12.5528 7.76453 11.8064 8.11398 10.7676C8.33722 10.1978 8.33722 10.1978 8.61448 9.74452C9.0643 9.55 9.44421 9.51822 9.93114 9.47597C11.0485 9.26463 11.998 8.43755 12.7244 7.58973C13.3556 6.5399 13.3473 5.28611 13.1645 4.10639C12.7268 2.9031 11.978 2.02482 10.8731 1.37969C9.21617 0.687301 7.885 1.4485 6.43048 2.28764Z" fill="#0F696D"/>
<path d="M10.7968 3.19705C11.2518 3.46986 11.2518 3.46986 11.5248 3.92455C11.6772 4.7737 11.6448 5.36943 11.1835 6.10705C10.6817 6.57898 10.5266 6.6456 9.82989 6.69815C9.11757 6.64989 8.80715 6.53751 8.24876 6.10705C7.85257 5.51317 7.80338 5.34017 7.88476 4.65205C8.11084 4.25136 8.11084 4.25136 8.40801 3.87908C8.50514 3.75436 8.60227 3.62963 8.70234 3.50112C9.30374 2.83475 9.99037 2.99798 10.7968 3.19705Z" fill="#0F696D"/>
<path d="M7.70497 9.01697C7.59765 9.71892 7.26648 10.115 6.81772 10.6538C6.37306 11.1917 5.93488 11.7288 5.52097 12.2907C5.28073 12.2307 5.04049 12.1707 4.79297 12.1088C5.06036 11.2997 5.50488 10.698 6.04422 10.0514C6.12328 9.95139 6.20235 9.8514 6.2838 9.74838C6.88934 9.01697 6.88934 9.01697 7.70497 9.01697Z" fill="#0F696D"/>
<path d="M9.88794 4.10632C10.1882 4.16634 10.4885 4.22636 10.7979 4.2882C10.7524 4.81109 10.7524 4.81109 10.6159 5.37945C10.2406 5.62953 10.2406 5.62953 9.88794 5.7432C9.68319 4.51554 9.68319 4.51554 9.88794 4.10632Z" fill="#F9F9FA"/>
</svg>
