<?xml version="1.0" encoding="UTF-8" standalone="no"?>
<!DOCTYPE svg PUBLIC "-//W3C//DTD SVG 1.1//EN" "http://www.w3.org/Graphics/SVG/1.1/DTD/svg11.dtd">
<svg width="100%" height="100%" viewBox="0 0 15 19" version="1.1" xmlns="http://www.w3.org/2000/svg" xmlns:xlink="http://www.w3.org/1999/xlink" xml:space="preserve" xmlns:serif="http://www.serif.com/" style="fill-rule:evenodd;clip-rule:evenodd;stroke-linejoin:round;stroke-miterlimit:2;">
    <path d="M12.354,0.869C13.369,1.613 14.118,2.762 14.334,4.009C14.374,4.495 14.385,4.972 14.382,5.459C14.381,5.628 14.38,5.798 14.379,5.972C14.34,7.118 14.19,7.887 13.345,8.717C13.225,8.816 13.106,8.915 12.983,9.017C12.826,9.174 12.826,9.174 12.665,9.335C11.784,10.181 10.838,10.623 9.615,10.688C9.465,10.677 9.315,10.666 9.16,10.654C9.123,10.796 9.085,10.939 9.047,11.086C8.618,12.215 8.054,13.477 6.976,14.11C6.774,14.095 6.571,14.08 6.362,14.064C5.651,14.113 5.57,14.142 5.111,14.632C4.594,15.304 4.377,15.995 4.181,16.813C4.064,17.201 4.064,17.201 3.7,17.565C3.332,17.621 3.332,17.621 2.904,17.645C2.207,17.705 1.874,17.834 1.334,18.293L0.606,18.293C0.514,17.891 0.423,17.49 0.333,17.088C0.283,16.864 0.232,16.64 0.18,16.41C-0.09,14.911 -0.09,14.911 0.414,14.056C0.57,13.844 0.729,13.635 0.891,13.428C1.059,13.202 1.227,12.976 1.396,12.75C1.479,12.64 1.562,12.531 1.647,12.418C3.551,10.119 3.551,10.119 4.44,7.426C4.376,7.231 4.312,7.035 4.246,6.835C3.778,5.138 3.777,4.06 4.627,2.46C6.402,-0.279 9.617,-0.61 12.354,0.869Z" style="fill:rgb(249,249,250);fill-rule:nonzero;"/>
    <path d="M12.354,0.869C13.369,1.613 14.118,2.762 14.334,4.009C14.374,4.495 14.385,4.972 14.382,5.459C14.381,5.628 14.38,5.798 14.379,5.972C14.34,7.118 14.19,7.887 13.345,8.717C13.225,8.816 13.106,8.915 12.983,9.017C12.826,9.174 12.826,9.174 12.665,9.335C11.784,10.181 10.838,10.623 9.615,10.688C9.465,10.677 9.315,10.666 9.16,10.654C9.123,10.796 9.085,10.939 9.047,11.086C8.618,12.215 8.054,13.477 6.976,14.11C6.774,14.095 6.571,14.08 6.362,14.064C5.651,14.113 5.57,14.142 5.111,14.632C4.594,15.304 4.377,15.995 4.181,16.813C4.064,17.201 4.064,17.201 3.7,17.565C3.332,17.621 3.332,17.621 2.904,17.645C2.207,17.705 1.874,17.834 1.334,18.293L0.606,18.293C0.514,17.891 0.423,17.49 0.333,17.088C0.283,16.864 0.232,16.64 0.18,16.41C-0.09,14.911 -0.09,14.911 0.414,14.056C0.57,13.844 0.729,13.635 0.891,13.428C1.059,13.202 1.227,12.976 1.396,12.75C1.479,12.64 1.562,12.531 1.647,12.418C3.551,10.119 3.551,10.119 4.44,7.426C4.376,7.231 4.312,7.035 4.246,6.835C3.778,5.138 3.777,4.06 4.627,2.46C6.402,-0.279 9.617,-0.61 12.354,0.869ZM6.43,2.288C6.671,2.408 6.911,2.528 7.158,2.651L7.158,3.015C6.438,3.375 6.438,3.375 5.702,3.743C5.943,3.803 6.183,3.863 6.43,3.925L6.43,4.652C6.254,4.705 6.078,4.757 5.896,4.811C5.319,4.951 5.319,4.951 5.156,5.38C5.697,5.259 6.238,5.139 6.794,5.016C6.552,5.743 6.158,5.896 5.52,6.289C5.581,6.469 5.641,6.649 5.702,6.835C6.003,6.775 6.303,6.714 6.612,6.653L6.612,7.016C6.474,7.084 6.335,7.151 6.192,7.221C5.509,7.697 5.388,8.243 5.156,9.017C5.096,9.197 5.036,9.377 4.974,9.563L4.974,10.108C4.839,10.183 4.704,10.258 4.565,10.336C3.877,10.773 3.689,11.196 3.336,11.927L3.336,12.473L3.7,12.473C3.64,12.653 3.58,12.833 3.518,13.018C3.38,13.03 3.241,13.041 3.098,13.052C2.441,13.251 2.391,13.519 2.062,14.11C1.867,14.275 1.67,14.438 1.471,14.598C1.072,14.972 0.976,15.12 0.941,15.675C0.988,16.131 1.055,16.571 1.152,17.02L1.698,17.02L1.698,16.656C2.509,16.566 2.509,16.566 3.336,16.474C3.359,16.36 3.382,16.245 3.405,16.127C3.71,14.861 4.214,13.916 5.338,13.2C6.066,13.2 6.066,13.2 6.612,13.382C7.323,12.553 7.765,11.806 8.114,10.768C8.337,10.198 8.337,10.198 8.614,9.745C9.064,9.55 9.444,9.518 9.931,9.476C11.049,9.265 11.998,8.438 12.724,7.59C13.356,6.54 13.347,5.286 13.165,4.106C12.727,2.903 11.978,2.025 10.873,1.38C9.216,0.687 7.885,1.448 6.43,2.288Z" style="fill:rgb(18,61,93);fill-rule:nonzero;"/>
    <path d="M10.797,3.197C11.252,3.47 11.252,3.47 11.525,3.925C11.677,4.774 11.645,5.369 11.184,6.107C10.682,6.579 10.527,6.646 9.83,6.698C9.118,6.65 8.807,6.538 8.249,6.107C7.853,5.513 7.803,5.34 7.885,4.652C8.111,4.251 8.111,4.251 8.408,3.879C8.505,3.754 8.602,3.63 8.702,3.501C9.304,2.835 9.99,2.998 10.797,3.197Z" style="fill:rgb(18,61,93);fill-rule:nonzero;"/>
    <path d="M7.705,9.017C7.598,9.719 7.266,10.115 6.818,10.654C6.373,11.192 5.935,11.729 5.521,12.291C5.281,12.231 5.04,12.171 4.793,12.109C5.06,11.3 5.505,10.698 6.044,10.051C6.123,9.951 6.202,9.851 6.284,9.748C6.889,9.017 6.889,9.017 7.705,9.017Z" style="fill:rgb(18,61,93);fill-rule:nonzero;"/>
    <path d="M9.888,4.106C10.188,4.166 10.489,4.226 10.798,4.288C10.752,4.811 10.752,4.811 10.616,5.379C10.241,5.63 10.241,5.63 9.888,5.743C9.683,4.516 9.683,4.516 9.888,4.106Z" style="fill:rgb(249,249,250);fill-rule:nonzero;"/>
</svg>
