<svg width="37" height="36" viewBox="0 0 37 36" fill="none" xmlns="http://www.w3.org/2000/svg">
<mask id="mask0_1016_1177" style="mask-type:alpha" maskUnits="userSpaceOnUse" x="0" y="0" width="37" height="36">
<rect x="0.333984" width="36" height="36" fill="#D9D9D9"/>
</mask>
<g mask="url(#mask0_1016_1177)">
<path d="M18.334 33.75C16.534 32.05 14.4715 30.75 12.1465 29.85C9.82148 28.95 7.38398 28.5 4.83398 28.5V12C7.35898 12 9.78398 12.4563 12.109 13.3687C14.434 14.2812 16.509 15.6 18.334 17.325C20.159 15.6 22.234 14.2812 24.559 13.3687C26.884 12.4563 29.309 12 31.834 12V28.5C29.259 28.5 26.8152 28.95 24.5027 29.85C22.1902 30.75 20.134 32.05 18.334 33.75ZM18.334 29.85C19.909 28.675 21.584 27.7375 23.359 27.0375C25.134 26.3375 26.959 25.875 28.834 25.65V15.3C27.009 15.625 25.2152 16.2812 23.4527 17.2687C21.6902 18.2563 19.984 19.575 18.334 21.225C16.684 19.575 14.9777 18.2563 13.2152 17.2687C11.4527 16.2812 9.65898 15.625 7.83398 15.3V25.65C9.70898 25.875 11.534 26.3375 13.309 27.0375C15.084 27.7375 16.759 28.675 18.334 29.85ZM18.334 13.5C16.684 13.5 15.2715 12.9125 14.0965 11.7375C12.9215 10.5625 12.334 9.15 12.334 7.5C12.334 5.85 12.9215 4.4375 14.0965 3.2625C15.2715 2.0875 16.684 1.5 18.334 1.5C19.984 1.5 21.3965 2.0875 22.5715 3.2625C23.7465 4.4375 24.334 5.85 24.334 7.5C24.334 9.15 23.7465 10.5625 22.5715 11.7375C21.3965 12.9125 19.984 13.5 18.334 13.5ZM18.334 10.5C19.159 10.5 19.8652 10.2063 20.4527 9.61875C21.0402 9.03125 21.334 8.325 21.334 7.5C21.334 6.675 21.0402 5.96875 20.4527 5.38125C19.8652 4.79375 19.159 4.5 18.334 4.5C17.509 4.5 16.8027 4.79375 16.2152 5.38125C15.6277 5.96875 15.334 6.675 15.334 7.5C15.334 8.325 15.6277 9.03125 16.2152 9.61875C16.8027 10.2063 17.509 10.5 18.334 10.5Z" fill="#E2F5EF"/>
</g>
</svg>
