<?xml version="1.0" encoding="UTF-8" standalone="no"?>
<!DOCTYPE svg PUBLIC "-//W3C//DTD SVG 1.1//EN" "http://www.w3.org/Graphics/SVG/1.1/DTD/svg11.dtd">
<svg width="100%" height="100%" viewBox="0 0 18 19" version="1.1" xmlns="http://www.w3.org/2000/svg" xmlns:xlink="http://www.w3.org/1999/xlink" xml:space="preserve" xmlns:serif="http://www.serif.com/" style="fill-rule:evenodd;clip-rule:evenodd;stroke-linejoin:round;stroke-miterlimit:2;">
    <path id="path1242" d="M10.19,2.185C11.642,3.108 12.316,4.112 12.806,5.742C12.982,7.499 12.593,8.761 11.941,10.38C12.117,10.493 12.293,10.605 12.475,10.721C14.23,11.856 15.983,13.022 17.219,14.745C17.291,15.492 17.157,15.872 16.683,16.451C15.403,17.767 15.403,17.767 14.671,18.019C13.734,17.942 13.155,17.188 12.566,16.52C11.54,15.26 10.485,13.836 9.757,12.381C9.015,12.618 9.015,12.618 8.301,12.927C6.438,13.092 4.285,13.24 2.659,12.199C2.442,12.06 2.442,12.06 2.221,11.918C1.188,11.185 0.27,10.317 0.027,9.025C-0.004,8.541 -0.006,8.069 0.009,7.584C0.012,7.415 0.014,7.246 0.017,7.072C0.057,5.873 0.214,4.875 0.839,3.833C0.937,3.638 1.034,3.443 1.135,3.242C3.587,0.404 7.18,0.458 10.19,2.185Z" style="fill:rgb(18,61,93);fill-rule:nonzero;"/>
    <path id="path1244" d="M9.029,3.469C9.152,3.521 9.275,3.573 9.402,3.627C10.111,4.038 10.404,4.716 10.667,5.47C10.861,6.923 10.838,8.271 9.939,9.471C8.422,11.388 8.422,11.388 7.27,11.533C5.706,11.553 4.551,11.248 3.228,10.415C2.278,9.437 2.06,8.771 2.011,7.414C2.051,6.171 2.206,5.165 3.023,4.197C4.868,2.764 6.899,2.481 9.029,3.469Z" style="fill:rgb(249,249,250);fill-rule:nonzero;"/>
    <path id="path1246" d="M13.28,13.151C13.801,13.302 14.157,13.506 14.603,13.813C14.74,13.907 14.878,14 15.019,14.096C15.906,14.763 15.906,14.763 16.047,15.359C15.945,15.837 15.945,15.837 15.456,16.36C14.853,16.746 14.853,16.746 14.402,16.739C13.775,16.5 13.619,16.183 13.283,15.61C13.18,15.436 13.076,15.262 12.969,15.084C12.87,14.912 12.771,14.741 12.669,14.564C12.487,14.26 12.306,13.957 12.123,13.654C12.726,13.097 12.726,13.097 13.28,13.151Z" style="fill:rgb(249,249,250);fill-rule:nonzero;"/>
</svg>
