<?xml version="1.0" encoding="UTF-8" standalone="no"?>
<svg
   width="37"
   height="36"
   viewBox="0 0 37 36"
   fill="none"
   version="1.1"
   id="svg9"
   sodipodi:docname="pencil_white.svg"
   inkscape:version="1.2 (dc2aedaf03, 2022-05-15)"
   xmlns:inkscape="http://www.inkscape.org/namespaces/inkscape"
   xmlns:sodipodi="http://sodipodi.sourceforge.net/DTD/sodipodi-0.dtd"
   xmlns="http://www.w3.org/2000/svg"
   xmlns:svg="http://www.w3.org/2000/svg">
  <defs
     id="defs13" />
  <sodipodi:namedview
     id="namedview11"
     pagecolor="#ffffff"
     bordercolor="#000000"
     borderopacity="0.25"
     inkscape:showpageshadow="2"
     inkscape:pageopacity="0.0"
     inkscape:pagecheckerboard="0"
     inkscape:deskcolor="#d1d1d1"
     showgrid="false"
     inkscape:zoom="6.5555556"
     inkscape:cx="18.457627"
     inkscape:cy="18"
     inkscape:window-width="1920"
     inkscape:window-height="1094"
     inkscape:window-x="2869"
     inkscape:window-y="-11"
     inkscape:window-maximized="1"
     inkscape:current-layer="svg9" />
  <mask
     id="mask0_1016_1172"
     style="mask-type:alpha"
     maskUnits="userSpaceOnUse"
     x="0"
     y="0"
     width="37"
     height="36">
    <rect
       x="0.666016"
       width="36"
       height="36"
       fill="#D9D9D9"
       id="rect2" />
  </mask>
  <g
     mask="url(#mask0_1016_1172)"
     id="g7">
    <path
       d="M8.16602 28.5H10.3035L24.966 13.8375L22.8285 11.7L8.16602 26.3625V28.5ZM5.16602 31.5V25.125L24.966 5.3625C25.266 5.0875 25.5973 4.875 25.9598 4.725C26.3223 4.575 26.7035 4.5 27.1035 4.5C27.5035 4.5 27.891 4.575 28.266 4.725C28.641 4.875 28.966 5.1 29.241 5.4L31.3035 7.5C31.6035 7.775 31.8223 8.1 31.9598 8.475C32.0973 8.85 32.166 9.225 32.166 9.6C32.166 10 32.0973 10.3812 31.9598 10.7437C31.8223 11.1062 31.6035 11.4375 31.3035 11.7375L11.541 31.5H5.16602ZM23.8785 12.7875L22.8285 11.7L24.966 13.8375L23.8785 12.7875Z"
       fill="#E2F5EF"
       id="path5"
       style="fill:#ffffff;fill-opacity:1" />
  </g>
</svg>
