<?xml version="1.0" encoding="UTF-8" standalone="no"?>
<!DOCTYPE svg PUBLIC "-//W3C//DTD SVG 1.1//EN" "http://www.w3.org/Graphics/SVG/1.1/DTD/svg11.dtd">
<svg width="100%" height="100%" viewBox="0 0 21 22" version="1.1" xmlns="http://www.w3.org/2000/svg" xmlns:xlink="http://www.w3.org/1999/xlink" xml:space="preserve" xmlns:serif="http://www.serif.com/" style="fill-rule:evenodd;clip-rule:evenodd;stroke-linejoin:round;stroke-miterlimit:2;">
    <path d="M9.101,11.409C9.221,11.649 9.341,11.889 9.465,12.137C9.525,11.957 9.585,11.777 9.647,11.591L10.193,11.591C10.253,11.831 10.313,12.071 10.375,12.319C10.555,12.079 10.735,11.838 10.921,11.591C11.496,11.84 11.647,11.953 12.012,12.5L12.012,14.319L7.645,14.319C7.645,12.319 7.645,12.319 7.963,11.739C8.373,11.409 8.373,11.409 9.101,11.409Z" style="fill:rgb(166,59,15);fill-rule:nonzero;"/>
    <path d="M1.456,4.498C1.576,4.738 1.696,4.978 1.82,5.226C1.88,5.045 1.94,4.865 2.002,4.68L2.548,4.68C2.608,4.92 2.668,5.16 2.73,5.407C2.91,5.167 3.09,4.927 3.276,4.68C3.725,4.889 4.013,5.052 4.368,5.407L4.368,7.408L0,7.408C0,5.407 0,5.407 0.319,4.828C0.728,4.498 0.728,4.498 1.456,4.498Z" style="fill:rgb(18,61,93);fill-rule:nonzero;"/>
    <path d="M0.728,18.139C1.028,18.199 1.329,18.259 1.638,18.321C1.698,18.621 1.758,18.921 1.82,19.23L2.184,19.23L2.184,18.321C2.364,18.381 2.544,18.441 2.73,18.502C2.67,18.743 2.61,18.983 2.548,19.23L2.912,19.23C3.032,18.93 3.152,18.63 3.276,18.321C3.617,18.377 3.617,18.377 4.004,18.502C4.368,19.048 4.368,19.048 4.368,21.049L0,21.049C0,19.003 0,19.003 0.728,18.139Z" style="fill:rgb(18,61,93);fill-rule:nonzero;"/>
    <path d="M16.016,4.861L16.926,4.861C17.046,5.161 17.166,5.462 17.29,5.771L17.654,5.771L17.654,4.861L18.018,4.861L18.018,5.771L18.382,5.771C18.502,5.531 18.622,5.291 18.746,5.043C19.268,5.148 19.449,5.2 19.838,5.589C19.874,6.062 19.874,6.062 19.861,6.612C19.858,6.794 19.854,6.977 19.851,7.165C19.847,7.305 19.843,7.445 19.838,7.589C18.449,7.725 17.049,7.86 15.652,7.771C15.37,7.489 15.433,7.219 15.425,6.828C15.43,6.05 15.603,5.532 16.016,4.861Z" style="fill:rgb(18,61,93);fill-rule:nonzero;"/>
    <path d="M16.38,17.774L17.108,17.774C17.229,18.135 17.349,18.495 17.472,18.866L17.836,18.866L17.836,17.956L18.2,17.956L18.2,18.866L18.564,18.866C18.685,18.566 18.805,18.266 18.928,17.956C19.378,18.166 19.665,18.329 20.02,18.684L20.02,20.684L15.652,20.684C15.652,18.542 15.652,18.542 16.38,17.774Z" style="fill:rgb(18,61,93);fill-rule:nonzero;"/>
    <path d="M17.472,1.224C17.904,1.235 17.904,1.235 18.382,1.406C18.744,1.937 18.938,2.291 18.905,2.94C18.701,3.537 18.459,4.104 18.2,4.679C17.691,4.665 17.384,4.592 17.02,4.227C16.363,3.366 16.363,3.366 16.424,2.855C16.654,2.256 17.016,1.679 17.472,1.224Z" style="fill:rgb(18,61,93);fill-rule:nonzero;"/>
    <path d="M9.941,7.862C10.373,7.953 10.373,7.953 10.737,8.317C11.028,8.931 11.101,9.256 11.101,9.954L10.737,9.954C10.711,10.13 10.685,10.307 10.658,10.488C10.555,11.045 10.555,11.045 10.373,11.227C9.964,11.318 9.964,11.318 9.463,11.227C9.063,10.852 8.789,10.449 8.553,9.954C8.532,9.071 9.03,8.036 9.941,7.862Z" style="fill:rgb(166,59,15);fill-rule:nonzero;"/>
    <path d="M2.299,0.951C2.731,1.042 2.731,1.042 3.095,1.406C3.474,2.164 3.474,2.164 3.425,2.656C3.21,3.217 2.974,3.766 2.731,4.316C2.333,4.395 2.333,4.395 1.821,4.316C1.42,3.942 1.146,3.537 0.911,3.043C0.889,2.16 1.387,1.125 2.299,0.951Z" style="fill:rgb(18,61,93);fill-rule:nonzero;"/>
    <path d="M2.4,14.637C2.569,14.652 2.738,14.667 2.912,14.682C3.465,15.81 3.465,15.81 3.435,16.421C3.243,16.958 2.999,17.453 2.73,17.956C2.227,17.942 1.916,17.863 1.544,17.517C1.279,17.186 1.077,16.891 0.91,16.501C1.001,15.921 1.001,15.921 1.274,15.41C1.349,15.267 1.424,15.125 1.502,14.978C1.82,14.682 1.82,14.682 2.4,14.637Z" style="fill:rgb(18,61,93);fill-rule:nonzero;"/>
    <path d="M17.939,14.251C18.383,14.319 18.383,14.319 18.747,14.683C19.099,15.368 19.162,15.767 18.929,16.502C18.755,16.87 18.574,17.234 18.383,17.593C17.984,17.684 17.984,17.684 17.473,17.593C17.053,17.158 16.776,16.703 16.563,16.138C16.693,15.29 17.017,14.386 17.939,14.251Z" style="fill:rgb(18,61,93);fill-rule:nonzero;"/>
    <path d="M15.47,8.681L15.47,9.408C15.19,9.659 15.19,9.659 14.81,9.874C14.677,9.95 14.544,10.026 14.407,10.104C14.277,10.174 14.147,10.245 14.014,10.318C13.727,10.486 13.727,10.486 13.434,10.659C12.86,10.888 12.592,10.869 12.012,10.681C12.066,10.099 12.116,9.842 12.558,9.444C13.592,8.834 14.267,8.547 15.47,8.681Z" style="fill:rgb(18,61,93);fill-rule:nonzero;"/>
    <path d="M11.647,15.047C12.495,15.134 12.89,15.458 13.501,16.036C13.658,16.182 13.814,16.328 13.975,16.478C14.233,16.727 14.488,16.977 14.741,17.229C14.673,17.707 14.673,17.707 14.559,18.139C13.593,18.076 13.132,17.555 12.489,16.9C12.387,16.802 12.285,16.705 12.181,16.605C11.893,16.316 11.893,16.316 11.465,15.774C11.529,15.377 11.529,15.377 11.647,15.047Z" style="fill:rgb(18,61,93);fill-rule:nonzero;"/>
    <path d="M6.696,14.994C6.829,15.012 6.961,15.029 7.097,15.047C7.16,15.43 7.16,15.43 7.097,15.956C6.774,16.374 6.465,16.732 6.096,17.104C6.001,17.204 5.905,17.304 5.807,17.407C5.572,17.653 5.334,17.896 5.095,18.139C4.855,18.079 4.615,18.019 4.367,17.957C4.449,17.032 4.702,16.572 5.323,15.888C5.532,15.65 5.532,15.65 5.746,15.406C6.187,15.047 6.187,15.047 6.696,14.994Z" style="fill:rgb(18,61,93);fill-rule:nonzero;"/>
    <path d="M3.639,8.135C4.633,8.206 5.117,8.536 5.823,9.226C6.391,9.976 6.391,9.976 6.312,10.556C6.271,10.657 6.23,10.759 6.187,10.863C5.407,10.776 4.955,10.278 4.413,9.76C4.32,9.674 4.228,9.588 4.133,9.5C3.907,9.289 3.682,9.076 3.457,8.862C3.517,8.622 3.577,8.382 3.639,8.135Z" style="fill:rgb(18,61,93);fill-rule:nonzero;"/>
    <path d="M10.01,8.681C10.453,8.806 10.453,8.806 10.92,9.044C11.068,9.522 11.068,9.522 11.102,9.954C10.741,10.014 10.381,10.074 10.01,10.136L10.01,8.681Z" style="fill:rgb(166,59,15);fill-rule:nonzero;"/>
    <path d="M2.73,1.77L3.094,1.77C3.458,2.315 3.458,2.315 3.424,2.702C3.376,2.814 3.327,2.927 3.276,3.043C3.096,3.103 2.916,3.163 2.73,3.225L2.73,1.77Z" style="fill:rgb(18,61,93);fill-rule:nonzero;"/>
</svg>
