<svg width="21" height="22" viewBox="0 0 21 22" fill="none" xmlns="http://www.w3.org/2000/svg">
<path d="M9.10053 11.4092C9.22065 11.6493 9.34077 11.8893 9.46453 12.1367C9.52459 11.9566 9.58465 11.7766 9.64653 11.5911C9.82671 11.5911 10.0069 11.5911 10.1925 11.5911C10.2526 11.8311 10.3127 12.0712 10.3745 12.3186C10.5547 12.0785 10.7349 11.8384 10.9205 11.5911C11.4959 11.8402 11.6472 11.9528 12.0125 12.5004C12.0125 13.1006 12.0125 13.7008 12.0125 14.3192C10.5711 14.3192 9.12965 14.3192 7.64453 14.3192C7.64453 12.3186 7.64453 12.3186 7.96303 11.7388C8.37253 11.4092 8.37253 11.4092 9.10053 11.4092Z" fill="#A63B0F"/>
<path d="M1.456 4.49805C1.57612 4.73812 1.69624 4.9782 1.82 5.22555C1.88006 5.04549 1.94012 4.86543 2.002 4.67992C2.18218 4.67992 2.36236 4.67992 2.548 4.67992C2.60806 4.92 2.66812 5.16007 2.73 5.40742C2.91018 5.16735 3.09036 4.92727 3.276 4.67992C3.72518 4.88939 4.01271 5.05237 4.368 5.40742C4.368 6.06763 4.368 6.72783 4.368 7.40805C2.92656 7.40805 1.48512 7.40805 0 7.40805C0 5.40742 0 5.40742 0.3185 4.8277C0.728 4.49805 0.728 4.49805 1.456 4.49805Z" fill="#0F696D"/>
<path d="M0.728 18.1387C1.0283 18.1987 1.3286 18.2587 1.638 18.3205C1.69806 18.6206 1.75812 18.9207 1.82 19.2299C1.94012 19.2299 2.06024 19.2299 2.184 19.2299C2.184 18.9298 2.184 18.6297 2.184 18.3205C2.36418 18.3806 2.54436 18.4406 2.73 18.5024C2.66994 18.7425 2.60988 18.9826 2.548 19.2299C2.66812 19.2299 2.78824 19.2299 2.912 19.2299C3.03212 18.9298 3.15224 18.6297 3.276 18.3205C3.61725 18.3774 3.61725 18.3774 4.004 18.5024C4.368 19.048 4.368 19.048 4.368 21.0487C2.92656 21.0487 1.48512 21.0487 0 21.0487C0 19.0026 0 19.0026 0.728 18.1387Z" fill="#0F696D"/>
<path d="M16.0162 4.86133C16.3165 4.86133 16.6168 4.86133 16.9262 4.86133C17.0463 5.16142 17.1664 5.46152 17.2902 5.7707C17.4103 5.7707 17.5304 5.7707 17.6542 5.7707C17.6542 5.47061 17.6542 5.17052 17.6542 4.86133C17.7743 4.86133 17.8944 4.86133 18.0182 4.86133C18.0182 5.16142 18.0182 5.46152 18.0182 5.7707C18.1383 5.7707 18.2584 5.7707 18.3822 5.7707C18.5023 5.53063 18.6224 5.29055 18.7462 5.0432C19.268 5.1475 19.449 5.19988 19.8382 5.58883C19.8737 6.06199 19.8737 6.06199 19.8609 6.61187C19.8577 6.79428 19.8544 6.97668 19.851 7.1646C19.8468 7.3048 19.8425 7.445 19.8382 7.58945C18.4491 7.72512 17.0487 7.86035 15.6522 7.77133C15.3699 7.48926 15.4326 7.21898 15.4247 6.82785C15.4297 6.05011 15.6034 5.53166 16.0162 4.86133Z" fill="#0F696D"/>
<path d="M16.3803 17.7744C16.6206 17.7744 16.8608 17.7744 17.1083 17.7744C17.2285 18.1345 17.3486 18.4946 17.4723 18.8657C17.5925 18.8657 17.7126 18.8657 17.8363 18.8657C17.8363 18.5656 17.8363 18.2655 17.8363 17.9563C17.9565 17.9563 18.0766 17.9563 18.2003 17.9563C18.2003 18.2564 18.2003 18.5565 18.2003 18.8657C18.3205 18.8657 18.4406 18.8657 18.5643 18.8657C18.6845 18.5656 18.8046 18.2655 18.9283 17.9563C19.3775 18.1658 19.665 18.3287 20.0203 18.6838C20.0203 19.344 20.0203 20.0042 20.0203 20.6844C18.5789 20.6844 17.1375 20.6844 15.6523 20.6844C15.6523 18.5423 15.6523 18.5423 16.3803 17.7744Z" fill="#0F696D"/>
<path d="M17.4715 1.22363C17.9038 1.235 17.9038 1.235 18.3815 1.40551C18.7438 1.93653 18.9381 2.29106 18.9048 2.94008C18.7009 3.53678 18.459 4.10435 18.1995 4.67926C17.6909 4.66473 17.3839 4.59195 17.0201 4.22741C16.3626 3.3661 16.3626 3.3661 16.4236 2.85482C16.6541 2.25631 17.0161 1.67872 17.4715 1.22363Z" fill="#0F696D"/>
<path d="M9.94116 7.8623C10.3734 7.95324 10.3734 7.95324 10.7374 8.31699C11.0284 8.93085 11.1014 9.25648 11.1014 9.95387C10.9813 9.95387 10.8612 9.95387 10.7374 9.95387C10.7111 10.1302 10.6849 10.3065 10.6578 10.4881C10.5554 11.0451 10.5554 11.0451 10.3734 11.227C9.96391 11.3179 9.96391 11.3179 9.46341 11.227C9.06331 10.8515 8.7885 10.4486 8.55341 9.95387C8.53185 9.07087 9.03001 8.03574 9.94116 7.8623Z" fill="#A63B0F"/>
<path d="M2.29858 0.951172C2.73083 1.04211 2.73083 1.04211 3.09483 1.40586C3.47399 2.16367 3.47399 2.16367 3.4247 2.65625C3.21 3.21739 2.97403 3.76639 2.73083 4.31586C2.3327 4.39543 2.3327 4.39543 1.82083 4.31586C1.41979 3.94153 1.14582 3.53724 0.910827 3.04273C0.889276 2.15973 1.38743 1.12461 2.29858 0.951172Z" fill="#0F696D"/>
<path d="M2.40028 14.6367C2.5692 14.6517 2.73812 14.6667 2.91216 14.6822C3.46526 15.8097 3.46526 15.8097 3.43541 16.4214C3.24256 16.9582 2.99919 17.4533 2.73016 17.9559C2.22745 17.9416 1.91581 17.8632 1.54431 17.5169C1.27887 17.186 1.07734 16.891 0.910156 16.5009C1.00116 15.9212 1.00116 15.9212 1.27416 15.4097C1.34923 15.2671 1.42431 15.1246 1.50166 14.9777C1.82016 14.6822 1.82016 14.6822 2.40028 14.6367Z" fill="#0F696D"/>
<path d="M17.9389 14.251C18.3825 14.3192 18.3825 14.3192 18.7465 14.6829C19.0987 15.3683 19.1617 15.7666 18.9285 16.5017C18.7549 16.8695 18.5744 17.2343 18.3825 17.5929C17.9844 17.6839 17.9844 17.6839 17.4725 17.5929C17.0527 17.1583 16.7757 16.7026 16.5625 16.1379C16.6931 15.2899 17.017 14.3858 17.9389 14.251Z" fill="#0F696D"/>
<path d="M15.4697 8.68065C15.4697 8.92072 15.4697 9.1608 15.4697 9.40815C15.1896 9.65894 15.1896 9.65894 14.81 9.8742C14.6769 9.94993 14.5439 10.0257 14.4069 10.1037C14.2771 10.1742 14.1474 10.2448 14.0137 10.3175C13.7266 10.4863 13.7266 10.4863 13.4336 10.6585C12.8598 10.8879 12.5917 10.8688 12.0117 10.6813C12.0663 10.0992 12.1156 9.84203 12.5584 9.44438C13.592 8.83411 14.2668 8.54709 15.4697 8.68065Z" fill="#0F696D"/>
<path d="M11.6468 15.0469C12.4947 15.1336 12.8898 15.4583 13.501 16.0358C13.6575 16.1819 13.8139 16.3279 13.9752 16.4784C14.2325 16.7265 14.488 16.9767 14.7408 17.2294C14.6726 17.7068 14.6726 17.7068 14.5588 18.1388C13.5929 18.076 13.1316 17.5554 12.4886 16.8997C12.387 16.8025 12.2854 16.7054 12.1808 16.6052C11.8928 16.3164 11.8928 16.3164 11.4648 15.7744C11.5291 15.3767 11.5291 15.3767 11.6468 15.0469Z" fill="#0F696D"/>
<path d="M6.69622 14.9941C6.82854 15.0115 6.96086 15.0288 7.09719 15.0467C7.15975 15.4296 7.15975 15.4296 7.09719 15.9561C6.77409 16.3738 6.46457 16.732 6.09619 17.1042C6.0007 17.2042 5.90522 17.3042 5.80684 17.4072C5.57162 17.6529 5.33367 17.896 5.09519 18.1386C4.85495 18.0786 4.61471 18.0186 4.36719 17.9567C4.44857 17.0323 4.70205 16.5718 5.32269 15.8879C5.53243 15.6495 5.53243 15.6495 5.74641 15.4062C6.18719 15.0467 6.18719 15.0467 6.69622 14.9941Z" fill="#0F696D"/>
<path d="M3.63903 8.13477C4.63258 8.20568 5.1166 8.53576 5.82303 9.22602C6.39057 9.97612 6.39057 9.97612 6.31216 10.556C6.27086 10.6573 6.22957 10.7585 6.18703 10.8629C5.40706 10.7757 4.95502 10.2775 4.41253 9.76027C4.32033 9.67435 4.22813 9.58842 4.13313 9.49989C3.90666 9.28852 3.6817 9.07555 3.45703 8.86227C3.51709 8.62219 3.57715 8.38212 3.63903 8.13477Z" fill="#0F696D"/>
<path d="M10.0098 8.68066C10.4534 8.8057 10.4534 8.8057 10.9198 9.04441C11.0676 9.52184 11.0676 9.52184 11.1018 9.95379C10.7414 10.0138 10.381 10.0738 10.0098 10.1357C10.0098 9.65551 10.0098 9.17536 10.0098 8.68066Z" fill="#A63B0F"/>
<path d="M2.73047 1.76953C2.85059 1.76953 2.97071 1.76953 3.09447 1.76953C3.45847 2.31516 3.45847 2.31516 3.42434 2.70164C3.37554 2.81418 3.32675 2.92671 3.27647 3.04266C3.09629 3.10268 2.91611 3.16269 2.73047 3.22453C2.73047 2.74438 2.73047 2.26423 2.73047 1.76953Z" fill="#0F696D"/>
</svg>
