<svg width="28" height="28" viewBox="0 0 28 28" fill="none" xmlns="http://www.w3.org/2000/svg">
<mask id="mask0_390_7219" style="mask-type:alpha" maskUnits="userSpaceOnUse" x="0" y="0" width="28" height="28">
<rect width="28" height="28" fill="#D9D9D9"/>
</mask>
<g mask="url(#mask0_390_7219)">
<path d="M11.6673 14C10.384 14 9.28537 13.543 8.37148 12.6291C7.4576 11.7152 7.00065 10.6166 7.00065 9.33329C7.00065 8.04996 7.4576 6.95135 8.37148 6.03746C9.28537 5.12357 10.384 4.66663 11.6673 4.66663C12.9507 4.66663 14.0493 5.12357 14.9632 6.03746C15.877 6.95135 16.334 8.04996 16.334 9.33329C16.334 10.6166 15.877 11.7152 14.9632 12.6291C14.0493 13.543 12.9507 14 11.6673 14ZM2.33398 23.3333V20.0666C2.33398 19.425 2.49926 18.8222 2.82982 18.2583C3.16037 17.6944 3.61732 17.2666 4.20065 16.975C5.19232 16.4694 6.31037 16.0416 7.55482 15.6916C8.79926 15.3416 10.1701 15.1666 11.6673 15.1666H12.0757C12.1923 15.1666 12.309 15.1861 12.4257 15.225C12.2701 15.575 12.1388 15.9395 12.0319 16.3187C11.925 16.6979 11.8423 17.0916 11.784 17.5H11.6673C10.2868 17.5 9.04718 17.675 7.94857 18.025C6.84996 18.375 5.95065 18.725 5.25065 19.075C5.07565 19.1722 4.93468 19.3083 4.82773 19.4833C4.72079 19.6583 4.66732 19.8527 4.66732 20.0666V21H12.0173C12.134 21.4083 12.2895 21.8118 12.484 22.2104C12.6784 22.609 12.8923 22.9833 13.1257 23.3333H2.33398ZM18.6673 24.5L18.3173 22.75C18.084 22.6527 17.8652 22.5507 17.6611 22.4437C17.4569 22.3368 17.2479 22.2055 17.034 22.05L15.3423 22.575L14.1757 20.5916L15.5173 19.425C15.4784 19.1527 15.459 18.9 15.459 18.6666C15.459 18.4333 15.4784 18.1805 15.5173 17.9083L14.1757 16.7416L15.3423 14.7583L17.034 15.2833C17.2479 15.1277 17.4569 14.9965 17.6611 14.8895C17.8652 14.7826 18.084 14.6805 18.3173 14.5833L18.6673 12.8333H21.0007L21.3507 14.5833C21.584 14.6805 21.8027 14.7875 22.0069 14.9041C22.2111 15.0208 22.4201 15.1666 22.634 15.3416L24.3257 14.7583L25.4923 16.8L24.1507 17.9666C24.1895 18.2 24.209 18.443 24.209 18.6958C24.209 18.9486 24.1895 19.1916 24.1507 19.425L25.4923 20.5916L24.3257 22.575L22.634 22.05C22.4201 22.2055 22.2111 22.3368 22.0069 22.4437C21.8027 22.5507 21.584 22.6527 21.3507 22.75L21.0007 24.5H18.6673ZM19.834 21C20.4757 21 21.025 20.7715 21.4819 20.3145C21.9388 19.8576 22.1673 19.3083 22.1673 18.6666C22.1673 18.025 21.9388 17.4757 21.4819 17.0187C21.025 16.5618 20.4757 16.3333 19.834 16.3333C19.1923 16.3333 18.643 16.5618 18.1861 17.0187C17.7291 17.4757 17.5007 18.025 17.5007 18.6666C17.5007 19.3083 17.7291 19.8576 18.1861 20.3145C18.643 20.7715 19.1923 21 19.834 21ZM11.6673 11.6666C12.309 11.6666 12.8583 11.4382 13.3152 10.9812C13.7722 10.5243 14.0007 9.97496 14.0007 9.33329C14.0007 8.69163 13.7722 8.14232 13.3152 7.68538C12.8583 7.22843 12.309 6.99996 11.6673 6.99996C11.0257 6.99996 10.4763 7.22843 10.0194 7.68538C9.56246 8.14232 9.33398 8.69163 9.33398 9.33329C9.33398 9.97496 9.56246 10.5243 10.0194 10.9812C10.4763 11.4382 11.0257 11.6666 11.6673 11.6666Z" fill="#0F696D"/>
</g>
</svg>
