<?xml version="1.0" encoding="UTF-8" standalone="no"?>
<!DOCTYPE svg PUBLIC "-//W3C//DTD SVG 1.1//EN" "http://www.w3.org/Graphics/SVG/1.1/DTD/svg11.dtd">
<svg width="100%" height="100%" viewBox="0 0 32 32" version="1.1" xmlns="http://www.w3.org/2000/svg" xmlns:xlink="http://www.w3.org/1999/xlink" xml:space="preserve" xmlns:serif="http://www.serif.com/" style="fill-rule:evenodd;clip-rule:evenodd;stroke-linejoin:round;stroke-miterlimit:2;">
    <g transform="matrix(1.14301,0,0,1.14301,-2.28602,-2.28602)">
        <path d="M19.05,5.06C19.05,3.38 17.68,2 15.99,2C14.3,2 12.92,3.38 12.93,5.06L12.93,12.93L5.06,12.93C3.38,12.93 2,14.3 2,15.99C2,17.67 3.38,19.05 5.06,19.05L12.93,19.05L12.93,26.91C12.93,28.59 14.3,29.97 15.99,29.97C17.67,29.97 19.05,28.6 19.05,26.91L19.05,19.05L26.91,19.05C28.59,19.05 29.97,17.68 29.97,15.99C29.97,14.31 28.6,12.93 26.91,12.93L19.05,12.93L19.05,5.06Z" style="fill:rgb(33,33,33);fill-rule:nonzero;"/>
    </g>
</svg>
