<svg width="20" height="16" viewBox="0 0 20 16" fill="none" xmlns="http://www.w3.org/2000/svg">
<path d="M6.41468 0.101077C6.70613 0.100555 6.70613 0.100555 7.00347 0.100022C7.41213 0.0997767 7.82078 0.100435 8.22944 0.101965C8.84239 0.103897 9.45524 0.101985 10.0682 0.0996561C11.9235 0.0982251 13.7687 0.128867 15.6171 0.299967C15.7618 0.312533 15.9065 0.325099 16.0556 0.338046C16.9628 0.434677 17.6838 0.634214 18.4949 1.05859C19.1838 1.96424 19.277 2.78222 19.3303 3.89632C19.3409 4.09815 19.3409 4.09815 19.3518 4.30406C19.4221 5.75305 19.4388 7.202 19.4387 8.65249C19.4391 9.10043 19.4424 9.54828 19.4458 9.9962C19.4463 10.2852 19.4467 10.5742 19.4469 10.8631C19.4482 10.995 19.4495 11.1268 19.4508 11.2627C19.4462 12.3017 19.236 13.2649 18.6769 14.1512C15.5046 16.3979 9.78315 15.8224 6.08681 15.8617C5.76864 15.8655 5.45049 15.8706 5.13237 15.8773C4.68265 15.886 4.2333 15.8885 3.7835 15.8894C3.58245 15.8947 3.58245 15.8947 3.37734 15.9001C2.36596 15.8914 1.90399 15.5868 1.20493 14.8786C-0.351548 13.2509 0.0450961 10.0718 0.0454807 7.95052C0.0446768 7.45459 0.0380163 6.95894 0.0311731 6.46306C0.0184698 4.50749 0.0568074 2.80222 1.38693 1.24043C1.50705 1.24043 1.62717 1.24043 1.75093 1.24043C1.79073 1.12504 1.83052 1.00965 1.87152 0.890765C2.11493 0.513063 2.11493 0.513063 2.55385 0.364173C3.84738 0.184768 5.109 0.0957468 6.41468 0.101077Z" fill="#F9F9FA"/>
<path d="M6.41468 0.101077C6.70613 0.100555 6.70613 0.100555 7.00347 0.100022C7.41213 0.0997767 7.82078 0.100435 8.22944 0.101965C8.84239 0.103897 9.45524 0.101985 10.0682 0.0996561C11.9235 0.0982251 13.7687 0.128867 15.6171 0.299967C15.7618 0.312533 15.9065 0.325099 16.0556 0.338046C16.9628 0.434677 17.6838 0.634214 18.4949 1.05859C19.1838 1.96424 19.277 2.78222 19.3303 3.89632C19.3409 4.09815 19.3409 4.09815 19.3518 4.30406C19.4221 5.75305 19.4388 7.202 19.4387 8.65249C19.4391 9.10043 19.4424 9.54828 19.4458 9.9962C19.4463 10.2852 19.4467 10.5742 19.4469 10.8631C19.4482 10.995 19.4495 11.1268 19.4508 11.2627C19.4462 12.3017 19.236 13.2649 18.6769 14.1512C15.5046 16.3979 9.78315 15.8224 6.08681 15.8617C5.76864 15.8655 5.45049 15.8706 5.13237 15.8773C4.68265 15.886 4.2333 15.8885 3.7835 15.8894C3.58245 15.8947 3.58245 15.8947 3.37734 15.9001C2.36596 15.8914 1.90399 15.5868 1.20493 14.8786C-0.351548 13.2509 0.0450961 10.0718 0.0454807 7.95052C0.0446768 7.45459 0.0380163 6.95894 0.0311731 6.46306C0.0184698 4.50749 0.0568074 2.80222 1.38693 1.24043C1.50705 1.24043 1.62717 1.24043 1.75093 1.24043C1.79073 1.12504 1.83052 1.00965 1.87152 0.890765C2.11493 0.513063 2.11493 0.513063 2.55385 0.364173C3.84738 0.184768 5.109 0.0957468 6.41468 0.101077ZM4.31031 1.7405C4.09256 1.75729 4.09256 1.75729 3.87041 1.77441C3.32643 1.83329 2.93257 1.89556 2.50097 2.2434C1.90104 3.57171 1.87689 4.97439 1.87819 6.40872C1.87741 6.60203 1.87663 6.79533 1.87583 6.99448C1.87479 7.40037 1.87468 7.80626 1.87548 8.21214C1.87606 8.83305 1.87177 9.4538 1.86717 10.0747C1.86676 10.4703 1.86663 10.866 1.86681 11.2616C1.86514 11.4467 1.86346 11.6318 1.86173 11.8225C1.86641 12.5367 1.89844 13.1331 2.11498 13.8166C2.58047 14.2446 2.94077 14.2465 3.55966 14.2346C3.70508 14.2273 3.85051 14.2199 4.00034 14.2123C4.15306 14.2083 4.30579 14.2043 4.46315 14.2002C4.78874 14.1914 5.11429 14.1809 5.43976 14.1686C6.08336 14.1461 6.72674 14.1385 7.37065 14.1307C8.01842 14.122 8.66603 14.1079 9.31371 14.0935C9.64215 14.0865 9.9706 14.0802 10.2991 14.0745C14.0677 14.1444 14.0677 14.1444 17.5849 13.0602C18.0055 12.4298 17.9938 12.1913 17.9909 11.4485C17.9906 11.1246 17.9906 11.1246 17.9903 10.7943C17.9879 10.5632 17.9855 10.332 17.9831 10.0939C17.9816 9.85816 17.9802 9.62245 17.9787 9.3796C17.9659 7.91233 17.938 6.44578 17.8807 4.97956C17.8751 4.81857 17.8695 4.65757 17.8638 4.4917C17.8243 3.6557 17.7457 2.92688 17.4029 2.14964C14.2538 0.576461 7.77661 1.43917 4.31031 1.7405Z" fill="#0F696D"/>
<path d="M6.82398 8.45712C7.04874 8.45032 7.2735 8.44353 7.50506 8.43652C8.12074 8.51395 8.12074 8.51395 8.55085 8.83146C9.13804 9.63938 9.24332 10.5357 9.15586 11.5143C9.03074 11.9689 9.03074 11.9689 8.84874 12.1508C8.50028 12.1689 8.15116 12.1746 7.80224 12.1749C7.59015 12.1752 7.37806 12.1754 7.15955 12.1757C6.9362 12.1749 6.71285 12.1742 6.48274 12.1735C6.14771 12.1746 6.14771 12.1746 5.80592 12.1757C5.59384 12.1754 5.38175 12.1752 5.16323 12.1749C4.9671 12.1747 4.77097 12.1745 4.56889 12.1743C4.11673 12.1508 4.11673 12.1508 3.93473 11.9689C3.68399 10.1384 3.68399 10.1384 4.20631 9.40611C5.07511 8.67133 5.68043 8.47969 6.82398 8.45712Z" fill="#0F696D"/>
<path d="M13.2167 4.15039C13.6671 4.2404 13.6671 4.2404 14.1267 4.33223C14.1267 4.57226 14.1267 4.8123 14.1267 5.0596C14.3238 4.82895 14.3238 4.82895 14.5248 4.59363C15.0367 4.15039 15.0367 4.15039 15.5486 4.18449C15.6799 4.23324 15.8113 4.282 15.9467 4.33223C15.9467 4.51226 15.9467 4.69228 15.9467 4.87776C16.247 4.87776 16.5473 4.87776 16.8567 4.87776C16.8794 5.30963 16.8794 5.30963 16.8567 5.78697C16.4927 6.15065 16.4927 6.15065 15.8329 6.19256C15.5675 6.19184 15.3021 6.18915 15.0367 6.18475C14.9025 6.18463 14.7683 6.18451 14.63 6.18439C13.6318 6.1762 13.6318 6.1762 13.2167 5.96881C12.5432 6.035 11.8982 6.12077 11.2374 6.26431C10.8507 6.3325 10.8507 6.3325 10.4867 6.15065C10.3787 5.66903 10.3516 5.18835 10.3047 4.69592C11.2176 4.4987 11.9338 4.53269 12.8527 4.69592C12.9728 4.51589 13.0929 4.33587 13.2167 4.15039Z" fill="#0F696D"/>
<path d="M11.2153 6.87793C11.5679 7.02568 11.5679 7.02568 11.9433 7.24161C12.0033 7.42164 12.0634 7.60166 12.1253 7.78714C12.3843 7.78151 12.3843 7.78151 12.6485 7.77578C13.2173 7.78714 13.2173 7.78714 13.5813 7.96898C13.7614 7.84897 13.9416 7.72895 14.1273 7.6053C14.3675 7.6053 14.6077 7.6053 14.8553 7.6053C14.8553 7.72531 14.8553 7.84533 14.8553 7.96898C15.0354 7.84897 15.2156 7.72895 15.4013 7.6053C16.2276 7.70359 16.2276 7.70359 16.4933 7.96898C16.5006 8.27196 16.501 8.57522 16.4933 8.87819C16.253 8.87819 16.0128 8.87819 15.7653 8.87819C15.6451 8.94195 15.525 9.00571 15.4013 9.0714C14.9555 9.28015 14.763 9.22194 14.3093 9.06003C14.3093 8.94002 14.3093 8.82 14.3093 8.69635C14.2041 8.78636 14.099 8.87637 13.9908 8.96911C13.5813 9.24188 13.5813 9.24188 12.8533 9.24188C12.7932 9.06185 12.7331 8.88183 12.6713 8.69635C12.5511 8.63634 12.431 8.57633 12.3073 8.51451C12.2847 8.65703 12.2622 8.79955 12.239 8.94638C12.1253 9.42372 12.1253 9.42372 11.7613 9.7874C11.3745 9.71921 11.3745 9.71921 11.0333 9.60556C11.0933 9.24551 11.1534 8.88547 11.2153 8.51451C10.975 8.51451 10.7348 8.51451 10.4873 8.51451C10.4417 8.00308 10.4417 8.00308 10.4873 7.42346C10.8513 7.0825 10.8513 7.0825 11.2153 6.87793Z" fill="#0F696D"/>
<path d="M6.67548 4.03613C7.21011 4.14978 7.21011 4.14978 7.55136 4.49074C7.9096 5.48499 7.90275 6.44648 7.56273 7.44567C7.21011 7.78663 7.21011 7.78663 6.57311 7.88891C5.93611 7.78663 5.93611 7.78663 5.62827 7.47835C5.19588 6.71749 5.2784 5.9067 5.39011 5.05899C5.74679 4.35994 5.90769 4.19269 6.67548 4.03613Z" fill="#0F696D"/>
<path d="M12.0124 10.3334C12.1975 10.3555 12.1975 10.3555 12.3863 10.3781C12.6457 10.4022 12.9052 10.4256 13.1648 10.4484C13.2947 10.4605 13.4247 10.4725 13.5586 10.4849C14.4738 10.555 15.3936 10.5286 16.3107 10.5145C16.2504 10.9664 16.2086 11.1805 15.84 11.4635C15.1215 11.6958 14.3859 11.6845 13.6376 11.7085C12.8903 11.7204 12.8903 11.7204 12.3067 12.1511C11.9427 12.117 11.9427 12.117 11.5787 11.9692C11.4586 11.7892 11.3384 11.6092 11.2147 11.4237C10.9744 11.4837 10.7342 11.5437 10.4867 11.6055C10.4266 11.4255 10.3666 11.2455 10.3047 11.06C10.8223 10.381 11.1637 10.2568 12.0124 10.3334Z" fill="#0F696D"/>
</svg>
