<?xml version="1.0" encoding="UTF-8" standalone="no"?>
<!DOCTYPE svg PUBLIC "-//W3C//DTD SVG 1.1//EN" "http://www.w3.org/Graphics/SVG/1.1/DTD/svg11.dtd">
<svg width="100%" height="100%" viewBox="0 0 20 16" version="1.1" xmlns="http://www.w3.org/2000/svg" xmlns:xlink="http://www.w3.org/1999/xlink" xml:space="preserve" xmlns:serif="http://www.serif.com/" style="fill-rule:evenodd;clip-rule:evenodd;stroke-linejoin:round;stroke-miterlimit:2;">
    <path d="M6.415,0.101C6.706,0.101 6.706,0.101 7.003,0.1C7.412,0.1 7.821,0.1 8.229,0.102C8.842,0.104 9.455,0.102 10.068,0.1C11.924,0.098 13.769,0.129 15.617,0.3C15.762,0.313 15.906,0.325 16.056,0.338C16.963,0.435 17.684,0.634 18.495,1.059C19.184,1.964 19.277,2.782 19.33,3.896C19.341,4.098 19.341,4.098 19.352,4.304C19.422,5.753 19.439,7.202 19.439,8.652C19.439,9.1 19.442,9.548 19.446,9.996C19.446,10.285 19.447,10.574 19.447,10.863C19.448,10.995 19.45,11.127 19.451,11.263C19.446,12.302 19.236,13.265 18.677,14.151C15.505,16.398 9.783,15.822 6.087,15.862C5.769,15.866 5.45,15.871 5.132,15.877C4.683,15.886 4.233,15.889 3.784,15.889C3.582,15.895 3.582,15.895 3.377,15.9C2.366,15.891 1.904,15.587 1.205,14.879C-0.352,13.251 0.045,10.072 0.045,7.951C0.045,7.455 0.038,6.959 0.031,6.463C0.018,4.507 0.057,2.802 1.387,1.24L1.751,1.24C1.791,1.125 1.831,1.01 1.872,0.891C2.115,0.513 2.115,0.513 2.554,0.364C3.847,0.185 5.109,0.096 6.415,0.101Z" style="fill:rgb(249,249,250);fill-rule:nonzero;"/>
    <path d="M6.415,0.101C6.706,0.101 6.706,0.101 7.003,0.1C7.412,0.1 7.821,0.1 8.229,0.102C8.842,0.104 9.455,0.102 10.068,0.1C11.924,0.098 13.769,0.129 15.617,0.3C15.762,0.313 15.906,0.325 16.056,0.338C16.963,0.435 17.684,0.634 18.495,1.059C19.184,1.964 19.277,2.782 19.33,3.896C19.341,4.098 19.341,4.098 19.352,4.304C19.422,5.753 19.439,7.202 19.439,8.652C19.439,9.1 19.442,9.548 19.446,9.996C19.446,10.285 19.447,10.574 19.447,10.863C19.448,10.995 19.45,11.127 19.451,11.263C19.446,12.302 19.236,13.265 18.677,14.151C15.505,16.398 9.783,15.822 6.087,15.862C5.769,15.866 5.45,15.871 5.132,15.877C4.683,15.886 4.233,15.889 3.784,15.889C3.582,15.895 3.582,15.895 3.377,15.9C2.366,15.891 1.904,15.587 1.205,14.879C-0.352,13.251 0.045,10.072 0.045,7.951C0.045,7.455 0.038,6.959 0.031,6.463C0.018,4.507 0.057,2.802 1.387,1.24L1.751,1.24C1.791,1.125 1.831,1.01 1.872,0.891C2.115,0.513 2.115,0.513 2.554,0.364C3.847,0.185 5.109,0.096 6.415,0.101ZM4.31,1.741C4.093,1.757 4.093,1.757 3.87,1.774C3.326,1.833 2.933,1.896 2.501,2.243C1.901,3.572 1.877,4.974 1.878,6.409C1.877,6.602 1.877,6.795 1.876,6.994C1.875,7.4 1.875,7.806 1.875,8.212C1.876,8.833 1.872,9.454 1.867,10.075C1.867,10.47 1.867,10.866 1.867,11.262C1.865,11.447 1.863,11.632 1.862,11.823C1.866,12.537 1.898,13.133 2.115,13.817C2.58,14.245 2.941,14.246 3.56,14.235C3.705,14.227 3.851,14.22 4,14.212C4.153,14.208 4.306,14.204 4.463,14.2C4.789,14.191 5.114,14.181 5.44,14.169C6.083,14.146 6.727,14.139 7.371,14.131C8.018,14.122 8.666,14.108 9.314,14.094C9.642,14.086 9.971,14.08 10.299,14.075C14.068,14.144 14.068,14.144 17.585,13.06C18.006,12.43 17.994,12.191 17.991,11.448C17.991,11.125 17.991,11.125 17.99,10.794C17.988,10.563 17.985,10.332 17.983,10.094C17.982,9.858 17.98,9.622 17.979,9.38C17.966,7.912 17.938,6.446 17.881,4.98C17.875,4.819 17.87,4.658 17.864,4.492C17.824,3.656 17.746,2.927 17.403,2.15C14.254,0.576 7.777,1.439 4.31,1.741Z" style="fill:rgb(18,61,93);fill-rule:nonzero;"/>
    <path d="M6.824,8.457C7.049,8.45 7.274,8.444 7.505,8.437C8.121,8.514 8.121,8.514 8.551,8.831C9.138,9.639 9.243,10.536 9.156,11.514C9.031,11.969 9.031,11.969 8.849,12.151C8.5,12.169 8.151,12.175 7.802,12.175C7.59,12.175 7.378,12.175 7.16,12.176C6.936,12.175 6.713,12.174 6.483,12.174C6.148,12.175 6.148,12.175 5.806,12.176C5.594,12.175 5.382,12.175 5.163,12.175C4.967,12.175 4.771,12.175 4.569,12.174C4.117,12.151 4.117,12.151 3.935,11.969C3.684,10.138 3.684,10.138 4.206,9.406C5.075,8.671 5.68,8.48 6.824,8.457Z" style="fill:rgb(18,61,93);fill-rule:nonzero;"/>
    <path d="M13.217,4.15C13.667,4.24 13.667,4.24 14.127,4.332L14.127,5.06C14.324,4.829 14.324,4.829 14.525,4.594C15.037,4.15 15.037,4.15 15.549,4.184C15.68,4.233 15.811,4.282 15.947,4.332L15.947,4.878L16.857,4.878C16.879,5.31 16.879,5.31 16.857,5.787C16.493,6.151 16.493,6.151 15.833,6.193C15.568,6.192 15.302,6.189 15.037,6.185C14.903,6.185 14.768,6.185 14.63,6.184C13.632,6.176 13.632,6.176 13.217,5.969C12.543,6.035 11.898,6.121 11.237,6.264C10.851,6.332 10.851,6.332 10.487,6.151C10.379,5.669 10.352,5.188 10.305,4.696C11.218,4.499 11.934,4.533 12.853,4.696C12.973,4.516 13.093,4.336 13.217,4.15Z" style="fill:rgb(18,61,93);fill-rule:nonzero;"/>
    <path d="M11.215,6.878C11.568,7.026 11.568,7.026 11.943,7.242C12.003,7.422 12.063,7.602 12.125,7.787C12.384,7.782 12.384,7.782 12.649,7.776C13.217,7.787 13.217,7.787 13.581,7.969C13.761,7.849 13.942,7.729 14.127,7.605L14.855,7.605L14.855,7.969C15.035,7.849 15.216,7.729 15.401,7.605C16.228,7.704 16.228,7.704 16.493,7.969C16.501,8.272 16.501,8.575 16.493,8.878L15.765,8.878C15.645,8.942 15.525,9.006 15.401,9.071C14.956,9.28 14.763,9.222 14.309,9.06L14.309,8.696C14.204,8.786 14.099,8.876 13.991,8.969C13.581,9.242 13.581,9.242 12.853,9.242C12.793,9.062 12.733,8.882 12.671,8.696C12.551,8.636 12.431,8.576 12.307,8.515C12.285,8.657 12.262,8.8 12.239,8.946C12.125,9.424 12.125,9.424 11.761,9.787C11.375,9.719 11.375,9.719 11.033,9.606C11.093,9.246 11.153,8.885 11.215,8.515L10.487,8.515C10.442,8.003 10.442,8.003 10.487,7.423C10.851,7.082 10.851,7.082 11.215,6.878Z" style="fill:rgb(18,61,93);fill-rule:nonzero;"/>
    <path d="M6.675,4.036C7.21,4.15 7.21,4.15 7.551,4.491C7.91,5.485 7.903,6.446 7.563,7.446C7.21,7.787 7.21,7.787 6.573,7.889C5.936,7.787 5.936,7.787 5.628,7.478C5.196,6.717 5.278,5.907 5.39,5.059C5.747,4.36 5.908,4.193 6.675,4.036Z" style="fill:rgb(18,61,93);fill-rule:nonzero;"/>
    <path d="M12.012,10.333C12.198,10.355 12.198,10.355 12.386,10.378C12.646,10.402 12.905,10.426 13.165,10.448C13.295,10.461 13.425,10.473 13.559,10.485C14.474,10.555 15.394,10.529 16.311,10.515C16.25,10.966 16.209,11.181 15.84,11.464C15.121,11.696 14.386,11.685 13.638,11.709C12.89,11.72 12.89,11.72 12.307,12.151C11.943,12.117 11.943,12.117 11.579,11.969C11.459,11.789 11.338,11.609 11.215,11.424C10.974,11.484 10.734,11.544 10.487,11.605C10.427,11.426 10.367,11.246 10.305,11.06C10.822,10.381 11.164,10.257 12.012,10.333Z" style="fill:rgb(18,61,93);fill-rule:nonzero;"/>
</svg>
