<?xml version="1.0" encoding="UTF-8" standalone="no"?>
<!DOCTYPE svg PUBLIC "-//W3C//DTD SVG 1.1//EN" "http://www.w3.org/Graphics/SVG/1.1/DTD/svg11.dtd">
<svg width="100%" height="100%" viewBox="0 0 1080 1080" version="1.1" xmlns="http://www.w3.org/2000/svg" xmlns:xlink="http://www.w3.org/1999/xlink" xml:space="preserve" xmlns:serif="http://www.serif.com/" style="fill-rule:evenodd;clip-rule:evenodd;stroke-linejoin:round;stroke-miterlimit:2;">
    <g transform="matrix(0.941712,0,0,0.951998,62.9511,51.8421)">
        <rect x="-66.847" y="-54.456" width="1146.85" height="1134.46" style="fill:rgb(18,61,93);"/>
    </g>
    <g transform="matrix(1,0,0,1,-195.469,200.537)">
        <g transform="matrix(608,0,0,608,559.26,555.971)">
            <path d="M0.183,-0.32L0.061,-0.349L0.103,-0.711L0.51,-0.711L0.51,-0.59L0.228,-0.59L0.211,-0.441C0.22,-0.446 0.234,-0.451 0.253,-0.458C0.271,-0.464 0.293,-0.467 0.316,-0.467C0.351,-0.467 0.382,-0.462 0.409,-0.451C0.436,-0.441 0.458,-0.425 0.477,-0.405C0.496,-0.384 0.51,-0.359 0.52,-0.33C0.53,-0.3 0.534,-0.266 0.534,-0.229C0.534,-0.197 0.529,-0.168 0.52,-0.139C0.51,-0.111 0.495,-0.085 0.475,-0.063C0.455,-0.04 0.429,-0.023 0.399,-0.01C0.369,0.003 0.332,0.01 0.291,0.01C0.26,0.01 0.23,0.005 0.2,-0.004C0.171,-0.014 0.145,-0.028 0.121,-0.046C0.098,-0.064 0.08,-0.086 0.066,-0.112C0.052,-0.138 0.046,-0.167 0.045,-0.2L0.198,-0.2C0.199,-0.181 0.204,-0.165 0.212,-0.151C0.22,-0.138 0.231,-0.127 0.244,-0.12C0.257,-0.112 0.273,-0.109 0.29,-0.109C0.307,-0.109 0.322,-0.112 0.333,-0.119C0.345,-0.125 0.354,-0.135 0.361,-0.146C0.368,-0.158 0.373,-0.172 0.377,-0.188C0.38,-0.203 0.381,-0.22 0.381,-0.238C0.381,-0.256 0.379,-0.273 0.375,-0.288C0.371,-0.303 0.364,-0.315 0.356,-0.326C0.347,-0.337 0.336,-0.345 0.322,-0.35C0.308,-0.356 0.292,-0.359 0.274,-0.359C0.249,-0.359 0.229,-0.355 0.215,-0.347C0.201,-0.338 0.191,-0.33 0.183,-0.32Z" style="fill:white;fill-rule:nonzero;"/>
        </g>
        <g transform="matrix(608,0,0,608,909.927,555.971)">
        </g>
    </g>
</svg>
