<?xml version="1.0" encoding="UTF-8" standalone="no"?>
<!DOCTYPE svg PUBLIC "-//W3C//DTD SVG 1.1//EN" "http://www.w3.org/Graphics/SVG/1.1/DTD/svg11.dtd">
<svg width="100%" height="100%" viewBox="0 0 1080 1080" version="1.1" xmlns="http://www.w3.org/2000/svg" xmlns:xlink="http://www.w3.org/1999/xlink" xml:space="preserve" xmlns:serif="http://www.serif.com/" style="fill-rule:evenodd;clip-rule:evenodd;stroke-linejoin:round;stroke-miterlimit:2;">
    <g transform="matrix(0.941712,0,0,0.951998,62.9511,51.8421)">
        <rect x="-66.847" y="-54.456" width="1146.85" height="1134.46" style="fill:rgb(18,61,93);"/>
    </g>
    <g transform="matrix(1,0,0,1,-192.384,200.537)">
        <g transform="matrix(608,0,0,608,559.26,555.971)">
            <path d="M0.148,-0.115L0.158,-0.115C0.193,-0.115 0.225,-0.119 0.252,-0.127C0.279,-0.136 0.302,-0.148 0.32,-0.165C0.339,-0.181 0.352,-0.202 0.362,-0.228C0.371,-0.253 0.376,-0.283 0.376,-0.317L0.376,-0.458C0.376,-0.482 0.374,-0.504 0.369,-0.522C0.365,-0.54 0.358,-0.555 0.35,-0.567C0.342,-0.579 0.332,-0.588 0.32,-0.594C0.309,-0.6 0.296,-0.603 0.283,-0.603C0.268,-0.603 0.256,-0.599 0.245,-0.591C0.234,-0.584 0.224,-0.574 0.217,-0.561C0.209,-0.549 0.203,-0.534 0.199,-0.518C0.195,-0.502 0.193,-0.486 0.193,-0.469C0.193,-0.451 0.195,-0.435 0.199,-0.419C0.203,-0.403 0.209,-0.39 0.217,-0.378C0.225,-0.366 0.235,-0.357 0.247,-0.35C0.259,-0.344 0.273,-0.34 0.289,-0.34C0.305,-0.34 0.319,-0.343 0.331,-0.349C0.343,-0.355 0.353,-0.363 0.361,-0.372C0.369,-0.382 0.376,-0.393 0.38,-0.404C0.384,-0.416 0.386,-0.428 0.386,-0.439L0.433,-0.408C0.433,-0.386 0.428,-0.364 0.419,-0.343C0.409,-0.322 0.396,-0.303 0.379,-0.285C0.362,-0.268 0.342,-0.254 0.32,-0.244C0.298,-0.234 0.274,-0.229 0.249,-0.229C0.216,-0.229 0.187,-0.235 0.161,-0.246C0.135,-0.258 0.114,-0.275 0.096,-0.296C0.078,-0.318 0.064,-0.343 0.055,-0.372C0.045,-0.401 0.041,-0.434 0.041,-0.469C0.041,-0.503 0.046,-0.536 0.058,-0.566C0.07,-0.597 0.086,-0.623 0.108,-0.647C0.129,-0.67 0.155,-0.688 0.185,-0.701C0.215,-0.714 0.248,-0.721 0.284,-0.721C0.319,-0.721 0.352,-0.714 0.381,-0.701C0.411,-0.688 0.437,-0.668 0.459,-0.643C0.481,-0.618 0.498,-0.587 0.51,-0.552C0.523,-0.516 0.529,-0.476 0.529,-0.431L0.529,-0.378C0.529,-0.33 0.523,-0.285 0.512,-0.245C0.501,-0.205 0.485,-0.169 0.464,-0.138C0.442,-0.106 0.417,-0.08 0.387,-0.058C0.356,-0.036 0.322,-0.02 0.284,-0.009C0.246,0.003 0.205,0.008 0.16,0.008L0.148,0.008L0.148,-0.115Z" style="fill:white;fill-rule:nonzero;"/>
        </g>
        <g transform="matrix(608,0,0,608,909.927,555.971)">
        </g>
    </g>
</svg>
