<?xml version="1.0" encoding="UTF-8" standalone="no"?>
<!DOCTYPE svg PUBLIC "-//W3C//DTD SVG 1.1//EN" "http://www.w3.org/Graphics/SVG/1.1/DTD/svg11.dtd">
<svg width="100%" height="100%" viewBox="0 0 1080 1080" version="1.1" xmlns="http://www.w3.org/2000/svg" xmlns:xlink="http://www.w3.org/1999/xlink" xml:space="preserve" xmlns:serif="http://www.serif.com/" style="fill-rule:evenodd;clip-rule:evenodd;stroke-linejoin:round;stroke-miterlimit:2;">
    <g transform="matrix(0.941712,0,0,0.951998,62.9511,51.8421)">
        <rect x="-66.847" y="-54.456" width="1146.85" height="1134.46" style="fill:rgb(18,61,93);"/>
    </g>
    <g transform="matrix(1,0,0,1,-189.576,200.537)">
        <g transform="matrix(608,0,0,608,559.26,555.971)">
            <path d="M0.193,-0.42L0.271,-0.42C0.293,-0.42 0.312,-0.424 0.326,-0.432C0.34,-0.44 0.351,-0.451 0.358,-0.465C0.365,-0.48 0.369,-0.496 0.369,-0.516C0.369,-0.532 0.366,-0.547 0.359,-0.56C0.353,-0.573 0.343,-0.583 0.329,-0.591C0.316,-0.599 0.299,-0.603 0.278,-0.603C0.263,-0.603 0.249,-0.6 0.236,-0.594C0.222,-0.587 0.211,-0.579 0.203,-0.568C0.194,-0.557 0.19,-0.543 0.19,-0.527L0.037,-0.527C0.037,-0.567 0.048,-0.601 0.07,-0.63C0.091,-0.659 0.12,-0.682 0.156,-0.697C0.192,-0.713 0.231,-0.721 0.274,-0.721C0.323,-0.721 0.366,-0.713 0.404,-0.698C0.441,-0.683 0.47,-0.66 0.49,-0.63C0.511,-0.6 0.522,-0.563 0.522,-0.518C0.522,-0.495 0.516,-0.473 0.505,-0.451C0.494,-0.43 0.479,-0.411 0.459,-0.395C0.439,-0.378 0.415,-0.365 0.388,-0.356C0.36,-0.346 0.329,-0.341 0.296,-0.341L0.193,-0.341L0.193,-0.42ZM0.193,-0.306L0.193,-0.383L0.296,-0.383C0.333,-0.383 0.366,-0.379 0.396,-0.371C0.425,-0.362 0.45,-0.35 0.47,-0.334C0.491,-0.318 0.506,-0.299 0.517,-0.276C0.528,-0.253 0.533,-0.228 0.533,-0.199C0.533,-0.166 0.527,-0.137 0.514,-0.111C0.501,-0.085 0.482,-0.063 0.459,-0.045C0.435,-0.027 0.408,-0.013 0.376,-0.004C0.345,0.005 0.311,0.01 0.274,0.01C0.244,0.01 0.215,0.006 0.185,-0.002C0.156,-0.011 0.13,-0.023 0.106,-0.04C0.082,-0.056 0.063,-0.078 0.049,-0.104C0.034,-0.13 0.027,-0.161 0.027,-0.196L0.18,-0.196C0.18,-0.18 0.184,-0.165 0.193,-0.152C0.202,-0.138 0.214,-0.128 0.229,-0.12C0.244,-0.113 0.26,-0.109 0.279,-0.109C0.3,-0.109 0.318,-0.113 0.333,-0.121C0.348,-0.129 0.36,-0.14 0.368,-0.154C0.376,-0.168 0.38,-0.184 0.38,-0.202C0.38,-0.227 0.376,-0.247 0.367,-0.262C0.358,-0.277 0.346,-0.288 0.329,-0.295C0.313,-0.302 0.294,-0.306 0.271,-0.306L0.193,-0.306Z" style="fill:white;fill-rule:nonzero;"/>
        </g>
        <g transform="matrix(608,0,0,608,909.927,555.971)">
        </g>
    </g>
</svg>
