<?xml version="1.0" encoding="UTF-8" standalone="no"?>
<!DOCTYPE svg PUBLIC "-//W3C//DTD SVG 1.1//EN" "http://www.w3.org/Graphics/SVG/1.1/DTD/svg11.dtd">
<svg width="100%" height="100%" viewBox="0 0 1080 1080" version="1.1" xmlns="http://www.w3.org/2000/svg" xmlns:xlink="http://www.w3.org/1999/xlink" xml:space="preserve" xmlns:serif="http://www.serif.com/" style="fill-rule:evenodd;clip-rule:evenodd;stroke-linejoin:round;stroke-miterlimit:2;">
    <g transform="matrix(0.941712,0,0,0.951998,62.9511,51.8421)">
        <rect x="-66.847" y="-54.456" width="1146.85" height="1134.46" style="fill:rgb(18,61,93);"/>
    </g>
    <g transform="matrix(1,0,0,1,-194.569,200.537)">
        <g transform="matrix(608,0,0,608,559.26,555.971)">
            <path d="M0.532,-0.419L0.532,-0.293C0.532,-0.24 0.527,-0.195 0.515,-0.157C0.503,-0.119 0.487,-0.088 0.465,-0.063C0.444,-0.038 0.418,-0.02 0.388,-0.008C0.358,0.004 0.325,0.01 0.289,0.01C0.26,0.01 0.233,0.006 0.208,-0.002C0.183,-0.009 0.16,-0.021 0.14,-0.036C0.12,-0.052 0.103,-0.072 0.089,-0.096C0.074,-0.12 0.063,-0.148 0.056,-0.181C0.048,-0.213 0.044,-0.251 0.044,-0.293L0.044,-0.419C0.044,-0.472 0.05,-0.517 0.062,-0.555C0.073,-0.593 0.09,-0.624 0.112,-0.648C0.134,-0.673 0.159,-0.691 0.189,-0.703C0.219,-0.715 0.252,-0.721 0.288,-0.721C0.317,-0.721 0.344,-0.717 0.369,-0.709C0.394,-0.702 0.416,-0.69 0.437,-0.675C0.457,-0.659 0.474,-0.64 0.488,-0.616C0.502,-0.592 0.513,-0.564 0.521,-0.531C0.529,-0.498 0.532,-0.461 0.532,-0.419ZM0.38,-0.273L0.38,-0.439C0.38,-0.463 0.378,-0.485 0.376,-0.503C0.373,-0.521 0.369,-0.536 0.364,-0.549C0.359,-0.561 0.353,-0.572 0.345,-0.579C0.338,-0.587 0.329,-0.593 0.32,-0.597C0.31,-0.6 0.3,-0.602 0.288,-0.602C0.274,-0.602 0.261,-0.599 0.25,-0.594C0.238,-0.588 0.229,-0.579 0.221,-0.566C0.213,-0.553 0.207,-0.537 0.203,-0.516C0.199,-0.495 0.197,-0.469 0.197,-0.439L0.197,-0.273C0.197,-0.249 0.198,-0.228 0.201,-0.209C0.204,-0.191 0.207,-0.175 0.213,-0.163C0.218,-0.15 0.224,-0.139 0.232,-0.131C0.239,-0.123 0.248,-0.118 0.257,-0.114C0.267,-0.11 0.278,-0.109 0.289,-0.109C0.303,-0.109 0.316,-0.112 0.327,-0.117C0.338,-0.123 0.348,-0.132 0.356,-0.145C0.364,-0.158 0.37,-0.175 0.374,-0.196C0.378,-0.217 0.38,-0.243 0.38,-0.273Z" style="fill:white;fill-rule:nonzero;"/>
        </g>
        <g transform="matrix(608,0,0,608,909.927,555.971)">
        </g>
    </g>
</svg>
