<?xml version="1.0" encoding="UTF-8" standalone="no"?>
<!DOCTYPE svg PUBLIC "-//W3C//DTD SVG 1.1//EN" "http://www.w3.org/Graphics/SVG/1.1/DTD/svg11.dtd">
<svg width="100%" height="100%" viewBox="0 0 1080 1080" version="1.1" xmlns="http://www.w3.org/2000/svg" xmlns:xlink="http://www.w3.org/1999/xlink" xml:space="preserve" xmlns:serif="http://www.serif.com/" style="fill-rule:evenodd;clip-rule:evenodd;stroke-linejoin:round;stroke-miterlimit:2;">
    <g transform="matrix(0.941712,0,0,0.951998,62.9511,51.8421)">
        <rect x="-66.847" y="-54.456" width="1146.85" height="1134.46" style="fill:rgb(18,61,93);"/>
    </g>
    <g transform="matrix(1,0,0,1,-194.493,200.537)">
        <g transform="matrix(608,0,0,608,559.26,555.971)">
            <path d="M0.533,-0.195C0.533,-0.15 0.522,-0.113 0.501,-0.082C0.48,-0.052 0.451,-0.029 0.414,-0.013C0.378,0.002 0.336,0.01 0.289,0.01C0.243,0.01 0.201,0.002 0.164,-0.013C0.127,-0.029 0.097,-0.052 0.076,-0.082C0.054,-0.113 0.044,-0.15 0.044,-0.195C0.044,-0.226 0.05,-0.253 0.062,-0.278C0.074,-0.302 0.092,-0.323 0.114,-0.34C0.136,-0.358 0.162,-0.371 0.191,-0.38C0.221,-0.389 0.253,-0.394 0.288,-0.394C0.335,-0.394 0.377,-0.386 0.414,-0.369C0.451,-0.353 0.48,-0.33 0.501,-0.301C0.522,-0.271 0.533,-0.236 0.533,-0.195ZM0.379,-0.207C0.379,-0.227 0.375,-0.245 0.368,-0.259C0.36,-0.274 0.35,-0.285 0.336,-0.293C0.322,-0.301 0.306,-0.305 0.288,-0.305C0.27,-0.305 0.254,-0.301 0.24,-0.293C0.227,-0.285 0.216,-0.274 0.208,-0.259C0.201,-0.245 0.197,-0.227 0.197,-0.207C0.197,-0.186 0.201,-0.169 0.208,-0.154C0.216,-0.139 0.227,-0.128 0.241,-0.12C0.254,-0.113 0.271,-0.109 0.289,-0.109C0.307,-0.109 0.323,-0.113 0.337,-0.12C0.35,-0.128 0.361,-0.139 0.368,-0.154C0.376,-0.169 0.379,-0.186 0.379,-0.207ZM0.518,-0.522C0.518,-0.485 0.508,-0.453 0.489,-0.425C0.469,-0.397 0.442,-0.376 0.408,-0.36C0.373,-0.344 0.334,-0.337 0.289,-0.337C0.245,-0.337 0.205,-0.344 0.17,-0.36C0.135,-0.376 0.108,-0.397 0.089,-0.425C0.069,-0.453 0.059,-0.485 0.059,-0.522C0.059,-0.565 0.069,-0.601 0.089,-0.631C0.108,-0.66 0.135,-0.683 0.17,-0.698C0.205,-0.713 0.244,-0.721 0.288,-0.721C0.333,-0.721 0.373,-0.713 0.407,-0.698C0.442,-0.683 0.469,-0.66 0.488,-0.631C0.508,-0.601 0.518,-0.565 0.518,-0.522ZM0.365,-0.514C0.365,-0.532 0.362,-0.548 0.356,-0.561C0.35,-0.574 0.342,-0.584 0.33,-0.592C0.319,-0.599 0.305,-0.603 0.288,-0.603C0.272,-0.603 0.258,-0.599 0.247,-0.592C0.236,-0.585 0.227,-0.575 0.221,-0.562C0.215,-0.549 0.212,-0.533 0.212,-0.514C0.212,-0.496 0.215,-0.48 0.221,-0.467C0.227,-0.453 0.236,-0.442 0.247,-0.435C0.259,-0.427 0.273,-0.423 0.289,-0.423C0.306,-0.423 0.32,-0.427 0.331,-0.435C0.342,-0.442 0.351,-0.453 0.356,-0.467C0.362,-0.48 0.365,-0.496 0.365,-0.514Z" style="fill:white;fill-rule:nonzero;"/>
        </g>
        <g transform="matrix(608,0,0,608,909.927,555.971)">
        </g>
    </g>
</svg>
