<?xml version="1.0" encoding="UTF-8" standalone="no"?>
<!DOCTYPE svg PUBLIC "-//W3C//DTD SVG 1.1//EN" "http://www.w3.org/Graphics/SVG/1.1/DTD/svg11.dtd">
<svg width="100%" height="100%" viewBox="0 0 1080 1080" version="1.1" xmlns="http://www.w3.org/2000/svg" xmlns:xlink="http://www.w3.org/1999/xlink" xml:space="preserve" xmlns:serif="http://www.serif.com/" style="fill-rule:evenodd;clip-rule:evenodd;stroke-linejoin:round;stroke-miterlimit:2;">
    <g transform="matrix(0.941712,0,0,0.951998,62.9511,51.8421)">
        <rect x="-66.847" y="-54.456" width="1146.85" height="1134.46" style="fill:rgb(18,61,93);"/>
    </g>
    <g transform="matrix(1,0,0,1,-198.67,200.537)">
        <g transform="matrix(608,0,0,608,559.26,555.971)">
            <path d="M0.413,-0.72L0.437,-0.72L0.437,-0.599L0.428,-0.599C0.394,-0.599 0.362,-0.594 0.334,-0.584C0.306,-0.574 0.282,-0.56 0.261,-0.541C0.241,-0.522 0.225,-0.498 0.214,-0.47C0.203,-0.442 0.198,-0.411 0.198,-0.375L0.198,-0.253C0.198,-0.229 0.2,-0.208 0.204,-0.19C0.209,-0.172 0.215,-0.157 0.224,-0.145C0.233,-0.133 0.243,-0.124 0.255,-0.118C0.268,-0.112 0.282,-0.109 0.298,-0.109C0.312,-0.109 0.324,-0.112 0.336,-0.118C0.348,-0.124 0.358,-0.133 0.366,-0.144C0.375,-0.156 0.381,-0.169 0.386,-0.184C0.39,-0.199 0.392,-0.216 0.392,-0.234C0.392,-0.253 0.39,-0.27 0.385,-0.285C0.381,-0.301 0.374,-0.314 0.365,-0.325C0.357,-0.336 0.346,-0.345 0.334,-0.351C0.322,-0.357 0.308,-0.36 0.293,-0.36C0.271,-0.36 0.253,-0.355 0.237,-0.345C0.222,-0.335 0.21,-0.323 0.201,-0.308C0.193,-0.292 0.188,-0.277 0.188,-0.261L0.147,-0.294C0.147,-0.317 0.152,-0.339 0.161,-0.36C0.17,-0.382 0.182,-0.402 0.199,-0.419C0.216,-0.437 0.236,-0.451 0.26,-0.462C0.285,-0.472 0.312,-0.477 0.344,-0.477C0.377,-0.477 0.406,-0.471 0.431,-0.459C0.456,-0.446 0.477,-0.429 0.494,-0.407C0.511,-0.384 0.524,-0.359 0.532,-0.329C0.541,-0.3 0.545,-0.268 0.545,-0.235C0.545,-0.2 0.539,-0.168 0.528,-0.138C0.516,-0.109 0.499,-0.083 0.478,-0.061C0.456,-0.038 0.43,-0.021 0.401,-0.009C0.371,0.004 0.338,0.01 0.301,0.01C0.264,0.01 0.229,0.003 0.198,-0.01C0.167,-0.024 0.14,-0.043 0.117,-0.068C0.094,-0.092 0.076,-0.122 0.064,-0.157C0.051,-0.192 0.045,-0.231 0.045,-0.274L0.045,-0.331C0.045,-0.391 0.054,-0.444 0.073,-0.492C0.091,-0.539 0.117,-0.58 0.15,-0.614C0.183,-0.648 0.222,-0.674 0.267,-0.692C0.311,-0.711 0.36,-0.72 0.413,-0.72Z" style="fill:white;fill-rule:nonzero;"/>
        </g>
        <g transform="matrix(608,0,0,608,909.927,555.971)">
        </g>
    </g>
</svg>
