<?xml version="1.0" encoding="UTF-8" standalone="no"?>
<!DOCTYPE svg PUBLIC "-//W3C//DTD SVG 1.1//EN" "http://www.w3.org/Graphics/SVG/1.1/DTD/svg11.dtd">
<svg width="100%" height="100%" viewBox="0 0 1080 1080" version="1.1" xmlns="http://www.w3.org/2000/svg" xmlns:xlink="http://www.w3.org/1999/xlink" xml:space="preserve" xmlns:serif="http://www.serif.com/" style="fill-rule:evenodd;clip-rule:evenodd;stroke-linejoin:round;stroke-miterlimit:2;">
    <g transform="matrix(0.941712,0,0,0.951998,62.9511,51.8421)">
        <rect x="-66.847" y="-54.456" width="1146.85" height="1134.46" style="fill:rgb(18,61,93);"/>
    </g>
    <g transform="matrix(1,0,0,1,-192.41,200.537)">
        <g transform="matrix(608,0,0,608,559.26,555.971)">
            <path d="M0.538,-0.118L0.538,-0L0.046,-0L0.046,-0.101L0.276,-0.344C0.297,-0.368 0.314,-0.39 0.327,-0.409C0.34,-0.428 0.35,-0.445 0.355,-0.461C0.361,-0.476 0.364,-0.491 0.364,-0.504C0.364,-0.525 0.361,-0.542 0.354,-0.557C0.348,-0.572 0.338,-0.583 0.325,-0.591C0.313,-0.599 0.297,-0.603 0.279,-0.603C0.259,-0.603 0.243,-0.598 0.229,-0.587C0.215,-0.577 0.204,-0.563 0.196,-0.546C0.189,-0.528 0.185,-0.508 0.185,-0.486L0.032,-0.486C0.032,-0.529 0.042,-0.568 0.063,-0.604C0.084,-0.639 0.113,-0.668 0.15,-0.689C0.188,-0.71 0.232,-0.721 0.282,-0.721C0.333,-0.721 0.376,-0.713 0.411,-0.697C0.446,-0.681 0.472,-0.657 0.49,-0.627C0.508,-0.597 0.517,-0.56 0.517,-0.518C0.517,-0.494 0.513,-0.47 0.506,-0.448C0.498,-0.425 0.487,-0.403 0.473,-0.381C0.458,-0.359 0.441,-0.336 0.421,-0.313C0.401,-0.29 0.378,-0.266 0.353,-0.241L0.245,-0.118L0.538,-0.118Z" style="fill:white;fill-rule:nonzero;"/>
        </g>
        <g transform="matrix(608,0,0,608,909.927,555.971)">
        </g>
    </g>
</svg>
