<?xml version="1.0" encoding="UTF-8" standalone="no"?>
<!DOCTYPE svg PUBLIC "-//W3C//DTD SVG 1.1//EN" "http://www.w3.org/Graphics/SVG/1.1/DTD/svg11.dtd">
<svg width="100%" height="100%" viewBox="0 0 24 24" version="1.1" xmlns="http://www.w3.org/2000/svg" xmlns:xlink="http://www.w3.org/1999/xlink" xml:space="preserve" xmlns:serif="http://www.serif.com/" style="fill-rule:evenodd;clip-rule:evenodd;stroke-linejoin:round;stroke-miterlimit:2;">
    <g>
        <path d="M12,9.455L16,13.455L14.6,14.855L13,13.255L13,17.455L11,17.455L11,13.255L9.4,14.855L8,13.455L12,9.455ZM5,8L5,19L19,19L19,8L5,8ZM5,21C4.45,21 3.979,20.804 3.588,20.413C3.196,20.021 3,19.55 3,19L3,6.525C3,6.292 3.038,6.067 3.112,5.85C3.188,5.633 3.3,5.433 3.45,5.25L4.7,3.725C4.883,3.492 5.113,3.313 5.388,3.188C5.662,3.063 5.95,3 6.25,3L17.75,3C18.05,3 18.338,3.063 18.613,3.188C18.888,3.313 19.117,3.492 19.3,3.725L20.55,5.25C20.7,5.433 20.813,5.633 20.888,5.85C20.962,6.067 21,6.292 21,6.525L21,19C21,19.55 20.804,20.021 20.413,20.413C20.021,20.804 19.55,21 19,21L5,21ZM5.4,6L18.6,6L17.75,5L6.25,5L5.4,6Z" style="fill:rgb(27,28,29);fill-rule:nonzero;"/>
    </g>
</svg>
