<svg width="28" height="28" viewBox="0 0 28 28" fill="none" xmlns="http://www.w3.org/2000/svg">
<mask id="mask0_390_6961" style="mask-type:alpha" maskUnits="userSpaceOnUse" x="0" y="0" width="28" height="28">
<rect width="28" height="28" fill="#D9D9D9"/>
</mask>
<g mask="url(#mask0_390_6961)">
<path d="M14.0013 18.6667C15.4596 18.6667 16.6992 18.1563 17.7201 17.1355C18.7409 16.1147 19.2513 14.8751 19.2513 13.4167C19.2513 11.9584 18.7409 10.7188 17.7201 9.698C16.6992 8.67716 15.4596 8.16675 14.0013 8.16675C12.543 8.16675 11.3034 8.67716 10.2826 9.698C9.26172 10.7188 8.7513 11.9584 8.7513 13.4167C8.7513 14.8751 9.26172 16.1147 10.2826 17.1355C11.3034 18.1563 12.543 18.6667 14.0013 18.6667ZM14.0013 16.5667C13.1263 16.5667 12.3826 16.2605 11.7701 15.648C11.1576 15.0355 10.8513 14.2917 10.8513 13.4167C10.8513 12.5417 11.1576 11.798 11.7701 11.1855C12.3826 10.573 13.1263 10.2667 14.0013 10.2667C14.8763 10.2667 15.6201 10.573 16.2326 11.1855C16.8451 11.798 17.1513 12.5417 17.1513 13.4167C17.1513 14.2917 16.8451 15.0355 16.2326 15.648C15.6201 16.2605 14.8763 16.5667 14.0013 16.5667ZM14.0013 22.1667C11.1624 22.1667 8.5763 21.3744 6.24297 19.7897C3.90964 18.2049 2.21797 16.0806 1.16797 13.4167C2.21797 10.7529 3.90964 8.62855 6.24297 7.04383C8.5763 5.45911 11.1624 4.66675 14.0013 4.66675C16.8402 4.66675 19.4263 5.45911 21.7596 7.04383C24.093 8.62855 25.7846 10.7529 26.8346 13.4167C25.7846 16.0806 24.093 18.2049 21.7596 19.7897C19.4263 21.3744 16.8402 22.1667 14.0013 22.1667ZM14.0013 19.8334C16.1985 19.8334 18.2159 19.2549 20.0534 18.098C21.8909 16.9411 23.2957 15.3806 24.268 13.4167C23.2957 11.4529 21.8909 9.89244 20.0534 8.7355C18.2159 7.57855 16.1985 7.00008 14.0013 7.00008C11.8041 7.00008 9.78672 7.57855 7.94922 8.7355C6.11172 9.89244 4.70686 11.4529 3.73464 13.4167C4.70686 15.3806 6.11172 16.9411 7.94922 18.098C9.78672 19.2549 11.8041 19.8334 14.0013 19.8334Z" fill="#1B1C1D"/>
</g>
</svg>
