<?xml version="1.0" encoding="UTF-8" standalone="no"?>
<!DOCTYPE svg PUBLIC "-//W3C//DTD SVG 1.1//EN" "http://www.w3.org/Graphics/SVG/1.1/DTD/svg11.dtd">
<svg width="100%" height="100%" viewBox="0 0 17 18" version="1.1" xmlns="http://www.w3.org/2000/svg" xmlns:xlink="http://www.w3.org/1999/xlink" xml:space="preserve" xmlns:serif="http://www.serif.com/" style="fill-rule:evenodd;clip-rule:evenodd;stroke-linejoin:round;stroke-miterlimit:2;">
    <path d="M8.905,0.774C9.071,0.772 9.238,0.77 9.41,0.768C10.892,0.764 12.096,0.87 13.261,1.877C13.407,2 13.552,2.124 13.701,2.251C13.845,2.375 13.989,2.499 14.137,2.627C14.294,2.747 14.45,2.867 14.611,2.991C15.767,3.955 16.452,5.338 16.685,6.81C16.878,9.813 16.43,12.755 14.508,15.177C13.582,16.085 12.687,16.598 11.419,16.87C11.285,16.9 11.151,16.929 11.013,16.96C8.335,17.505 5.824,17.281 3.433,15.87C1.746,14.717 0.611,13.309 0.175,11.304C-0.295,8.49 0.161,6.739 1.784,4.423C3.602,2.072 5.982,0.776 8.905,0.774Z" style="fill:rgb(18,61,93);fill-rule:nonzero;"/>
    <path d="M5.402,6.083C5.894,6.1 6.378,6.126 6.869,6.163C7.346,6.196 7.822,6.23 8.314,6.265C8.404,7.795 8.404,7.795 8.496,9.357L5.22,9.357C5.216,8.85 5.212,8.344 5.208,7.822C5.207,7.662 5.205,7.503 5.203,7.338C5.202,6.98 5.21,6.623 5.22,6.265C5.28,6.205 5.34,6.145 5.402,6.083Z" style="fill:rgb(249,249,250);fill-rule:nonzero;"/>
    <path d="M2.854,5.174C3.395,5.414 3.936,5.654 4.492,5.901C4.511,7.013 4.505,8.079 4.31,9.175C3.962,9.18 3.613,9.184 3.264,9.186C2.973,9.19 2.973,9.19 2.675,9.193C2.211,9.178 1.839,9.129 1.398,8.993C1.298,7.834 1.595,6.933 2.126,5.901C2.536,5.424 2.536,5.424 2.854,5.174Z" style="fill:rgb(249,249,250);fill-rule:nonzero;"/>
    <path d="M1.398,9.902C1.88,9.928 2.362,9.955 2.843,9.982C3.049,9.993 3.049,9.993 3.259,10.004C4.29,10.064 4.29,10.064 4.492,10.266C4.536,10.756 4.569,11.242 4.595,11.733C4.603,11.87 4.611,12.008 4.619,12.151C4.638,12.492 4.656,12.834 4.674,13.176C3.71,13.724 3.71,13.724 3.186,13.715C2.444,13.322 2.104,12.454 1.762,11.721C1.59,11.119 1.475,10.524 1.398,9.902Z" style="fill:rgb(249,249,250);fill-rule:nonzero;"/>
    <path d="M11.953,6.083C12.225,6.626 12.159,7.128 12.158,7.731C12.159,8.078 12.159,8.078 12.159,8.431C12.135,8.993 12.135,8.993 11.953,9.175C11.492,9.188 11.037,9.192 10.577,9.186C10.13,9.183 9.683,9.179 9.223,9.175C9.163,8.215 9.103,7.254 9.041,6.265C9.353,6.235 9.664,6.205 9.985,6.174C10.16,6.157 10.336,6.14 10.516,6.123C10.998,6.087 11.47,6.076 11.953,6.083Z" style="fill:rgb(249,249,250);fill-rule:nonzero;"/>
    <path d="M5.219,10.266L8.495,10.266C8.655,11.811 8.655,11.811 8.677,12.266C8.369,12.573 7.958,12.566 7.539,12.641C7.366,12.674 7.192,12.706 7.013,12.739C6.493,12.812 6.493,12.812 5.583,12.812C5.463,11.972 5.343,11.131 5.219,10.266Z" style="fill:rgb(249,249,250);fill-rule:nonzero;"/>
    <path d="M14.501,4.991C15.337,7.262 15.337,7.262 15.229,8.447C14.386,8.928 14.074,8.992 13.045,8.992C12.985,7.852 12.925,6.712 12.863,5.537C13.955,4.991 13.955,4.991 14.501,4.991Z" style="fill:rgb(249,249,250);fill-rule:nonzero;"/>
    <path d="M8.132,1.899L8.132,5.355C6.871,5.265 6.871,5.265 5.584,5.173C5.665,4.054 5.884,3.042 6.494,2.081C7.04,1.899 7.04,1.899 8.132,1.899Z" style="fill:rgb(249,249,250);fill-rule:nonzero;"/>
    <path d="M8.86,2.082C9.465,2.052 9.465,2.052 10.134,2.082C10.807,2.724 11.232,3.4 11.59,4.264L11.59,4.992C10.761,5.419 9.955,5.437 9.042,5.356C8.86,5.174 8.86,5.174 8.842,4.48C8.843,4.192 8.845,3.904 8.848,3.617C8.849,3.47 8.85,3.323 8.851,3.172C8.853,2.809 8.856,2.445 8.86,2.082Z" style="fill:rgb(249,249,250);fill-rule:nonzero;"/>
    <path d="M8.861,13.357L8.861,15.722C7.119,15.748 7.119,15.748 6.313,15.54C6.054,14.845 5.905,14.283 5.949,13.539C6.889,13.226 7.877,13.348 8.861,13.357Z" style="fill:rgb(249,249,250);fill-rule:nonzero;"/>
    <path d="M12.136,9.902C12.141,10.262 12.144,10.622 12.147,10.982C12.149,11.182 12.151,11.383 12.153,11.589C12.136,12.084 12.136,12.084 11.954,12.266C11.56,12.284 11.165,12.29 10.771,12.289C10.555,12.289 10.339,12.29 10.117,12.29C9.588,12.266 9.588,12.266 9.406,12.084C9.393,11.747 9.39,11.41 9.394,11.073C9.396,10.889 9.398,10.705 9.399,10.515C9.401,10.373 9.404,10.23 9.406,10.084C10.325,9.895 11.203,9.883 12.136,9.902Z" style="fill:rgb(249,249,250);fill-rule:nonzero;"/>
    <path d="M15.228,9.356C15.057,10.587 14.877,11.695 14.318,12.812C13.249,12.471 13.249,12.471 13.044,12.266C13.031,11.839 13.029,11.41 13.033,10.982C13.035,10.747 13.036,10.513 13.038,10.271C13.04,10.089 13.042,9.907 13.044,9.72C13.27,9.66 13.495,9.6 13.727,9.538C13.854,9.505 13.98,9.471 14.111,9.436C14.5,9.356 14.5,9.356 15.228,9.356Z" style="fill:rgb(249,249,250);fill-rule:nonzero;"/>
    <path d="M9.588,13.176L11.772,13.176C11.665,14.057 11.412,14.741 11.044,15.54C10.62,15.548 10.195,15.548 9.77,15.54C9.588,15.358 9.588,15.358 9.57,14.863C9.576,14.301 9.582,13.738 9.588,13.176Z" style="fill:rgb(249,249,250);fill-rule:nonzero;"/>
    <path d="M5.402,2.445C5.631,3.133 5.489,3.361 5.231,4.025C5.162,4.206 5.093,4.387 5.021,4.573C4.967,4.711 4.912,4.849 4.856,4.992C4.315,4.902 4.315,4.902 3.764,4.81C3.764,4.03 3.788,3.961 4.276,3.423C4.418,3.262 4.418,3.262 4.563,3.098C4.856,2.809 4.856,2.809 5.402,2.445Z" style="fill:rgb(249,249,250);fill-rule:nonzero;"/>
    <path d="M11.59,2.627C12.338,2.891 12.943,3.266 13.592,3.718C13.532,3.958 13.472,4.198 13.41,4.446C13.11,4.506 12.809,4.566 12.5,4.628C12.347,4.363 12.196,4.098 12.045,3.832C11.918,3.61 11.918,3.61 11.789,3.384C11.59,2.991 11.59,2.991 11.59,2.627Z" style="fill:rgb(249,249,250);fill-rule:nonzero;"/>
    <path d="M5.037,14.085C5.097,14.445 5.157,14.805 5.219,15.176C4.685,15.028 4.685,15.028 4.127,14.813C4.067,14.632 4.007,14.452 3.945,14.267C4.309,14.085 4.309,14.085 5.037,14.085Z" style="fill:rgb(249,249,250);fill-rule:nonzero;"/>
    <path d="M12.682,13.54C13.132,13.63 13.132,13.63 13.592,13.722C13.341,14.086 13.341,14.086 13.046,14.449L12.682,14.449L12.682,13.54Z" style="fill:rgb(249,249,250);fill-rule:nonzero;"/>
</svg>
