<svg width="17" height="18" viewBox="0 0 17 18" fill="none" xmlns="http://www.w3.org/2000/svg">
<path d="M8.90468 0.774394C9.07148 0.772167 9.23829 0.76994 9.41015 0.767645C10.8916 0.764477 12.0958 0.870037 13.2613 1.87701C13.4065 2.00033 13.5517 2.12365 13.7014 2.25071C13.8452 2.37497 13.989 2.49922 14.1372 2.62725C14.2937 2.74728 14.4501 2.86732 14.6114 2.991C15.7665 3.95512 16.4517 5.33808 16.6852 6.81037C16.8778 9.81313 16.4297 12.7552 14.5083 15.1766C13.5815 16.085 12.6867 16.5981 11.4186 16.8703C11.2848 16.8999 11.151 16.9294 11.0131 16.9598C8.33493 17.5045 5.82352 17.2809 3.4333 15.87C1.7464 14.7175 0.610683 13.3092 0.175074 11.304C-0.294753 8.49 0.161179 6.73946 1.78393 4.42326C3.60184 2.07246 5.98193 0.776414 8.90468 0.774394Z" fill="#0F696D"/>
<path d="M5.40165 6.08301C5.89369 6.09956 6.37848 6.1262 6.86903 6.16258C7.34575 6.19634 7.82248 6.2301 8.31365 6.26488C8.40374 7.79536 8.40374 7.79536 8.49565 9.35676C7.41457 9.35676 6.33349 9.35676 5.21965 9.35676C5.2159 8.85035 5.21215 8.34394 5.20828 7.82219C5.20662 7.66243 5.20496 7.50266 5.20326 7.33806C5.20196 6.9803 5.21049 6.62253 5.21965 6.26488C5.27971 6.20486 5.33977 6.14485 5.40165 6.08301Z" fill="#F9F9FA"/>
<path d="M2.85442 5.17383C3.39496 5.4139 3.9355 5.65398 4.49242 5.90133C4.51052 7.01275 4.50539 8.07911 4.31042 9.17508C3.9616 9.18001 3.61276 9.18353 3.26392 9.18645C2.97253 9.18961 2.97253 9.18961 2.67526 9.19284C2.21129 9.17782 1.83898 9.12891 1.39842 8.9932C1.29751 7.83357 1.59509 6.93275 2.12642 5.90133C2.53592 5.42391 2.53592 5.42391 2.85442 5.17383Z" fill="#F9F9FA"/>
<path d="M1.39844 9.90234C1.88005 9.92785 2.36155 9.95452 2.84306 9.98191C3.04911 9.99264 3.04911 9.99264 3.25932 10.0036C4.28982 10.0636 4.28982 10.0636 4.49244 10.2661C4.53553 10.7558 4.56924 11.2418 4.59481 11.7325C4.60267 11.8704 4.61053 12.0084 4.61863 12.1506C4.63799 12.4924 4.65631 12.8342 4.67444 13.1761C3.70986 13.7238 3.70986 13.7238 3.18573 13.7153C2.44372 13.3223 2.10373 12.4544 1.76244 11.7211C1.58952 11.1187 1.47519 10.5239 1.39844 9.90234Z" fill="#F9F9FA"/>
<path d="M11.953 6.08312C12.2248 6.62635 12.159 7.12781 12.1578 7.73136C12.1585 8.07776 12.1585 8.07776 12.1592 8.43116C12.135 8.99312 12.135 8.99312 11.953 9.175C11.4921 9.18831 11.0374 9.19178 10.5766 9.18636C10.1299 9.18261 9.68325 9.17886 9.22302 9.175C9.16296 8.2147 9.1029 7.2544 9.04102 6.265C9.35258 6.23499 9.66414 6.20498 9.98514 6.17406C10.1604 6.15718 10.3356 6.1403 10.5162 6.12291C10.9979 6.08653 11.4703 6.07607 11.953 6.08312Z" fill="#F9F9FA"/>
<path d="M5.21875 10.2656C6.29983 10.2656 7.38091 10.2656 8.49475 10.2656C8.65471 11.8109 8.65471 11.8109 8.67675 12.2663C8.36926 12.5735 7.95808 12.5658 7.53925 12.6414C7.36564 12.6735 7.19203 12.7056 7.01316 12.7387C6.49275 12.8119 6.49275 12.8119 5.58275 12.8119C5.46263 11.9716 5.34251 11.1314 5.21875 10.2656Z" fill="#F9F9FA"/>
<path d="M14.5013 4.99121C15.3371 7.26196 15.3371 7.26196 15.2293 8.44684C14.3862 8.92825 14.0736 8.99246 13.0453 8.99246C12.9852 7.8521 12.9252 6.71175 12.8633 5.53684C13.9553 4.99121 13.9553 4.99121 14.5013 4.99121Z" fill="#F9F9FA"/>
<path d="M8.13198 1.89941C8.13198 3.03977 8.13198 4.18013 8.13198 5.35504C6.87072 5.26501 6.87072 5.26501 5.58398 5.17316C5.66541 4.05429 5.8839 3.04204 6.49398 2.08129C7.03998 1.89941 7.03998 1.89941 8.13198 1.89941Z" fill="#F9F9FA"/>
<path d="M8.85957 2.08195C9.46529 2.05211 9.46529 2.05211 10.1336 2.08195C10.8066 2.72395 11.2324 3.40026 11.5896 4.26445C11.5896 4.50452 11.5896 4.7446 11.5896 4.99195C10.7608 5.41942 9.95478 5.43678 9.04157 5.3557C8.85957 5.17382 8.85957 5.17382 8.8418 4.47972C8.84301 4.19198 8.84519 3.90424 8.8482 3.61652C8.84902 3.46987 8.84984 3.32322 8.85068 3.17213C8.85284 2.80873 8.8561 2.44534 8.85957 2.08195Z" fill="#F9F9FA"/>
<path d="M8.86099 13.3574C8.86099 14.1377 8.86099 14.9179 8.86099 15.7218C7.11899 15.7478 7.11899 15.7478 6.31299 15.5399C6.05408 14.8446 5.90523 14.2826 5.94899 13.5393C6.88882 13.2262 7.8769 13.3477 8.86099 13.3574Z" fill="#F9F9FA"/>
<path d="M12.1357 9.90184C12.1406 10.2618 12.1441 10.6218 12.1471 10.9817C12.1492 11.1822 12.1513 11.3826 12.1535 11.5892C12.1357 12.0843 12.1357 12.0843 11.9537 12.2662C11.5597 12.2842 11.1651 12.2898 10.7707 12.289C10.5549 12.2894 10.339 12.2899 10.1166 12.2904C9.5877 12.2662 9.5877 12.2662 9.4057 12.0843C9.39254 11.7474 9.39044 11.4099 9.39432 11.0727C9.39596 10.8886 9.3976 10.7046 9.3993 10.515C9.40141 10.3727 9.40352 10.2303 9.4057 10.0837C10.3248 9.89531 11.2028 9.8832 12.1357 9.90184Z" fill="#F9F9FA"/>
<path d="M15.2284 9.35645C15.0565 10.5873 14.8771 11.6954 14.3184 12.8121C13.2491 12.4711 13.2491 12.4711 13.0444 12.2664C13.0311 11.8385 13.0291 11.4101 13.033 10.982C13.0346 10.7473 13.0363 10.5126 13.038 10.2708C13.0401 10.0891 13.0422 9.9074 13.0444 9.7202C13.2696 9.66018 13.4948 9.60016 13.7269 9.53832C13.8536 9.50456 13.9803 9.4708 14.1108 9.43602C14.5004 9.35645 14.5004 9.35645 15.2284 9.35645Z" fill="#F9F9FA"/>
<path d="M9.58809 13.1758C10.3088 13.1758 11.0295 13.1758 11.7721 13.1758C11.6645 14.0573 11.4118 14.7413 11.0441 15.5402C10.6195 15.5479 10.1947 15.5476 9.77009 15.5402C9.58809 15.3583 9.58809 15.3583 9.57031 14.8631C9.57624 14.3007 9.58216 13.7382 9.58809 13.1758Z" fill="#F9F9FA"/>
<path d="M5.40167 2.44531C5.63091 3.13256 5.48919 3.36089 5.23105 4.02535C5.16184 4.20611 5.09263 4.38687 5.02132 4.57311C4.96666 4.7112 4.91199 4.84929 4.85567 4.99156C4.31513 4.90153 4.31513 4.90153 3.76367 4.80969C3.76367 4.0297 3.78823 3.96082 4.27555 3.42289C4.41807 3.26182 4.41807 3.26182 4.56348 3.0975C4.85567 2.80906 4.85567 2.80906 5.40167 2.44531Z" fill="#F9F9FA"/>
<path d="M11.5898 2.62695C12.3378 2.89075 12.9426 3.26554 13.5918 3.7182C13.5318 3.95828 13.4717 4.19835 13.4098 4.4457C13.1095 4.50572 12.8092 4.56574 12.4998 4.62758C12.3472 4.36288 12.1958 4.09752 12.0448 3.83187C11.9182 3.61032 11.9182 3.61032 11.7889 3.38429C11.5898 2.9907 11.5898 2.9907 11.5898 2.62695Z" fill="#F9F9FA"/>
<path d="M5.03731 14.085C5.09737 14.4451 5.15743 14.8052 5.21931 15.1762C4.68469 15.0284 4.68469 15.0284 4.12731 14.8125C4.06725 14.6324 4.00719 14.4523 3.94531 14.2668C4.30931 14.085 4.30931 14.085 5.03731 14.085Z" fill="#F9F9FA"/>
<path d="M12.6816 13.54C13.1321 13.6301 13.1321 13.6301 13.5916 13.7219C13.3414 14.0857 13.3414 14.0857 13.0456 14.4494C12.9255 14.4494 12.8054 14.4494 12.6816 14.4494C12.6816 14.1493 12.6816 13.8492 12.6816 13.54Z" fill="#F9F9FA"/>
</svg>
