<?xml version="1.0" encoding="UTF-8"?>
<svg id="Layer_2" data-name="Layer 2" xmlns="http://www.w3.org/2000/svg" xmlns:xlink="http://www.w3.org/1999/xlink" viewBox="0 0 1220.27 1259.25">
  <defs>
    <style>
      .cls-1 {
        stroke: #2bb673;
      }

      .cls-1, .cls-2, .cls-3, .cls-4, .cls-5, .cls-6, .cls-7, .cls-8, .cls-9, .cls-10, .cls-11, .cls-12, .cls-13 {
        fill: none;
      }

      .cls-1, .cls-3, .cls-14, .cls-4, .cls-5, .cls-6, .cls-7, .cls-8, .cls-15, .cls-9, .cls-10, .cls-11, .cls-12, .cls-16, .cls-17, .cls-13 {
        stroke-miterlimit: 10;
      }

      .cls-1, .cls-9 {
        stroke-width: 3px;
      }

      .cls-18 {
        clip-path: url(#clippath);
      }

      .cls-2, .cls-19, .cls-20, .cls-21, .cls-22, .cls-23, .cls-24, .cls-25, .cls-26, .cls-27, .cls-28, .cls-29, .cls-30, .cls-31, .cls-32, .cls-33 {
        stroke-width: 0px;
      }

      .cls-19, .cls-15 {
        fill: #00979c;
      }

      .cls-3 {
        stroke-width: .7px;
      }

      .cls-3, .cls-5, .cls-8, .cls-17, .cls-13 {
        stroke: #231f20;
      }

      .cls-14 {
        fill: #be9e7d;
      }

      .cls-14, .cls-4, .cls-7, .cls-11 {
        stroke: #603913;
      }

      .cls-14, .cls-8, .cls-11 {
        stroke-width: 1.2px;
      }

      .cls-4, .cls-13 {
        stroke-width: 1.5px;
      }

      .cls-20 {
        fill: #077370;
      }

      .cls-5, .cls-17 {
        stroke-width: 2px;
      }

      .cls-21 {
        fill: #dc3b28;
      }

      .cls-6, .cls-9 {
        stroke: #fff;
      }

      .cls-22 {
        fill: #803435;
      }

      .cls-23 {
        fill: #26130f;
      }

      .cls-24 {
        fill: #c4e7f6;
      }

      .cls-15, .cls-10, .cls-12 {
        stroke: #3c2415;
      }

      .cls-25 {
        fill: #dc796e;
      }

      .cls-26 {
        fill: #fffafc;
      }

      .cls-12 {
        stroke-width: .5px;
      }

      .cls-27, .cls-17 {
        fill: #38386a;
      }

      .cls-16 {
        stroke: #58595b;
        stroke-width: .2px;
      }

      .cls-16, .cls-30 {
        fill: #e6e7e8;
      }

      .cls-28 {
        fill: #b19074;
      }

      .cls-29 {
        fill: #ae8578;
      }

      .cls-31 {
        fill: #db7777;
      }

      .cls-32 {
        fill: #dcbf97;
      }

      .cls-33 {
        fill: #fff;
      }
    </style>
    <clipPath id="clippath">
      <path class="cls-2" d="M1220.27,649.25c0,336.89-273.11,610-610,610S.27,986.14.27,649.25v-164.56l91.01-122.28,94.81-71.77-13.29-189.62L202.05,0h1017.22l1,649.25Z"/>
    </clipPath>
  </defs>
  <g id="Layer_1-2" data-name="Layer 1">
    <circle class="cls-24" cx="610" cy="648.46" r="610"/>
    <g class="cls-18">
      <g>
        <g>
          <path class="cls-32" d="M547.74,967.43s-8.92,66.81,2.16,90.5c11.08,23.7-6.76,49.22-6.76,49.22,0,0-23.85,56.69-45.45,58.39l42.64-557.33"/>
          <path class="cls-32" d="M244.72,259.86s1.42,44.01-21.02,87.02c0,0-5.61,157.07,114.07,169.23,0,0,77.16-49.33,65.07-132.66-1.35-9.29-13.25-19.19-16.78-29.29l-141.33-94.3h-.01Z"/>
          <path class="cls-33" d="M237.98,384.52s75.32,74.17,154.74,16.83l-59.66,174.84-95.08-191.68h0Z"/>
          <path class="cls-32" d="M433.37,65.82s26.24,32.95,25.13,116.15c0,0-2.23,20.1.56,30.71,2.79,10.61.12,28.02.56,40.2,2.46,68.94-28.48,90.46-28.48,90.46,0,0-8.38,22.89-47.46,25.69-39.09,2.79-78.08-7.65-93.16-23.28-15.08-15.64-47-42.05-52.03-67.18,0,0-22.89,6.7-34.06-20.66,0,0-27.92-41.88-3.35-54.72,24.57-12.84,41.32,21.22,41.32,21.22,0,0-45.37-99.37,9.92-142.93,0,0,76.64-65.35,181.06-15.66h-.01Z"/>
          <path class="cls-28" d="M64.1,927.65s215.36,123.99,452.31,12.85l-40.27,461.09s1.32,84.31-14.48,163.52c-15.8,79.2-35.54,263.16-35.54,263.16,0,0-44.76,25.55-113.21,7.66,0,0-78.14,84.39-208.47,17.96,0,0-32.38-165.66-12.64-255.08,0,0,10.32-68.47,5.05-134.9,0,0-84.09-427.68-32.75-536.27h0Z"/>
          <path class="cls-30" d="M361.09,160.99s-34.06-2.85-59.8,14.72c0,0,9.35-24.56,58.68-24.44,0,0,9.07,4.44,1.12,9.72Z"/>
          <path class="cls-30" d="M459.44,166.88c-22.49-7.75-35.02-2.91-35.02-2.91-8.05-5.11.92-9.74.92-9.74,15.37-.36,26.9,1.77,35.5,4.85,0,0-.17,8.22-1.41,7.79h0Z"/>
          <path class="cls-13" d="M200.72,221.85s9.5-14.39,20.15.29c10.65,14.68,11.23,19.58,11.23,19.58,0,0-15.26-23.32-21.3-4.61"/>
          <path class="cls-16" d="M192.67,208.23s18.33-17.92,33.4.81c15.07,18.74,13.03,27.7,13.03,27.7l13.03-.81s-45.84-66.39-3.61-95.95c0,0-12.13-51.18,26.75-60.53,38.88-9.36,55.98-49.03,163.77-6,0,0,6.74-59.18-99.97-69.77,0,0-72.2-7.98-91.34,29.49,0,0-47.36,6.95-57.54,70.48-10.18,63.54,2.47,104.59,2.47,104.59h0Z"/>
          <path class="cls-19" d="M58.79,757.41c11.49-108.65-34.25-61.34-34.25-61.34-69.28-178.36,29.75-270.64,29.75-270.64,48.06-51.19,151.19-74.71,151.19-74.71,29.53,45.24,61.69,75.52,61.69,75.52l60.17,123.8,42.04-125.33,22.57-14.79,19.37-40.45c34.6,14.71,88.85,53.06,88.85,53.06,61.46,44.13,64.61,106.68,64.61,106.68l1.41,217.63s19.59,155.88-14.23,276.27c0,0-29.73-8.62-38.86,2.52-41.61,50.79-162.85,50.28-162.85,50.28-230.88-3.13-308.33-45.02-308.33-45.02"/>
          <path class="cls-20" d="M234.55,322.41s-27.3-3.91-32.66,13.96c-3.44,11.48-34.07,28.93-34.07,28.93,0,0,2.32,42.7,42.11,75.6,0,0,28.16-24.99,57.23-14.66,0,0-58.25-63.27-32.62-103.83h.01Z"/>
          <path class="cls-20" d="M389.75,367.81s32.03,15.36-20.38,56.9c0,0,33.34,3.01,48.26,19.46,0,0,17.13-42.81,6.57-68.55,0,0-13.44-11.37-34.45-7.81Z"/>
          <path class="cls-7" d="M318.92,1835.94s25.06-384.85,1.25-558.69c0,0,31.22-25.76,44.29-81.33"/>
          <path class="cls-23" d="M389.75,367.81s-40.44,4.96-68.06-5.13c0,0-21.78-4.25-44.63-29.22,0,0,29.3,37.65,71.42,40.89.21.02.39.01.6.03,1.94.13,25.94,1.57,42.09-3.71,0,0-.45-1.89-1.42-2.85h0Z"/>
          <path class="cls-3" d="M330.16,115.72s30.83,3.25,45.44,6.49c14.6,3.25,56.79-8.11,56.79-8.11"/>
          <path class="cls-30" d="M375.48,258.42s-19.77,14.98-35.95,17.97c0,0,2.91,6.25,9.75,5.05,0,0,27.34-6.09,42.9.58,0,0,19.83-4.68,38.29,0,0,0,2.14,1.4,6.18.54,0,0-19.33-13.85-18.75-21.35,0,0-16.16,8.37-28.56-3.46,0,0-4.92,2.51-13.86.68h0Z"/>
          <path class="cls-13" d="M400.52,201.12l18.69,40.34s7.96,22.24-10.43,22.79c-15.26.46-16.23-4.29-16.23-4.29"/>
          <path class="cls-10" d="M507.78,1033.22s36.81-147.22,14.55-283.81c0,0,3.51-146.61-3.57-190.47"/>
          <path class="cls-3" d="M332.75,287.87s-3.18-17.19,7-21.65c10.19-4.46,14.65-24.83,14.65-24.83"/>
          <circle class="cls-4" cx="344" cy="189.4" r="33.94"/>
          <circle class="cls-4" cx="451.92" cy="190.31" r="33.94"/>
          <path class="cls-4" d="M417.98,190.31s-17.82-19.19-40.04-.91"/>
          <line class="cls-4" x1="310.07" y1="189.4" x2="213.83" y2="196.51"/>
          <path class="cls-10" d="M350.24,1075.89c26.85-186.73-5.05-388.14-13.08-408.8-8.03-20.65-9.83-117.06-9.83-117.06,0,0,26.68-82.89,42.04-125.33"/>
          <line class="cls-12" x1="267.17" y1="426.23" x2="327.33" y2="550.04"/>
          <g>
            <path class="cls-33" d="M321.3,189.73s-.04-.9.6-1.67c2.12-2.56,7.04-7.39,15.05-7.69,8.97-.33,14.22,7.91,16.02,10.85.31.51.3.96.3.96,0,0,.05.5-.24.86-1.37,1.71-5.97,6.53-14.45,6.98-5.05.27-12.25-2.19-16.9-8.88-.32-.47-.37-1.07-.37-1.4h0Z"/>
            <circle class="cls-23" cx="339.86" cy="190.63" r="9.28"/>
            <circle class="cls-33" cx="333.94" cy="188.96" r="2.55"/>
            <path class="cls-8" d="M353.51,191.21s-11.71-21-31.97-3.21"/>
          </g>
          <g>
            <path class="cls-33" d="M426.07,193.62s-.17-.83.32-1.64c1.6-2.69,5.49-7.88,12.89-9.3,8.29-1.59,14.36,5.32,16.45,7.8.36.43.42.85.42.85,0,0,.12.46-.1.83-1.03,1.79-4.62,6.93-12.44,8.55-4.66.97-11.7-.28-16.98-5.84-.37-.39-.5-.95-.54-1.25h-.02Z"/>
            <circle class="cls-23" cx="443.46" cy="191.78" r="8.7"/>
            <circle class="cls-33" cx="437.46" cy="191.27" r="2.44"/>
            <path class="cls-8" d="M455.92,190.73s-13.49-19.16-29.73,1.64"/>
          </g>
          <g>
            <path class="cls-29" d="M427.31,294.82s-14.78-19.27-34.67-12.35c0,0-15.71-9.53-44.57,11.67,0,0,15.29,18.8,43.77,16.68,28.48-2.13,35.47-16,35.47-16Z"/>
            <path class="cls-22" d="M423.2,296.04s-10.59-10.38-31.28-9.87-40,8.95-40,8.95c0,0,30.44,2.84,38.95,7.6,0,0,15.09-5.42,32.33-6.68h0Z"/>
            <path class="cls-33" d="M414.63,290.71s-14.88-10.84-50.03.06c0,0,30.11-3.32,50.03-.06Z"/>
          </g>
          <path class="cls-15" d="M24.53,696.07c63.56,136.06,174.92,140.34,174.92,140.34,0,0,110.28,7.14,176.67-248.76l18.2-85.3s-81.37-21.41-99.58-21.41c-24.79,0-93.15,179.88-93.15,179.88,0,0-36.04-125.71-83.52-190.59"/>
          <g>
            <path class="cls-32" d="M299.03,480.57s7.54-46,12.62-74.61l-29.48-65.09s11.57-9.89,25.22,5.83,23.91,30.06,23.91,30.06c0,0,47.65-32.28,56.18-27.99,0,0,8.41.52,10.03,6.8s-5.05,13.67-5.05,13.67c0,0,9.03,2.28,12.04,7.31s-.91,12.05-.91,12.05c0,0,17.69,3.93,9.49,21.61,0,0,19.08,2.68,7.86,23.87l-52.66,60.78"/>
            <path class="cls-11" d="M365,386.33l27.45-17.1s14.72-20.72-10.98-21.79l-50.18,29.31s-30.43-52.16-49.13-35.89l29.48,65.09-1.91,16.44"/>
            <path class="cls-14" d="M403.58,388.59s-11.33,13.87-20.54,16.52"/>
            <line class="cls-11" x1="413.07" y1="410.2" x2="401.41" y2="422.56"/>
          </g>
        </g>
        <g>
          <path class="cls-23" d="M838.02,378.03s96.34,158.83,337.87,47.02c0,0-23.04-18.94.74-55.45,64.17-98.51-10.6-154.54-10.6-154.54,0,0,45.61-80.17-38.39-136.02,0,0-32.69-108.47-190.77-67.96,0,0-102.54-14.31-102.57,120.23,0,0-47.58,49.46-12.33,131.25,0,0-38.42,56.94,16.06,115.47h0Z"/>
          <path class="cls-32" d="M1058.39,255.93s-20.64,106.03,39.34,122.45c0,0-12.98,155.27-156.42,159.75,0,0,5.31-106.43-54.93-163.32,0,0,43.02-14.51,43.57-39.49.59-26.44-7.76.82-7.76.82l136.2-80.21"/>
          <path class="cls-32" d="M1065.91,206.45s-105.2-39.17-118.32-133.36c0,0-91.81,1.19-85,100.89,0,0,3.75,19.49.02,29.56,0,0-7.89,25.98,3.76,51.35,17.45,37.97,34.89,65.43,34.89,65.43,0,0,10.72,18.25,40.41,20.03,0,0,20.9.41,48.28-15.37,0,0,68.63-27.31,67.09-66.95,0,0,28.42,20.95,43.77-25.11,0,0,14.52-64.1-34.92-26.46h.02Z"/>
          <path class="cls-23" d="M958.37,160.33s40.98-11.44,59.23,2.43c0,0-13.24-21.66-59.94-12.15,0,0-8.35,5.93.71,9.71h0Z"/>
          <path class="cls-23" d="M861.34,146.49c1.05-2.06,21.67-.93,40.21,4.47,0,0,7.84,6.6-1.51,9.62,0,0-33.12-14.62-39.37-4.02,0,0-1.94-4.99.67-10.07h0Z"/>
          <path class="cls-13" d="M921.41,242.57c-28.77-4.1-11.19-28.05-11.19-28.05l17.6-23.59"/>
          <path class="cls-13" d="M1097.41,219.53s-9.31-28.16-32.44,15.57c0,0,18.89-18.95,21.41-1.94"/>
          <path class="cls-23" d="M924.67,336.86s8.83,8.85,41.18-1.03c0,0,28.26-8.18,51.82-25.58,0,0-30.25,30.91-69.59,34.13,0,0-10.57,2.68-25.13-3.21,0,0,2.27-.15,1.73-4.31h-.01Z"/>
          <path class="cls-31" d="M978.95,265.27s-19.31-6.84-42.88-1.19c0,0-19.97-4.85-38.26-1.57,0,0,.68,32.59,30.87,41.03,30.2,8.44,50.06-19.26,50.27-38.27Z"/>
          <path class="cls-22" d="M973.96,267.37s-.89,28.78-38.29,27.24c-33.96-1.4-33.18-27.01-33.18-27.01,0,0,38.19,3.3,71.47-.23h0Z"/>
          <path class="cls-33" d="M969.31,267.59s-9.82,12.94-38.7,10.35c0,0-17.89.16-24.98-9.64,0,0,37.26,2.34,63.67-.72h.01Z"/>
          <g>
            <path class="cls-33" d="M998.46,186.21s.08-.88-.52-1.66c-1.97-2.59-6.58-7.51-14.4-8.12-8.75-.69-14.22,7.16-16.1,9.96-.32.48-.33.93-.33.93,0,0-.07.49.2.85,1.27,1.73,5.57,6.62,13.85,7.4,4.93.46,12.06-1.65,16.88-8.01.34-.44.4-1.03.42-1.35h0Z"/>
            <circle class="cls-23" cx="980.29" cy="186.34" r="9.08"/>
            <circle class="cls-33" cx="986.14" cy="184.95" r="2.49"/>
            <path class="cls-13" d="M966.91,186.36s12.29-20.06,31.38-1.86"/>
          </g>
          <g>
            <path class="cls-33" d="M895.92,184.7s.2-.81-.24-1.62c-1.46-2.69-5.05-7.92-12.23-9.61-8.04-1.89-14.25,4.62-16.39,6.96-.37.4-.44.82-.44.82,0,0-.13.44.06.82.93,1.79,4.24,6.96,11.82,8.86,4.52,1.14,11.45.19,16.84-5.03.37-.36.52-.9.58-1.2h0Z"/>
            <circle class="cls-23" cx="878.99" cy="182.21" r="8.51"/>
            <circle class="cls-33" cx="884.88" cy="181.95" r="2.38"/>
            <path class="cls-13" d="M866.85,180.67s13.96-18.19,29,2.8"/>
          </g>
          <path class="cls-27" d="M1156.42,792.82s83.23,195.29,71.76,429.53,17.36,332.63,17.36,332.63c0,0-95.98,35.92-145.12,6.43-49.14-29.48-111.43,19.05-111.43,19.05,0,0-35.19,10.36-55.59,5.38-26.13-6.38-40.65-28.11-60.97-24.21-29.76,5.71-90.04,18.79-123.12-19.38,0,0,28.98-49.65,14.63-133.94,0,0-31.64-347.54,61.51-612.38,0,0,99.7,115.18,330.98-3.12h-.01Z"/>
          <path class="cls-27" d="M1172.05,671.26l-15.63,121.56s-210.76,128.02-330.98,3.12c0,0-118.22-69.07-54.64-241.99,0,0-7.4-111.8,66.42-150.45,0,0,43.84-19.02,65.98-37.38,0,0,41.75,35.38,54.24,71.29s19.44,38.49,19.44,38.49c0,0-5.5-32.97,104.19-104.7,0,0,48.9,9.96,77.86,27.63,0,0,46.73,19.02,63.17,65.71"/>
          <path class="cls-26" d="M977.19,840.19s-20.33-223.67,15.82-359.24c0,0,6.65-22.89,28.69-43.86,0,0,45.47-45.28,84.76-60.32,0,0-10.5-4.86-25.38-5.58,0,0-102.79,63.13-104.19,104.7,0,0-28.08-82.12-73.68-109.78,0,0-6.55,6.02-12.6,9.04,0,0,59.2,42.35,70.87,108.46,0,0-10.33,85.67-8.7,357.8,0,0,12.2,2.43,24.43-1.23h-.02Z"/>
          <g>
            <circle class="cls-21" cx="928.19" cy="750.99" r="12.13"/>
            <circle class="cls-25" cx="913.9" cy="751.92" r="12.13"/>
            <circle class="cls-25" cx="935.82" cy="762.66" r="12.13"/>
            <circle class="cls-21" cx="911.2" cy="764.45" r="12.13"/>
            <circle class="cls-25" cx="921.58" cy="774.72" r="12.13"/>
            <circle class="cls-21" cx="931.13" cy="773" r="12.13"/>
          </g>
          <g>
            <circle class="cls-21" cx="928.47" cy="627.83" r="12.13"/>
            <circle class="cls-25" cx="914.17" cy="628.76" r="12.13"/>
            <circle class="cls-25" cx="936.09" cy="639.5" r="12.13"/>
            <circle class="cls-21" cx="911.48" cy="641.29" r="12.13"/>
            <circle class="cls-25" cx="921.86" cy="651.56" r="12.13"/>
            <circle class="cls-21" cx="931.4" cy="649.84" r="12.13"/>
          </g>
          <g>
            <circle class="cls-21" cx="933.68" cy="497.41" r="12.13"/>
            <circle class="cls-25" cx="919.39" cy="498.34" r="12.13"/>
            <circle class="cls-25" cx="941.31" cy="509.08" r="12.13"/>
            <circle class="cls-21" cx="916.7" cy="510.87" r="12.13"/>
            <circle class="cls-25" cx="927.07" cy="521.14" r="12.13"/>
            <circle class="cls-21" cx="936.62" cy="519.42" r="12.13"/>
          </g>
          <g>
            <circle class="cls-21" cx="1008.02" cy="686.52" r="12.13"/>
            <circle class="cls-25" cx="993.73" cy="687.45" r="12.13"/>
            <circle class="cls-25" cx="1015.65" cy="698.19" r="12.13"/>
            <circle class="cls-21" cx="991.04" cy="699.98" r="12.13"/>
            <circle class="cls-25" cx="1001.41" cy="710.25" r="12.13"/>
            <circle class="cls-21" cx="1010.96" cy="708.53" r="12.13"/>
          </g>
          <g>
            <circle class="cls-21" cx="995.67" cy="612.26" r="10.67"/>
            <circle class="cls-21" cx="1003.18" cy="651.23" r="10.67"/>
            <circle class="cls-21" cx="984.22" cy="633.87" r="10.67"/>
            <circle class="cls-21" cx="1024.4" cy="639.51" r="10.67" transform="translate(229.06 1548.24) rotate(-80.78)"/>
            <circle class="cls-21" cx="1019.59" cy="615.6" r="10.67"/>
            <ellipse class="cls-1" cx="1005.47" cy="630.7" rx="12.27" ry="12.79"/>
          </g>
          <g>
            <circle class="cls-21" cx="907.51" cy="683.74" r="10.67"/>
            <circle class="cls-21" cx="915.03" cy="722.71" r="10.67"/>
            <circle class="cls-21" cx="896.06" cy="705.35" r="10.67"/>
            <circle class="cls-21" cx="936.24" cy="710.99" r="10.67"/>
            <circle class="cls-21" cx="931.43" cy="687.08" r="10.67"/>
            <ellipse class="cls-1" cx="917.31" cy="702.18" rx="12.27" ry="12.79"/>
          </g>
          <g>
            <circle class="cls-21" cx="912.73" cy="558.53" r="10.67"/>
            <circle class="cls-21" cx="920.24" cy="597.51" r="10.67"/>
            <circle class="cls-21" cx="901.28" cy="580.15" r="10.67"/>
            <circle class="cls-21" cx="941.46" cy="585.79" r="10.67"/>
            <circle class="cls-21" cx="936.65" cy="561.88" r="10.67"/>
            <ellipse class="cls-1" cx="922.53" cy="576.98" rx="12.27" ry="12.79"/>
          </g>
          <g>
            <circle class="cls-21" cx="999.15" cy="744.05" r="10.67"/>
            <circle class="cls-21" cx="1006.66" cy="783.02" r="10.67"/>
            <circle class="cls-21" cx="987.7" cy="765.67" r="10.67"/>
            <circle class="cls-21" cx="1027.88" cy="771.31" r="10.67" transform="translate(101.88 1662.37) rotate(-80.78)"/>
            <circle class="cls-21" cx="1023.07" cy="747.4" r="10.67" transform="translate(121.44 1637.54) rotate(-80.78)"/>
            <ellipse class="cls-1" cx="1008.95" cy="762.5" rx="12.27" ry="12.79"/>
          </g>
          <g>
            <circle class="cls-21" cx="1013.29" cy="488.29" r="10.67" transform="translate(174.4 1237.59) rotate(-67.5)"/>
            <circle class="cls-21" cx="1020.81" cy="527.26" r="10.67" transform="translate(336.84 1450.43) rotate(-80.78)"/>
            <circle class="cls-21" cx="1001.85" cy="509.91" r="10.67"/>
            <circle class="cls-21" cx="1042.03" cy="515.55" r="10.67"/>
            <circle class="cls-21" cx="1037.22" cy="491.64" r="10.67"/>
            <ellipse class="cls-1" cx="1023.1" cy="506.74" rx="12.27" ry="12.79"/>
          </g>
          <path class="cls-6" d="M1156.42,792.82s-209.96,115.13-330.98,3.12"/>
          <g>
            <circle class="cls-21" cx="1011.55" cy="556.49" r="12.13"/>
            <circle class="cls-25" cx="997.26" cy="557.42" r="12.13"/>
            <circle class="cls-25" cx="1019.17" cy="568.16" r="12.13"/>
            <circle class="cls-21" cx="994.56" cy="569.94" r="12.13"/>
            <circle class="cls-25" cx="1004.94" cy="580.22" r="12.13"/>
            <circle class="cls-21" cx="1014.49" cy="578.5" r="12.13" transform="translate(280.96 1487.22) rotate(-80.78)"/>
          </g>
          <path class="cls-5" d="M825.44,795.94l.91-115.42s-10.16-71.2,4.4-123.83"/>
          <path class="cls-32" d="M930.96,464.16l-9.26-20.57s20.05-46.28,16.45-55.02-4.63-36.51-4.63-36.51c0,0,16.97-40.11-1.54-34.45-18.51,5.66-22.11,22.62-22.11,26.22s-2.57,19.54-2.57,19.54l-8.23-10.28,1.54-13.88c8.74,1.54,10.88-9.59,10.88-9.59l-12.94-6.87c-19.03-.51-21.08,9.26-21.08,9.26l-4.63,26.22c-23.14-1.54-24.17,13.37-24.17,13.37-12.34,3.09-7.2,22.11-7.2,22.11-9.26,1.03-4.11,20.57-4.11,20.57l32.91,48.34,5.14,20.57,16.4,85.89s67.72-1.59,83.65-20.71l-44.52-84.21h.02Z"/>
          <path class="cls-7" d="M898.57,322.75s13.08,5.24,12.86,7.71c-.48,5.2-4.61,10.06-10.8,8.74l-1.54,13.88,8.23,10.28c6.81,2.54,11.9,16.67,11.9,16.67"/>
          <path class="cls-7" d="M935.87,405.89s4.21-14.25.97-28.17c-3.24-13.92-.32-29.46-.32-29.46,0,0,7.12-21.37,3.89-27.84-3.24-6.48-11.33-1.94-11.33-1.94,0,0-16.84,10.36-18.78,19.75s-2.99,25.16-2.99,25.16"/>
          <path class="cls-32" d="M864.82,795.29s94.78,1.15,121.3-15.43l-18.24-77.36-121.57,1.66"/>
          <path class="cls-17" d="M764.17,709.78c24.68-24.68,64.51-4.37,64.51-4.37,27.35-3.33,58.66-7.25,58.66-7.25l23.51-15.53,2.53,33.84s-17.38,10.73-7.07,21.72c10.3,10.98,8.08,32.32,8.08,32.32-7.58,15.66-10.61,31.82-10.61,31.82l-38.95-7.04c-163.06,23.98-144.57-51.14-144.57-51.14-21.64-122.94,72.78-294.07,72.78-294.07,0,0,11.71-29.53,38.59-41.85"/>
          <path class="cls-17" d="M1146.93,423.41c-58.47-23.77-128.51,225.53-128.51,225.53l-37.1-66.64,7.11-43.55s-41.96-2.53-47.1,7.11c-5.14,9.64-28.6,12.66-28.6,12.66,0,0-26,1.31-36.28.67s-11.55,17.77-11.55,17.77l31.1,28.44s3.16,178.81,110.66,188.28,193.22-190.01,203.53-224.18c14.86-49.25,11.91-104.98,11.91-104.98"/>
          <path class="cls-9" d="M900.95,605.78s41.35,12.02,71.64-16.71"/>
        </g>
      </g>
    </g>
  </g>
</svg>