<?xml version="1.0" encoding="UTF-8"?>
<svg id="Layer_1" data-name="Layer 1" xmlns="http://www.w3.org/2000/svg" viewBox="0 0 1220 1220.49">
  <defs>
    <style>
      .cls-1 {
        fill: #00979c;
      }

      .cls-2 {
        fill: #f6ac1b;
      }

      .cls-3 {
        fill: #f05380;
      }

      .cls-4 {
        fill: #fff;
      }

      .cls-5 {
        fill: #803435;
      }

      .cls-6 {
        fill: #ae8578;
      }

      .cls-7 {
        fill: #be9e7d;
      }

      .cls-8 {
        fill: #c4e7f6;
      }

      .cls-9 {
        fill: #dcbf97;
      }

      .cls-10 {
        fill: #d3b694;
      }

      .cls-11 {
        fill: #db7777;
      }

      .cls-12 {
        fill: #dc9627;
      }

      .cls-13 {
        fill: #231f20;
      }

      .cls-14 {
        fill: #3ab4b4;
      }

      .cls-15 {
        fill: #26130f;
      }

      .cls-16 {
        fill: #414042;
      }

      .cls-16, .cls-17, .cls-18, .cls-19, .cls-20, .cls-21, .cls-22, .cls-23, .cls-24, .cls-25 {
        stroke-miterlimit: 10;
      }

      .cls-16, .cls-19, .cls-24, .cls-25 {
        stroke: #231f20;
      }

      .cls-17, .cls-18 {
        stroke-width: 2px;
      }

      .cls-17, .cls-18, .cls-19, .cls-20, .cls-21, .cls-22, .cls-23, .cls-24, .cls-25 {
        fill: none;
      }

      .cls-17, .cls-20 {
        stroke: #603913;
      }

      .cls-18 {
        stroke: #fff;
      }

      .cls-21 {
        stroke: #754c29;
      }

      .cls-22 {
        stroke: #be1e2d;
      }

      .cls-23 {
        stroke: #f7d9a4;
      }

      .cls-24 {
        stroke-width: 1.2px;
      }

      .cls-25 {
        stroke-width: 1.2px;
      }
    </style>
  </defs>
  <circle class="cls-8" cx="610" cy="610" r="610"/>
  <g>
    <rect class="cls-16" x="493.78" y="541.88" width="96.57" height="124.16" rx="4.84" ry="4.84" transform="translate(1084.14 1207.92) rotate(-180)"/>
    <path class="cls-10" d="M475.27,621.77s9.16,96.03,16.05,102.79l138.37-63.48s1.19-45.98,42.55-56.63c0,0,11.22-1.79,23.52-18.1,12.3-16.31,34.81-12.88,34.81-12.88,0,0,11.04,4.61-.91,20.07-11.95,15.46-29.01,13.32-36.35,29.7l125.27,6.96s20.32,1.51,18.5,14.21c-1.82,12.71-27.16,4.11-27.16,4.11l-42.71,21.05s-27.3,41.46-99.4,33.77l-160.29,142.34s-51.5,37.12-82.99,16.98l-81.6-82.24s13.3-37.63-3.65-73.68l135.98-84.98Z"/>
    <path class="cls-9" d="M202.36,265.4s-1.76,65.01-23.89,101.01c0,0-38.53,176.66,106.06,199.66,0,0,111.94-15.4,64.12-163.99,0,0-24.82-13.51-22.17-38.86,2.81-26.84,3.4,.89,3.4,.89l-127.52-98.71"/>
    <path class="cls-9" d="M195.21,213.97s18.62-135.13,140.83-133.15c0,0,102.62,11.27,67.78,136.07,0,0-5.21,13.19-2.92,23.9,0,0,10.8,17.13-8.15,55.32-18.95,38.19-45.43,58.97-45.43,58.97,0,0-16.05,14.8-46.28,12.25,0,0-24.17,.63-49.51-19.31,0,0-62.28-40.9-54.93-80.7,0,0-31.76,17-40.52-31.76,0,0-5.28-66.84,39.13-21.6Z"/>
    <path class="cls-3" d="M41.06,830.3l97.07-182.38c-86.44,17.5-133.94-1.35-133.94-1.35,0,0-34.52-185.78,97.3-246.33,51.04-23.44,79.99-30.63,79.99-30.63-7.19,70.25,23.12,116.92,23.12,116.92,91.01,64.84,144.77,14.74,144.77,14.74,9.96-28.13,3.57-102.79,3.57-102.79,18.26,12.33,41.11,29.95,41.11,29.95,69,33.93,68.53,96.36,68.53,96.36l12.69,96.98-17.98,33.88c-3.2,49.12-30.54,67.15-30.54,67.15-7.84,102.42,.05,270.99,.05,270.99-57.37,42.26-170.79,39.5-170.79,39.5-99.34-20.21-175.6-119.52-175.6-119.52,0,0-26.76-45.34-39.35-83.47Z"/>
    <path class="cls-15" d="M311.05,181.54s-40.66-15.18-60.42-2.66c0,0,15.34-20.87,61.99-7.15,0,0,7.98,6.76-1.57,9.81Z"/>
    <path class="cls-15" d="M410.78,185.88c-.51-2.3-21.15-6.51-40.84-5.98,0,0-9.44,4.49-1,9.88,0,0,36.47-5.87,39.89,6.2,0,0,3.2-4.43,1.94-10.11Z"/>
    <path class="cls-24" d="M351.32,244.91s14.38,27-15.54,26.93"/>
    <path class="cls-24" d="M162.81,226.84s11.07-22.16,24.95,16.76c0,0-13.35-17.93-17.47-4.17"/>
    <path class="cls-15" d="M323.04,365.91s-22.28,8.07-58.11-8.45c0,0-17.67-8.92-38.9-29.94,0,0,25.37,35.41,67.96,42.97,0,0,13.35,2.77,29.14-.35,0,0-1.25-.11-.09-4.23Z"/>
    <path class="cls-13" d="M264.02,100.05s-42.23,19.94-68.81,113.92c0,0-27.34-29.9-35.82-5.35-8.36,24.17,5.23,49.76,5.23,49.76,0,0,5.34,16.86,31.98,8.96,0,0,32.66,120.76-6.88,192.33,0,0-11.74,40.4,19.11,53.04,0,0-34.71,24.79-84.6-4.96-49.89-29.74-46.87-150.48-33.97-202.11,12.9-51.63,25.67-65.44,35.28-140.11,9.6-74.67,70.53-102.39,95.64-107.36,0,0,89.21-88.91,190.54,36.83,0,0,38.91,57.3,4.5,204.59,0,0-1.06,85.83-10.03,132.36,0,0-13.97,62.67-43.17,95.46,0,0-31.55,29.18-52.3,7.48,0,0,17.5-17.03,20.71-42.68,2.21-17.68,9.01-51.62,23.74-68.8,0,0-34.22-33.81-32.11-57.5,0,0,35.82-3.38,70.95-72.86,0,0,15.41-26.9,6.91-52.26,0,0-3.13-12.92,2.92-23.9,0,0,4.9-14.49,5.61-31.62,.71-17.13-6.95-38.38-6.95-38.38,0,0-43.36,5.66-138.44-46.84Z"/>
    <g>
      <path class="cls-4" d="M265.6,203.06s.05-.9,.76-1.6c2.37-2.33,7.75-6.62,15.73-6.09,8.94,.59,13.31,9.31,14.79,12.41,.26,.54,.2,.99,.2,.99,0,0,0,.5-.33,.83-1.54,1.56-6.6,5.87-15.07,5.44-5.04-.25-11.94-3.43-15.87-10.55-.27-.5-.26-1.1-.22-1.43Z"/>
      <circle class="cls-15" cx="283.94" cy="205.85" r="9.26"/>
      <circle class="cls-4" cx="278.23" cy="203.59" r="2.54"/>
      <path class="cls-25" d="M297.43,207.83s-9.47-22.05-31.41-6.47"/>
    </g>
    <g>
      <path class="cls-4" d="M369.26,217.49s-.08-.84,.48-1.6c1.87-2.5,6.26-7.26,13.76-7.92,8.4-.73,13.71,6.75,15.53,9.43,.31,.46,.33,.89,.33,.89,0,0,.07,.47-.18,.82-1.2,1.67-5.29,6.4-13.23,7.22-4.73,.48-11.59-1.48-16.27-7.55-.33-.42-.4-.99-.41-1.3Z"/>
      <circle class="cls-15" cx="386.71" cy="217.44" r="8.68"/>
      <circle class="cls-4" cx="380.81" cy="216.33" r="2.43"/>
      <path class="cls-25" d="M399.19,217.68s-11.43-20.4-29.69-1.42"/>
    </g>
    <path class="cls-22" d="M138.03,652.84s2.76-41.77-9.36-74.48"/>
    <line class="cls-22" x1="457.29" y1="655.65" x2="451.46" y2="601.83"/>
    <path class="cls-11" d="M283.29,295.06s31.16-5.87,43.1,6.12c0,0,9.38-7.29,32.65,5.19,0,0-9.56,34.44-38.85,30.66-41.8-5.4-36.9-41.97-36.9-41.97Z"/>
    <path class="cls-5" d="M288.47,299.69s.8,23.77,29.68,28.14c28.87,4.38,35.2-18.66,35.2-18.66,0,0-46.53-11.33-64.88-9.48Z"/>
    <path class="cls-4" d="M295.73,299.54s5.79,7.98,27.93,11.6c20.4,3.33,27.27-2.63,27.27-2.63,0,0-29.56-8.11-55.21-8.96Z"/>
    <path class="cls-20" d="M491.42,723.9s-16.91,16.55-14.14,42.15"/>
    <path class="cls-10" d="M476.13,769.25l-307.54,125.33s-100.2,18.86-125.31-79.36c-25.1-98.22-39.09-168.65-39.09-168.65,0,0,44.52,18.47,133.94,1.35l32.86,108.56,266.27-50.95"/>
    <path class="cls-10" d="M437.26,705.53s22.62-9.49,22.62-35.02,10.94-50.34,10.94-50.34c0,0-6.57-32.1,4.38-42.32,10.94-10.21,19.7,22.62,19.7,22.62l-4.38,35.75s43.78-21.89,64.21-21.89,51.07,2.19,51.07,2.19c0,0,17.51,8.03,2.19,13.13-15.32,5.11-51.8,6.57-51.8,6.57l-38.67,23.35s7.3,3.65,24.81,0c17.51-3.65,47.43-6.57,47.43-6.57,0,0,26.27,2.92,26.27,13.13,0,0-.16,5.26-1.96,6.83,0,0,8.79,6.08,7.44,9.92s-16.9,9.01-16.9,9.01c0,0,7.81,13.04-12.69,19.47-20.5,6.43-36.18,18.09-36.18,18.09,0,0-22.11,26.13-55.88,26.93,0,0-16.88,2.81-23.72,12.86"/>
    <path class="cls-21" d="M530.76,685.66s45.14-7.68,56.67-12.49c11.53-4.8,26.62-.21,26.62-.21,0,0,11.93-15.83-24.3-19.97l-37.55,4.45s-28.42,8.44-34.68,2.11l38.67-23.35s56.84-1.69,57.78-11.05c0,0,1.22-3.73-8.17-8.65,0,0-36.99-3.52-58.51-1.41-21.52,2.11-56.77,21.11-56.77,21.11"/>
    <path class="cls-21" d="M537.08,712.48s45.46-17.91,54.41-21.35,13.1,.76,13.1,.76c0,0,13.61-2.86,16.9-9.01s-7.44-9.92-7.44-9.92"/>
    <path class="cls-21" d="M476.64,642.85c3.42,0,13.88-6.64,13.88-6.64l4.38-35.75s-5.54-22.57-15.47-24.8-10.78,28.23-10.78,28.23c0,0,1.31,9.99,2.17,16.27,0,0-5.67,18.19-7.41,23.03-3.47,9.68-3.34,30.25-3.34,30.25,0,0-.25,21.84-20.6,31.52"/>
    <path class="cls-21" d="M423.02,790.15s56.68-32.19,76.82-33.76c20.14-1.57,35.62-6.07,55.88-26.93,0,0,24.91-16.87,36.18-18.09,11.27-1.21,16.62-11.76,12.69-19.47"/>
    <circle class="cls-4" cx="513.22" cy="563.73" r="4.93"/>
  </g>
  <g>
    <path class="cls-7" d="M943.74,273.52s-7.88,42.14,17.62,79.28c0,0,22.76,144.19-86.22,168.8,0,0-83.83-47.06-62.66-143.91l131.25-104.16Z"/>
    <path class="cls-1" d="M1153.24,810.84l10.88,54.41-25.03,48.54h-487.58l34.98-133.99-2.5-45.47c-19.99-92.62-26.33-113.62-20.38-181.57,0,0,5.96-65.16,45.89-107.98,31.6-33.89,31.27-36.87,77.47-48,0,0,18.32,49.78,87.14,90.42,0,0,66.95-29.07,134.41-133.88,0,0,88.92,17.78,145.4,73.84,0,0,64.2,151.12,65.24,303.11,0,0,9.9,69.27-65.92,80.56"/>
    <path class="cls-7" d="M749.65,123.35s-23.71,26.37-11.81,89.75c0,0,7.22,15.68,5.79,34.29,0,0-5.53,33,5.43,59.9,14.88,36.54,35.52,50.65,35.52,50.65,0,0,15.91,13.48,35.45,8.17,0,0,30.98,7.8,56.03-11.29,25.05-19.09,66.24-75.76,66.24-75.76,0,0,24.79,4.61,30.08-20.98,5.28-25.59,14.72-45.61-1.92-59.03-16.65-13.42-32.41,28.57-32.41,28.57,0,0-11.32-11.64-9.9-30.25,0,0,4.73-37.49-20.58-78.94,0,0-70.62-23.96-157.91,4.92Z"/>
    <path class="cls-6" d="M847.51,295.61s-17.79-3.92-37.96,3.65c0,0-18.15-2.09-33.93,2.81,0,0,4.17,28.68,31.73,32.82,27.57,4.14,42.06-22.48,40.16-39.28Z"/>
    <path class="cls-5" d="M843.35,298.01s2.36,25.49-30.8,28.23c-30.12,2.49-32.23-20.19-32.23-20.19,0,0,34.05-1.27,63.03-8.04Z"/>
    <path class="cls-13" d="M825.21,199.16s32.62-16.38,63.63-2.15c0,0-17.14-29.69-65.67-11.37,0,0-7.49,9.33,2.04,13.52Z"/>
    <path class="cls-13" d="M737.7,202.25c23.18-6.61,35.41,1.88,35.41,1.88,8.48-5.47-.19-13.1-.19-13.1-15.41-3-27.17-2.07-36.04,.62,0,0-.44,10.96,.83,10.6Z"/>
    <path class="cls-4" d="M839.26,298.71s-7.24,12.49-33.01,13.37c0,0-15.76,2.1-23.09-5.76,0,0,33.13-2.02,56.1-7.61Z"/>
    <path class="cls-15" d="M822.16,367.89s37.27,2.57,51.68-11.66c0,0,17.26-10.63,36.38-35.97,0,0-22.16,44.36-55.82,51.12,0,0-15.76,4.11-32.23-3.49,0,0,.94,3.61,0,0Z"/>
    <path class="cls-14" d="M798.63,364.89s12.09,4.53,24.5,.78l3.76,.24s-2.95,21.94-17.68,29.49c0,0,38.71,33,70.54,37.85,0,0,70.89-27.39,81.61-80.46,0,0-7.94-4.92-14.6-31.76,0,0,23.54-2.99,62.77,7.43,11.85,3.15,25.69,21.32,26.34,38.65l-17.33-8.06s-57.09,90.9-141.49,136.75c0,0-90.96-41.22-111.13-91.9,0,0,12.05-4.43,0,0,0,0-1.32-12.77,4.19-26.19,0,0,13.05-9.58,28.52-12.83Z"/>
    <path class="cls-18" d="M914.9,444.85s34.56,70.67,20.1,115.21c-14.45,44.54,1.89,103.67,1.89,103.67"/>
    <path class="cls-18" d="M852.07,443.31s-17.4,133.52,7.35,211.49"/>
    <path class="cls-13" d="M938.05,227.92s-20.87-21.36-13.87-67.34c0,0-40.23-14.37-32.22-38.12,0,0-30.78,9.47-36.23-6.24,0,0-22.12,13.86-41.47,.84,0,0-25.25,25.6-56.84,8.56,0,0-23.9,12.56-23.18,50.69,0,0-23.71-48.08-1.69-62.99,0,0-17.69-43.17,33.78-53.58,0,0,19.56-54.72,71.9-24.41,0,0,49.63-22.57,62.31,10.24,0,0,20.63-31.72,34.39,4.08,0,0,42.64,3.4,28.54,43.81,0,0,36.49-.71,28.48,33.04,0,0,23.27,40.4-.91,59.33,0,0,2.66,22.1-14.92,20.47,0,0-14.27-11.9-38.08,21.62Z"/>
    <path class="cls-24" d="M972.64,235.48s-12.82-27.03-30.54,19.63c0,0,16.56-21.32,21.2-4.6"/>
    <path class="cls-17" d="M875.28,189.45s-37.67-3.68-69.94,6.63c0,0-.74,52.71,39.04,51.12,0,0,46.25-5.52,30.89-57.75Z"/>
    <path class="cls-17" d="M783.38,197.04s-37.67-3.68-69.94,6.63c0,0-.74,52.71,39.04,51.12,0,0,46.25-5.52,30.89-57.75Z"/>
    <path class="cls-17" d="M783.38,197.04s10.77-7.46,21.97-.97"/>
    <line class="cls-17" x1="875.28" y1="189.45" x2="958.62" y2="201.68"/>
    <path class="cls-24" d="M777.44,253.8s-14.63,26.17,14.69,26.7"/>
    <g>
      <path class="cls-4" d="M863.89,214.97s-.03-.89-.72-1.6c-2.29-2.35-7.53-6.7-15.43-6.34-8.85,.4-13.35,8.94-14.88,11.98-.26,.52-.22,.97-.22,.97,0,0,0,.49,.3,.83,1.49,1.58,6.4,5.94,14.79,5.69,4.99-.15,11.87-3.15,15.9-10.12,.28-.48,.28-1.09,.25-1.41Z"/>
      <circle class="cls-15" cx="845.71" cy="217.37" r="9.16"/>
      <circle class="cls-4" cx="851.4" cy="215.24" r="2.51"/>
      <path class="cls-19" d="M832.32,219.05s9.81-21.61,31.19-5.76"/>
    </g>
    <g>
      <path class="cls-4" d="M773.65,226.11s.1-.83-.44-1.59c-1.79-2.51-6.04-7.31-13.44-8.1-8.29-.89-13.69,6.4-15.55,9.01-.32,.45-.34,.87-.34,.87,0,0-.08,.46,.17,.81,1.16,1.68,5.11,6.44,12.94,7.4,4.66,.57,11.49-1.23,16.24-7.13,.33-.41,.41-.97,.43-1.27Z"/>
      <circle class="cls-15" cx="756.39" cy="225.71" r="8.59"/>
      <circle class="cls-4" cx="762.25" cy="224.73" r="2.41"/>
      <path class="cls-19" d="M744.04,225.69s11.71-19.95,29.38-.81"/>
    </g>
    <path class="cls-19" d="M709.86,585.11s5.33,120.81,39.89,236.19"/>
    <path class="cls-19" d="M1078.72,663.58s-42.39-65.49-33.48-184.74"/>
    <path class="cls-19" d="M1004.99,649.71s28.86,4.49,73.72,13.87"/>
    <path class="cls-19" d="M884.65,765.72s135.06,78.13,268.58,45.12"/>
    <line class="cls-19" x1="749.76" y1="821.3" x2="737.79" y2="911.56"/>
    <path class="cls-23" d="M765.92,403.91s-.49-19.83,4.19-26.19c0,0,17.66-10.81,28.52-12.83"/>
    <path class="cls-23" d="M946.77,321.04s37.37,2.23,50.07,4.83"/>
    <path class="cls-7" d="M795.8,621.61l-25.21-4.1s-11.64-28.29-8.37-55.61c3.27-27.33-4.31-41.81-9.78-40.55-5.46,1.26-7.55,23.71-8.73,38.13l-7.8-35.94s-27.61-35.07-45.13-35.19c-17.51-.12,17.05,38.96,17.05,38.96l2.79,38.04-13.11-33.47s-8.63-19.44-21.2-22.09c-12.57-2.65-33.01-5.87-33.01-5.87,0,0-19.72,5.36-8.91,16.39,10.81,11.03,31.31,10.13,31.31,10.13,0,0,7.58,26.53,12.02,35.21,0,0-64.86-2.78-74.32,7.07-9.46,9.85,6.69,15.9,6.69,15.9l51.16,1.46,18.71,16.95s-7.25,6.78-25.65-1.55c-18.4-8.33-33.24,1.15-33.24,1.15,0,0-6.42,16.59,18.68,16.54,0,0,14.72,8.64,20.79,22.12,6.07,13.48,52.81,21.08,52.81,21.08l33.6,17.75"/>
    <path class="cls-14" d="M1004.99,649.71s-91.44-20.08-173.01-28.74l-53.52-14.26s-46.9,43.14-38.49,93.85c0,0,40.29,14.89,64.93,14.95,0,0,30.19,32.85,79.75,50.21,0,0-.29-105.53,120.34-116.01Z"/>
    <line class="cls-21" x1="743.71" y1="559.48" x2="744.01" y2="582.73"/>
  </g>
  <path class="cls-2" d="M80.42,913.77c56.65,96.84,112.72,142.25,112.72,142.25h833.23s57.66-47.1,112.72-142.25"/>
  <path class="cls-12" d="M1026.37,1056.02c-108.96,101.59-255.68,164.47-416.41,164.47s-307.86-62.84-416.83-164.47"/>
</svg>