<svg width="227" height="147" viewBox="0 0 227 147" fill="none" xmlns="http://www.w3.org/2000/svg">
<mask id="mask0_390_7146" style="mask-type:alpha" maskUnits="userSpaceOnUse" x="62" y="27" width="121" height="121">
<rect x="62.3555" y="27.0001" width="120" height="120" fill="#D9D9D9"/>
</mask>
<g mask="url(#mask0_390_7146)">
<path d="M67.3555 127V107C67.3555 104.167 68.3346 101.792 70.293 99.8751C72.2513 97.9585 74.6055 97.0001 77.3555 97.0001H93.7305C95.3971 97.0001 96.9805 97.4168 98.4805 98.2501C99.9805 99.0835 101.189 100.208 102.105 101.625C104.522 104.875 107.501 107.417 111.043 109.25C114.585 111.083 118.355 112 122.355 112C126.439 112 130.251 111.083 133.793 109.25C137.335 107.417 140.272 104.875 142.605 101.625C143.689 100.208 144.96 99.0835 146.418 98.2501C147.876 97.4168 149.397 97.0001 150.98 97.0001H167.355C170.189 97.0001 172.564 97.9585 174.48 99.8751C176.397 101.792 177.355 104.167 177.355 107V127H142.355V115.625C139.439 117.708 136.293 119.292 132.918 120.375C129.543 121.458 126.022 122 122.355 122C118.772 122 115.272 121.438 111.855 120.313C108.439 119.188 105.272 117.583 102.355 115.5V127H67.3555ZM122.355 107C119.189 107 116.189 106.271 113.355 104.813C110.522 103.354 108.147 101.333 106.23 98.7501C104.814 96.6668 103.043 95.021 100.918 93.8126C98.793 92.6043 96.4805 92.0001 93.9805 92.0001C95.8138 88.9168 99.6888 86.4793 105.605 84.6876C111.522 82.896 117.105 82.0001 122.355 82.0001C127.605 82.0001 133.189 82.896 139.105 84.6876C145.022 86.4793 148.897 88.9168 150.73 92.0001C148.314 92.0001 146.022 92.6043 143.855 93.8126C141.689 95.021 139.897 96.6668 138.48 98.7501C136.647 101.417 134.314 103.458 131.48 104.875C128.647 106.292 125.605 107 122.355 107ZM82.3555 92.0001C78.1888 92.0001 74.6471 90.5418 71.7305 87.6251C68.8138 84.7085 67.3555 81.1668 67.3555 77.0001C67.3555 72.7501 68.8138 69.1876 71.7305 66.3126C74.6471 63.4376 78.1888 62.0001 82.3555 62.0001C86.6055 62.0001 90.168 63.4376 93.043 66.3126C95.918 69.1876 97.3555 72.7501 97.3555 77.0001C97.3555 81.1668 95.918 84.7085 93.043 87.6251C90.168 90.5418 86.6055 92.0001 82.3555 92.0001ZM162.355 92.0001C158.189 92.0001 154.647 90.5418 151.73 87.6251C148.814 84.7085 147.355 81.1668 147.355 77.0001C147.355 72.7501 148.814 69.1876 151.73 66.3126C154.647 63.4376 158.189 62.0001 162.355 62.0001C166.605 62.0001 170.168 63.4376 173.043 66.3126C175.918 69.1876 177.355 72.7501 177.355 77.0001C177.355 81.1668 175.918 84.7085 173.043 87.6251C170.168 90.5418 166.605 92.0001 162.355 92.0001ZM122.355 77.0001C118.189 77.0001 114.647 75.5418 111.73 72.6251C108.814 69.7085 107.355 66.1668 107.355 62.0001C107.355 57.7501 108.814 54.1876 111.73 51.3126C114.647 48.4376 118.189 47.0001 122.355 47.0001C126.605 47.0001 130.168 48.4376 133.043 51.3126C135.918 54.1876 137.355 57.7501 137.355 62.0001C137.355 66.1668 135.918 69.7085 133.043 72.6251C130.168 75.5418 126.605 77.0001 122.355 77.0001Z" fill="#C4C7C9"/>
</g>
<rect x="182.838" y="3.00012" width="50" height="50" rx="8" transform="rotate(28.8233 182.838 3.00012)" fill="#D9D9D9"/>
<path d="M25.3057 15.9932C26.408 14.5375 28.1132 13.6631 29.9386 13.6173L50.1864 13.1101C52.0118 13.0644 53.7586 13.8523 54.9325 15.251L67.9533 30.765C69.1272 32.1637 69.6003 34.0207 69.2387 35.8105L65.2276 55.6635C64.866 57.4533 63.7091 58.981 62.0844 59.8142L44.0618 69.0564C42.4371 69.8896 40.5213 69.9376 38.8568 69.1868L20.3941 60.8586C18.7297 60.1078 17.4977 58.6399 17.047 56.8705L12.0469 37.2433C11.5961 35.4738 11.9756 33.5954 13.078 32.1398L25.3057 15.9932Z" fill="#D9D9D9"/>
</svg>
