<?xml version="1.0" encoding="UTF-8" standalone="no"?>
<svg
   width="471.99936"
   height="128.34476"
   viewBox="0 0 471.99936 128.34476"
   fill="none"
   version="1.1"
   id="svg6"
   sodipodi:docname="background-bottom-cropped.svg"
   inkscape:version="1.2 (dc2aedaf03, 2022-05-15)"
   xmlns:inkscape="http://www.inkscape.org/namespaces/inkscape"
   xmlns:sodipodi="http://sodipodi.sourceforge.net/DTD/sodipodi-0.dtd"
   xmlns="http://www.w3.org/2000/svg"
   xmlns:svg="http://www.w3.org/2000/svg">
  <defs
     id="defs10">
    <clipPath
       clipPathUnits="userSpaceOnUse"
       id="clipPath370">
      <rect
         style="fill:#000000;stroke:#000000"
         id="rect372"
         width="482.95993"
         height="146.67671"
         x="-10.732443"
         y="-17.887405" />
    </clipPath>
    <clipPath
       clipPathUnits="userSpaceOnUse"
       id="clipPath374">
      <rect
         style="fill:#000000;stroke:#000000"
         id="rect376"
         width="482.95993"
         height="146.67671"
         x="-10.732443"
         y="-17.887405" />
    </clipPath>
  </defs>
  <sodipodi:namedview
     id="namedview8"
     pagecolor="#ffffff"
     bordercolor="#000000"
     borderopacity="0.25"
     inkscape:showpageshadow="2"
     inkscape:pageopacity="0.0"
     inkscape:pagecheckerboard="0"
     inkscape:deskcolor="#d1d1d1"
     showgrid="false"
     inkscape:zoom="1.6771578"
     inkscape:cx="260.55986"
     inkscape:cy="107.92067"
     inkscape:window-width="1920"
     inkscape:window-height="1094"
     inkscape:window-x="2869"
     inkscape:window-y="-11"
     inkscape:window-maximized="1"
     inkscape:current-layer="svg6" />
  <path
     d="m 226.635,101.348 c 69.499,-93.00004 110,-15.4996 163.5,-57.9996 53.5,-42.500011 96,-45.57975 96,16 33.5,53.4996 -59.42,122.9996 -121,122.9996 -59.5,36.5 -207.999,12 -138.5,-81 z"
     fill="#dce3ef"
     id="path2"
     clip-path="url(#clipPath374)"
     transform="translate(-0.22811789,-0.4445485)" />
  <path
     d="m 104.136,150.348 c -96.50104,0 -133.4998,-54.9997 -75.4996,-129.5 58.0002,-74.5002 66.3323,89.902 108.9996,45.5 42.668,-44.4019 133.999,-40.5004 147.5,12.0003 16.714,64.9997 -84.499,71.9997 -181,71.9997 z"
     stroke="#46607f"
     stroke-width="1.5"
     id="path4"
     clip-path="url(#clipPath370)"
     transform="translate(-0.22811789,-0.4445485)" />
</svg>
