<?xml version="1.0" encoding="UTF-8" standalone="no"?>
<svg
   width="435.24683"
   height="196.78078"
   viewBox="0 0 435.24683 196.78078"
   fill="none"
   version="1.1"
   id="svg391"
   sodipodi:docname="background-top-cropped.svg"
   inkscape:version="1.2 (dc2aedaf03, 2022-05-15)"
   xmlns:inkscape="http://www.inkscape.org/namespaces/inkscape"
   xmlns:sodipodi="http://sodipodi.sourceforge.net/DTD/sodipodi-0.dtd"
   xmlns="http://www.w3.org/2000/svg"
   xmlns:svg="http://www.w3.org/2000/svg">
  <defs
     id="defs395">
    <clipPath
       clipPathUnits="userSpaceOnUse"
       id="clipPath516">
      <rect
         style="fill:#000000;stroke:#000000;stroke-width:1.03174"
         id="rect518"
         width="500.34961"
         height="234.58691"
         x="58.151466"
         y="47.770107" />
    </clipPath>
    <clipPath
       clipPathUnits="userSpaceOnUse"
       id="clipPath520">
      <rect
         style="fill:#000000;stroke:#000000;stroke-width:1.03174"
         id="rect522"
         width="500.34961"
         height="234.58691"
         x="58.151466"
         y="47.770107" />
    </clipPath>
  </defs>
  <sodipodi:namedview
     id="namedview393"
     pagecolor="#ffffff"
     bordercolor="#000000"
     borderopacity="0.25"
     inkscape:showpageshadow="2"
     inkscape:pageopacity="0.0"
     inkscape:pagecheckerboard="0"
     inkscape:deskcolor="#d1d1d1"
     showgrid="false"
     inkscape:zoom="0.96326531"
     inkscape:cx="188.94068"
     inkscape:cy="74.745763"
     inkscape:window-width="1920"
     inkscape:window-height="1094"
     inkscape:window-x="2869"
     inkscape:window-y="-11"
     inkscape:window-maximized="1"
     inkscape:current-layer="svg391" />
  <path
     d="m 226.766,114.849 c -54,32.948 -53.629,110.999 -151.6293,127.999 -98.0007,17 -70.8714,-97.42 -70.8714,-158.9996 0,-61.5798 115.9207,-83.500011 177.5007,-83.500011 74.5,12.500011 99,81.551511 45,114.500611 z"
     fill="#dce3ef"
     id="path387"
     clip-path="url(#clipPath520)"
     transform="translate(-58.151466,-47.770107)" />
  <path
     d="m 349.637,155.848 c -61.766,-13.658 -122,82 -159.5,-7 -37.5,-88.9997 14.259,-73.5978 56.927,-117.9997 42.668,-44.4019 215.573,-3e-4 243.073,55.4999 19.499,71.4998 -78.734,83.1588 -140.5,69.4998 z"
     stroke="#46607f"
     stroke-width="1.5"
     id="path389"
     clip-path="url(#clipPath516)"
     transform="translate(-58.151466,-47.770107)" />
</svg>
