<?xml version="1.0" encoding="UTF-8" standalone="no"?>
<svg
   width="464.85876"
   height="100.52109"
   viewBox="0 0 464.85876 100.52109"
   fill="none"
   version="1.1"
   id="svg6"
   sodipodi:docname="library-bottom-left.svg"
   inkscape:version="1.2 (dc2aedaf03, 2022-05-15)"
   xmlns:inkscape="http://www.inkscape.org/namespaces/inkscape"
   xmlns:sodipodi="http://sodipodi.sourceforge.net/DTD/sodipodi-0.dtd"
   xmlns="http://www.w3.org/2000/svg"
   xmlns:svg="http://www.w3.org/2000/svg">
  <defs
     id="defs10">
    <clipPath
       clipPathUnits="userSpaceOnUse"
       id="clipPath295">
      <rect
         style="fill:#000000;stroke:#000000"
         id="rect297"
         width="469.05084"
         height="124.11017"
         x="0.85593218"
         y="-23.11017" />
    </clipPath>
    <clipPath
       clipPathUnits="userSpaceOnUse"
       id="clipPath299">
      <rect
         style="fill:#000000;stroke:#000000"
         id="rect301"
         width="469.05084"
         height="124.11017"
         x="0.85593218"
         y="-23.11017" />
    </clipPath>
  </defs>
  <sodipodi:namedview
     id="namedview8"
     pagecolor="#ffffff"
     bordercolor="#000000"
     borderopacity="0.25"
     inkscape:showpageshadow="2"
     inkscape:pageopacity="0.0"
     inkscape:pagecheckerboard="0"
     inkscape:deskcolor="#d1d1d1"
     showgrid="false"
     inkscape:zoom="2.3366337"
     inkscape:cx="213.98305"
     inkscape:cy="50.072034"
     inkscape:window-width="1920"
     inkscape:window-height="1094"
     inkscape:window-x="2869"
     inkscape:window-y="-11"
     inkscape:window-maximized="1"
     inkscape:current-layer="svg6" />
  <path
     d="M 81.1357,150.383 C -15.365,150.383 -52.3638,95.3827 5.63637,20.8824 63.6366,-53.6178 71.9687,110.784 114.636,66.3824 157.304,21.9805 248.635,25.8821 262.136,78.3827 278.85,143.383 177.637,150.383 81.1357,150.383 Z"
     fill="#ffffff"
     stroke="#46607f"
     stroke-width="1.5"
     id="path2"
     clip-path="url(#clipPath299)"
     transform="translate(-0.85593218,-0.47891346)" />
  <path
     d="m 199.135,97.1808 c 69.499,-93.00007 110,-15.4996 163.5,-57.9996 53.5,-42.50005 96,-45.57979 96,16 33.5,53.4998 -59.42,122.9998 -121,122.9998 -59.5,36.5 -207.999,12 -138.5,-81.0002 z"
     fill="#dce3ef"
     id="path4"
     clip-path="url(#clipPath295)"
     transform="translate(-0.85593218,-0.47891346)" />
</svg>
